M48
;GenerationSoftware,Autodesk,EAGLE,9.6.1*%
;CreationDate,2024-12-14T17:28:43Z*%
FMAT,2
ICI,OFF
METRIC,TZ,000.000
T6C0.250
T5C0.350
T4C0.500
T3C0.650
T2C1.016
T1C1.020
%
G90
M71
T1
X-6667Y22860
X-6667Y25400
T2
X-9366Y13811
X-9366Y16351
X10319Y15081
X-9366Y11271
T3
X3759Y20479
X-3441Y20479
T4
X-3971Y21729
X-4331Y27679
X4649Y27679
X4289Y21729
T5
X-8414Y4604
X-13335Y16669
X-13335Y13335
X-635Y25876
X318Y25876
X318Y25082
X-635Y25082
X-635Y24289
X318Y24289
X-159Y8731
X1270Y18733
X4921Y2699
X-1111Y18733
X4604Y17043
X3016Y25874
X13494Y16510
X13335Y13970
X6667Y3651
X-5239Y3175
T6
X-195Y20638
X762Y22275
X476Y13017
X1587Y13017
X-6882Y6350
X11859Y19526
X10086Y5989
X-9825Y7978
X-10377Y20569
X-4220Y10585
X-1823Y2836
X-3450Y24074
X-4220Y9878
X4230Y6667
X512Y20638
X55Y22275
M30