G04 EAGLE Gerber RS-274X export*
G75*
%MOMM*%
%FSLAX34Y34*%
%LPD*%
%INTop Copper*%
%IPPOS*%
%AMOC8*
5,1,8,0,0,1.08239X$1,22.5*%
G01*
%ADD10R,1.000000X1.100000*%
%ADD11R,0.800000X0.800000*%
%ADD12P,1.649562X8X22.500000*%
%ADD13C,1.524000*%
%ADD14R,0.290000X0.700000*%
%ADD15C,1.008000*%
%ADD16C,1.530000*%
%ADD17R,1.100000X1.000000*%
%ADD18C,1.000000*%
%ADD19C,0.812800*%
%ADD20C,0.750000*%
%ADD21C,0.406400*%
%ADD22C,0.609600*%
%ADD23C,0.304800*%
%ADD24C,0.254000*%
%ADD25C,0.203200*%
%ADD26C,0.554800*%
%ADD27C,1.016000*%

G36*
X-44040Y13316D02*
X-44040Y13316D01*
X-43949Y13323D01*
X-43919Y13336D01*
X-43888Y13341D01*
X-43807Y13384D01*
X-43723Y13419D01*
X-43691Y13445D01*
X-43670Y13456D01*
X-43648Y13479D01*
X-43592Y13524D01*
X-37169Y19948D01*
X-37116Y20021D01*
X-37056Y20091D01*
X-37044Y20121D01*
X-37025Y20147D01*
X-36998Y20234D01*
X-36964Y20319D01*
X-36960Y20360D01*
X-36953Y20382D01*
X-36954Y20415D01*
X-36946Y20486D01*
X-36946Y34526D01*
X-36095Y36580D01*
X-28250Y44425D01*
X-26195Y45276D01*
X12224Y45276D01*
X14278Y44425D01*
X45179Y13524D01*
X45253Y13471D01*
X45323Y13412D01*
X45353Y13399D01*
X45379Y13381D01*
X45466Y13354D01*
X45551Y13320D01*
X45592Y13315D01*
X45614Y13308D01*
X45646Y13309D01*
X45718Y13301D01*
X69256Y13301D01*
X69308Y13310D01*
X69361Y13308D01*
X69429Y13330D01*
X69499Y13341D01*
X69545Y13366D01*
X69596Y13381D01*
X69653Y13423D01*
X69716Y13456D01*
X69752Y13494D01*
X69795Y13525D01*
X69866Y13614D01*
X69885Y13634D01*
X69890Y13644D01*
X69900Y13656D01*
X70137Y14032D01*
X70217Y14073D01*
X70303Y14108D01*
X70326Y14127D01*
X70354Y14141D01*
X70478Y14254D01*
X71313Y15199D01*
X71330Y15225D01*
X71351Y15246D01*
X71395Y15328D01*
X71444Y15407D01*
X71451Y15437D01*
X71466Y15463D01*
X71486Y15561D01*
X71969Y15956D01*
X71991Y15981D01*
X72058Y16041D01*
X72467Y16504D01*
X72553Y16531D01*
X72644Y16552D01*
X72670Y16568D01*
X72698Y16577D01*
X72839Y16668D01*
X73816Y17467D01*
X73836Y17490D01*
X73861Y17507D01*
X73917Y17582D01*
X73978Y17652D01*
X73990Y17680D01*
X74008Y17704D01*
X74044Y17797D01*
X74585Y18109D01*
X74610Y18130D01*
X74685Y18179D01*
X75164Y18571D01*
X75253Y18583D01*
X75346Y18589D01*
X75374Y18601D01*
X75404Y18605D01*
X75557Y18673D01*
X76649Y19305D01*
X76673Y19324D01*
X76700Y19337D01*
X76767Y19402D01*
X76839Y19461D01*
X76855Y19486D01*
X76877Y19507D01*
X76928Y19593D01*
X77511Y19815D01*
X77540Y19832D01*
X77622Y19868D01*
X78157Y20178D01*
X78247Y20176D01*
X78340Y20167D01*
X78369Y20174D01*
X78399Y20173D01*
X78562Y20215D01*
X79741Y20664D01*
X79767Y20679D01*
X79796Y20687D01*
X79873Y20740D01*
X79954Y20787D01*
X79974Y20810D01*
X79999Y20827D01*
X80062Y20904D01*
X80674Y21029D01*
X80704Y21041D01*
X80791Y21064D01*
X81369Y21284D01*
X81458Y21268D01*
X81548Y21244D01*
X81578Y21246D01*
X81608Y21240D01*
X81775Y21256D01*
X83011Y21509D01*
X83039Y21520D01*
X83069Y21524D01*
X83154Y21564D01*
X83241Y21597D01*
X83264Y21616D01*
X83291Y21630D01*
X83366Y21695D01*
X83990Y21721D01*
X84022Y21727D01*
X84112Y21736D01*
X84922Y21902D01*
X84929Y21901D01*
X84971Y21911D01*
X85014Y21912D01*
X85090Y21939D01*
X85169Y21957D01*
X85205Y21979D01*
X85246Y21994D01*
X85309Y22043D01*
X85378Y22086D01*
X85406Y22119D01*
X85439Y22145D01*
X85528Y22266D01*
X85536Y22275D01*
X85536Y22277D01*
X85539Y22280D01*
X94494Y37792D01*
X94509Y37833D01*
X94533Y37869D01*
X94553Y37947D01*
X94581Y38022D01*
X94582Y38065D01*
X94593Y38108D01*
X94587Y38188D01*
X94590Y38267D01*
X94577Y38309D01*
X94574Y38353D01*
X94543Y38427D01*
X94520Y38503D01*
X94495Y38539D01*
X94478Y38579D01*
X94387Y38693D01*
X94379Y38705D01*
X94376Y38707D01*
X94373Y38710D01*
X87847Y45236D01*
X86168Y46915D01*
X85317Y48969D01*
X85317Y85668D01*
X86168Y87722D01*
X112722Y114275D01*
X114776Y115126D01*
X135482Y115126D01*
X135572Y115141D01*
X135663Y115148D01*
X135693Y115161D01*
X135725Y115166D01*
X135806Y115209D01*
X135890Y115244D01*
X135922Y115270D01*
X135942Y115281D01*
X135965Y115304D01*
X136021Y115349D01*
X143639Y122968D01*
X143648Y122980D01*
X143661Y122990D01*
X143760Y123125D01*
X154077Y140996D01*
X154118Y141103D01*
X154160Y141208D01*
X154161Y141218D01*
X154164Y141226D01*
X154169Y141340D01*
X154175Y141454D01*
X154173Y141465D01*
X154173Y141472D01*
X154167Y141495D01*
X154140Y141618D01*
X153849Y142490D01*
X153834Y142519D01*
X153801Y142603D01*
X153514Y143150D01*
X153519Y143240D01*
X153532Y143332D01*
X153527Y143362D01*
X153528Y143392D01*
X153493Y143556D01*
X153091Y144759D01*
X153077Y144786D01*
X153070Y144815D01*
X153020Y144894D01*
X152977Y144977D01*
X152955Y144998D01*
X152939Y145023D01*
X152865Y145090D01*
X152765Y145706D01*
X152754Y145737D01*
X152736Y145825D01*
X152540Y146412D01*
X152560Y146499D01*
X152587Y146588D01*
X152586Y146618D01*
X152593Y146648D01*
X152585Y146816D01*
X152381Y148067D01*
X152372Y148096D01*
X152369Y148126D01*
X152333Y148212D01*
X152303Y148300D01*
X152285Y148325D01*
X152273Y148352D01*
X152211Y148430D01*
X152211Y149055D01*
X152205Y149087D01*
X152201Y149177D01*
X152102Y149787D01*
X152135Y149870D01*
X152177Y149954D01*
X152181Y149984D01*
X152192Y150012D01*
X152211Y150178D01*
X152211Y151447D01*
X152206Y151476D01*
X152208Y151507D01*
X152186Y151597D01*
X152171Y151689D01*
X152157Y151716D01*
X152150Y151746D01*
X152101Y151832D01*
X152201Y152448D01*
X152201Y152481D01*
X152211Y152570D01*
X152211Y153189D01*
X152257Y153265D01*
X152312Y153341D01*
X152321Y153370D01*
X152336Y153396D01*
X152381Y153558D01*
X152585Y154809D01*
X152585Y154840D01*
X152592Y154869D01*
X152587Y154930D01*
X152587Y154933D01*
X152586Y154937D01*
X152584Y154962D01*
X152584Y155055D01*
X152575Y155084D01*
X152572Y155114D01*
X152538Y155208D01*
X152736Y155800D01*
X152741Y155832D01*
X152765Y155919D01*
X152864Y156529D01*
X152922Y156597D01*
X152988Y156664D01*
X153002Y156691D01*
X153021Y156714D01*
X153091Y156866D01*
X153493Y158069D01*
X153498Y158099D01*
X153510Y158127D01*
X153517Y158220D01*
X153532Y158312D01*
X153527Y158342D01*
X153530Y158372D01*
X153511Y158469D01*
X153801Y159022D01*
X153811Y159053D01*
X153849Y159135D01*
X154140Y160007D01*
X154141Y160015D01*
X154143Y160017D01*
X154144Y160034D01*
X154158Y160119D01*
X154179Y160232D01*
X154178Y160241D01*
X154179Y160250D01*
X154161Y160362D01*
X154145Y160475D01*
X154140Y160485D01*
X154139Y160493D01*
X154128Y160513D01*
X154077Y160629D01*
X145928Y174744D01*
X145918Y174756D01*
X145912Y174771D01*
X145807Y174902D01*
X137608Y183101D01*
X137534Y183154D01*
X137465Y183213D01*
X137434Y183226D01*
X137408Y183244D01*
X137321Y183271D01*
X137236Y183305D01*
X137196Y183310D01*
X137173Y183317D01*
X137141Y183316D01*
X137070Y183324D01*
X126692Y183324D01*
X126602Y183309D01*
X126511Y183302D01*
X126481Y183289D01*
X126449Y183284D01*
X126369Y183241D01*
X126285Y183206D01*
X126253Y183180D01*
X126232Y183169D01*
X126210Y183146D01*
X126154Y183101D01*
X125215Y182163D01*
X123161Y181312D01*
X114011Y181312D01*
X111957Y182163D01*
X107165Y186954D01*
X106100Y188019D01*
X106026Y188072D01*
X105957Y188132D01*
X105927Y188144D01*
X105900Y188163D01*
X105813Y188189D01*
X105728Y188224D01*
X105688Y188228D01*
X105665Y188235D01*
X105633Y188234D01*
X105562Y188242D01*
X69200Y188242D01*
X69110Y188227D01*
X69019Y188220D01*
X68989Y188208D01*
X68957Y188202D01*
X68876Y188160D01*
X68793Y188124D01*
X68760Y188098D01*
X68740Y188087D01*
X68718Y188064D01*
X68662Y188019D01*
X51535Y170893D01*
X51482Y170819D01*
X51423Y170749D01*
X51410Y170719D01*
X51392Y170693D01*
X51365Y170606D01*
X51331Y170521D01*
X51326Y170480D01*
X51319Y170458D01*
X51320Y170426D01*
X51312Y170354D01*
X51312Y168240D01*
X48222Y165150D01*
X43853Y165150D01*
X40763Y168240D01*
X40763Y172610D01*
X43853Y175700D01*
X45967Y175700D01*
X46057Y175714D01*
X46148Y175722D01*
X46178Y175734D01*
X46210Y175739D01*
X46290Y175782D01*
X46374Y175818D01*
X46406Y175844D01*
X46427Y175855D01*
X46449Y175878D01*
X46505Y175923D01*
X65938Y195356D01*
X103785Y195356D01*
X103856Y195367D01*
X103928Y195369D01*
X103977Y195387D01*
X104028Y195395D01*
X104092Y195429D01*
X104159Y195453D01*
X104200Y195486D01*
X104246Y195510D01*
X104295Y195562D01*
X104351Y195607D01*
X104379Y195651D01*
X104415Y195689D01*
X104445Y195754D01*
X104484Y195814D01*
X104497Y195865D01*
X104519Y195912D01*
X104526Y195983D01*
X104544Y196053D01*
X104540Y196105D01*
X104546Y196156D01*
X104530Y196226D01*
X104525Y196298D01*
X104504Y196346D01*
X104493Y196397D01*
X104457Y196458D01*
X104429Y196524D01*
X104384Y196580D01*
X104367Y196608D01*
X104349Y196623D01*
X104324Y196655D01*
X92191Y208787D01*
X90512Y210467D01*
X89661Y212521D01*
X89661Y272000D01*
X89643Y272113D01*
X89627Y272227D01*
X89623Y272236D01*
X89622Y272243D01*
X89611Y272262D01*
X89559Y272381D01*
X85539Y279345D01*
X85511Y279378D01*
X85492Y279416D01*
X85434Y279473D01*
X85383Y279535D01*
X85346Y279558D01*
X85315Y279588D01*
X85243Y279623D01*
X85175Y279666D01*
X85133Y279676D01*
X85094Y279694D01*
X85014Y279704D01*
X84936Y279723D01*
X84925Y279722D01*
X84112Y279889D01*
X84079Y279891D01*
X83990Y279904D01*
X83372Y279930D01*
X83298Y279979D01*
X83224Y280037D01*
X83196Y280047D01*
X83170Y280064D01*
X83011Y280116D01*
X81775Y280369D01*
X81744Y280371D01*
X81715Y280379D01*
X81622Y280376D01*
X81529Y280379D01*
X81500Y280371D01*
X81470Y280370D01*
X81375Y280339D01*
X80791Y280561D01*
X80759Y280568D01*
X80674Y280596D01*
X80068Y280720D01*
X80002Y280781D01*
X79939Y280849D01*
X79912Y280864D01*
X79890Y280885D01*
X79741Y280961D01*
X78562Y281410D01*
X78532Y281416D01*
X78505Y281429D01*
X78412Y281441D01*
X78321Y281459D01*
X78291Y281455D01*
X78261Y281459D01*
X78162Y281444D01*
X77622Y281757D01*
X77591Y281769D01*
X77511Y281810D01*
X76933Y282030D01*
X76878Y282100D01*
X76827Y282178D01*
X76803Y282197D01*
X76784Y282221D01*
X76649Y282320D01*
X75557Y282952D01*
X75529Y282963D01*
X75504Y282981D01*
X75415Y283007D01*
X75327Y283040D01*
X75297Y283041D01*
X75268Y283049D01*
X75169Y283050D01*
X74685Y283446D01*
X74657Y283462D01*
X74585Y283516D01*
X74049Y283825D01*
X74006Y283904D01*
X73968Y283989D01*
X73948Y284011D01*
X73933Y284038D01*
X73816Y284158D01*
X72839Y284957D01*
X72813Y284972D01*
X72791Y284993D01*
X72707Y285033D01*
X72626Y285080D01*
X72596Y285086D01*
X72569Y285099D01*
X72471Y285116D01*
X72058Y285584D01*
X72032Y285604D01*
X71969Y285669D01*
X71491Y286060D01*
X71461Y286145D01*
X71437Y286235D01*
X71420Y286260D01*
X71410Y286289D01*
X71313Y286426D01*
X70478Y287371D01*
X70454Y287391D01*
X70436Y287415D01*
X70360Y287468D01*
X70287Y287527D01*
X70259Y287538D01*
X70234Y287555D01*
X70140Y287587D01*
X69900Y287969D01*
X69865Y288008D01*
X69838Y288053D01*
X69784Y288100D01*
X69737Y288153D01*
X69691Y288179D01*
X69651Y288213D01*
X69585Y288240D01*
X69523Y288275D01*
X69472Y288286D01*
X69423Y288305D01*
X69310Y288318D01*
X69282Y288323D01*
X69272Y288322D01*
X69256Y288324D01*
X32321Y288324D01*
X32302Y288321D01*
X32282Y288323D01*
X32181Y288301D01*
X32079Y288284D01*
X32061Y288275D01*
X32042Y288270D01*
X31953Y288217D01*
X31861Y288169D01*
X31848Y288155D01*
X31831Y288144D01*
X31763Y288066D01*
X31692Y287991D01*
X31684Y287973D01*
X31671Y287957D01*
X31632Y287861D01*
X31588Y287768D01*
X31586Y287748D01*
X31579Y287729D01*
X31560Y287563D01*
X31560Y264773D01*
X31563Y264754D01*
X31561Y264734D01*
X31583Y264633D01*
X31600Y264531D01*
X31609Y264513D01*
X31614Y264494D01*
X31667Y264405D01*
X31715Y264313D01*
X31729Y264300D01*
X31740Y264283D01*
X31818Y264215D01*
X31893Y264144D01*
X31911Y264136D01*
X31927Y264123D01*
X32023Y264084D01*
X32116Y264040D01*
X32136Y264038D01*
X32155Y264031D01*
X32321Y264012D01*
X32347Y264012D01*
X35437Y260922D01*
X35437Y256553D01*
X32347Y253463D01*
X27978Y253463D01*
X24888Y256553D01*
X24888Y257230D01*
X24873Y257320D01*
X24866Y257411D01*
X24853Y257441D01*
X24848Y257473D01*
X24805Y257554D01*
X24770Y257637D01*
X24744Y257670D01*
X24733Y257690D01*
X24710Y257712D01*
X24665Y257768D01*
X22415Y260018D01*
X22415Y287563D01*
X22412Y287582D01*
X22414Y287602D01*
X22392Y287703D01*
X22375Y287805D01*
X22366Y287823D01*
X22361Y287842D01*
X22308Y287931D01*
X22260Y288023D01*
X22246Y288036D01*
X22235Y288053D01*
X22157Y288121D01*
X22082Y288192D01*
X22064Y288200D01*
X22048Y288213D01*
X21952Y288252D01*
X21859Y288296D01*
X21839Y288298D01*
X21820Y288305D01*
X21654Y288324D01*
X-69256Y288324D01*
X-69308Y288315D01*
X-69361Y288316D01*
X-69428Y288295D01*
X-69499Y288284D01*
X-69545Y288259D01*
X-69596Y288244D01*
X-69653Y288202D01*
X-69716Y288169D01*
X-69752Y288131D01*
X-69795Y288100D01*
X-69866Y288011D01*
X-69885Y287991D01*
X-69890Y287981D01*
X-69900Y287969D01*
X-70137Y287593D01*
X-70217Y287552D01*
X-70303Y287517D01*
X-70326Y287498D01*
X-70354Y287484D01*
X-70478Y287371D01*
X-71313Y286426D01*
X-71330Y286400D01*
X-71351Y286379D01*
X-71395Y286297D01*
X-71444Y286218D01*
X-71451Y286188D01*
X-71466Y286162D01*
X-71486Y286064D01*
X-71969Y285669D01*
X-71991Y285644D01*
X-72058Y285584D01*
X-72467Y285121D01*
X-72553Y285094D01*
X-72644Y285073D01*
X-72670Y285057D01*
X-72698Y285048D01*
X-72839Y284957D01*
X-73816Y284158D01*
X-73836Y284135D01*
X-73861Y284118D01*
X-73917Y284043D01*
X-73978Y283973D01*
X-73990Y283945D01*
X-74008Y283921D01*
X-74044Y283828D01*
X-74585Y283516D01*
X-74610Y283495D01*
X-74685Y283446D01*
X-75164Y283054D01*
X-75253Y283042D01*
X-75346Y283036D01*
X-75374Y283024D01*
X-75404Y283020D01*
X-75557Y282952D01*
X-76649Y282320D01*
X-76673Y282301D01*
X-76700Y282288D01*
X-76767Y282223D01*
X-76839Y282164D01*
X-76856Y282139D01*
X-76877Y282118D01*
X-76928Y282032D01*
X-77511Y281810D01*
X-77540Y281793D01*
X-77622Y281757D01*
X-78157Y281447D01*
X-78247Y281449D01*
X-78340Y281458D01*
X-78369Y281451D01*
X-78399Y281452D01*
X-78562Y281410D01*
X-79741Y280961D01*
X-79767Y280946D01*
X-79796Y280938D01*
X-79873Y280885D01*
X-79954Y280838D01*
X-79974Y280815D01*
X-79999Y280798D01*
X-80062Y280721D01*
X-80674Y280596D01*
X-80704Y280584D01*
X-80791Y280561D01*
X-81369Y280341D01*
X-81458Y280357D01*
X-81548Y280381D01*
X-81578Y280379D01*
X-81608Y280385D01*
X-81775Y280369D01*
X-83011Y280116D01*
X-83039Y280105D01*
X-83069Y280101D01*
X-83154Y280061D01*
X-83241Y280028D01*
X-83264Y280009D01*
X-83291Y279995D01*
X-83366Y279930D01*
X-83990Y279904D01*
X-84022Y279898D01*
X-84112Y279889D01*
X-84922Y279723D01*
X-84929Y279724D01*
X-84971Y279714D01*
X-85014Y279713D01*
X-85090Y279686D01*
X-85169Y279668D01*
X-85205Y279646D01*
X-85246Y279631D01*
X-85309Y279582D01*
X-85378Y279539D01*
X-85406Y279506D01*
X-85439Y279480D01*
X-85528Y279359D01*
X-85536Y279350D01*
X-85536Y279348D01*
X-85539Y279345D01*
X-94322Y264132D01*
X-94356Y264041D01*
X-94395Y263957D01*
X-94397Y263939D01*
X-94405Y263918D01*
X-94406Y263908D01*
X-94409Y263902D01*
X-94410Y263879D01*
X-94424Y263751D01*
X-94424Y256630D01*
X-94409Y256540D01*
X-94402Y256449D01*
X-94389Y256419D01*
X-94384Y256388D01*
X-94341Y256307D01*
X-94306Y256223D01*
X-94280Y256191D01*
X-94269Y256170D01*
X-94246Y256148D01*
X-94201Y256092D01*
X-90512Y252403D01*
X-89661Y250349D01*
X-89661Y199681D01*
X-90512Y197626D01*
X-100789Y187350D01*
X-102843Y186499D01*
X-135482Y186499D01*
X-135572Y186484D01*
X-135663Y186477D01*
X-135693Y186464D01*
X-135725Y186459D01*
X-135806Y186416D01*
X-135890Y186381D01*
X-135922Y186355D01*
X-135942Y186344D01*
X-135965Y186321D01*
X-136021Y186276D01*
X-143639Y178657D01*
X-143648Y178645D01*
X-143661Y178635D01*
X-143760Y178500D01*
X-154077Y160629D01*
X-154118Y160522D01*
X-154160Y160417D01*
X-154161Y160407D01*
X-154164Y160399D01*
X-154168Y160285D01*
X-154175Y160171D01*
X-154173Y160160D01*
X-154173Y160153D01*
X-154167Y160130D01*
X-154140Y160007D01*
X-153849Y159135D01*
X-153834Y159106D01*
X-153801Y159022D01*
X-153514Y158475D01*
X-153519Y158385D01*
X-153532Y158293D01*
X-153527Y158263D01*
X-153528Y158233D01*
X-153493Y158069D01*
X-153092Y156866D01*
X-153077Y156839D01*
X-153070Y156810D01*
X-153020Y156731D01*
X-152977Y156648D01*
X-152955Y156627D01*
X-152939Y156602D01*
X-152865Y156535D01*
X-152765Y155919D01*
X-152754Y155888D01*
X-152736Y155800D01*
X-152540Y155213D01*
X-152560Y155126D01*
X-152587Y155037D01*
X-152586Y155007D01*
X-152593Y154977D01*
X-152587Y154857D01*
X-152587Y154854D01*
X-152587Y154852D01*
X-152585Y154809D01*
X-152381Y153558D01*
X-152372Y153529D01*
X-152369Y153499D01*
X-152333Y153413D01*
X-152303Y153325D01*
X-152285Y153300D01*
X-152273Y153273D01*
X-152211Y153195D01*
X-152211Y152570D01*
X-152205Y152538D01*
X-152201Y152448D01*
X-152102Y151838D01*
X-152135Y151755D01*
X-152177Y151671D01*
X-152181Y151641D01*
X-152192Y151613D01*
X-152211Y151447D01*
X-152211Y150178D01*
X-152206Y150149D01*
X-152208Y150118D01*
X-152186Y150028D01*
X-152171Y149936D01*
X-152157Y149909D01*
X-152150Y149879D01*
X-152101Y149793D01*
X-152201Y149177D01*
X-152201Y149144D01*
X-152211Y149055D01*
X-152211Y148436D01*
X-152257Y148360D01*
X-152312Y148284D01*
X-152321Y148255D01*
X-152336Y148229D01*
X-152381Y148067D01*
X-152585Y146816D01*
X-152585Y146785D01*
X-152592Y146756D01*
X-152584Y146663D01*
X-152584Y146570D01*
X-152575Y146541D01*
X-152572Y146511D01*
X-152538Y146417D01*
X-152736Y145825D01*
X-152741Y145793D01*
X-152765Y145706D01*
X-152864Y145096D01*
X-152922Y145028D01*
X-152988Y144962D01*
X-153002Y144934D01*
X-153021Y144911D01*
X-153092Y144759D01*
X-153493Y143556D01*
X-153498Y143526D01*
X-153510Y143498D01*
X-153517Y143405D01*
X-153532Y143313D01*
X-153527Y143283D01*
X-153530Y143253D01*
X-153511Y143156D01*
X-153801Y142603D01*
X-153811Y142572D01*
X-153849Y142490D01*
X-154140Y141618D01*
X-154158Y141505D01*
X-154179Y141393D01*
X-154178Y141384D01*
X-154179Y141375D01*
X-154161Y141263D01*
X-154145Y141150D01*
X-154140Y141140D01*
X-154139Y141132D01*
X-154128Y141112D01*
X-154077Y140996D01*
X-141592Y119369D01*
X-141581Y119357D01*
X-141575Y119343D01*
X-141471Y119212D01*
X-139196Y116937D01*
X-139122Y116884D01*
X-139052Y116824D01*
X-139022Y116812D01*
X-138996Y116793D01*
X-138909Y116766D01*
X-138824Y116732D01*
X-138783Y116728D01*
X-138761Y116721D01*
X-138729Y116722D01*
X-138657Y116714D01*
X-117663Y116714D01*
X-115609Y115863D01*
X-113930Y114184D01*
X-113765Y114019D01*
X-113712Y113981D01*
X-113665Y113935D01*
X-113602Y113900D01*
X-113598Y113897D01*
X-113591Y113894D01*
X-113565Y113875D01*
X-113547Y113870D01*
X-113518Y113854D01*
X-111951Y113205D01*
X-85152Y86406D01*
X-84301Y84352D01*
X-84301Y61398D01*
X-85152Y59344D01*
X-86831Y57665D01*
X-98550Y45946D01*
X-98576Y45911D01*
X-98608Y45881D01*
X-98647Y45811D01*
X-98694Y45746D01*
X-98707Y45705D01*
X-98728Y45666D01*
X-98743Y45588D01*
X-98766Y45511D01*
X-98765Y45467D01*
X-98773Y45424D01*
X-98762Y45345D01*
X-98760Y45265D01*
X-98745Y45224D01*
X-98739Y45181D01*
X-98680Y45047D01*
X-98675Y45034D01*
X-98673Y45032D01*
X-98671Y45027D01*
X-85539Y22280D01*
X-85512Y22248D01*
X-85493Y22210D01*
X-85435Y22153D01*
X-85383Y22090D01*
X-85347Y22067D01*
X-85317Y22038D01*
X-85244Y22003D01*
X-85175Y21959D01*
X-85133Y21949D01*
X-85095Y21931D01*
X-85015Y21921D01*
X-84936Y21902D01*
X-84925Y21903D01*
X-84112Y21736D01*
X-84079Y21734D01*
X-83990Y21721D01*
X-83372Y21695D01*
X-83298Y21646D01*
X-83224Y21588D01*
X-83196Y21578D01*
X-83170Y21561D01*
X-83011Y21509D01*
X-81775Y21256D01*
X-81744Y21254D01*
X-81715Y21246D01*
X-81622Y21249D01*
X-81529Y21246D01*
X-81500Y21254D01*
X-81470Y21255D01*
X-81375Y21286D01*
X-80791Y21064D01*
X-80759Y21057D01*
X-80674Y21029D01*
X-80068Y20905D01*
X-80002Y20844D01*
X-79939Y20776D01*
X-79912Y20761D01*
X-79890Y20740D01*
X-79741Y20664D01*
X-78562Y20215D01*
X-78532Y20209D01*
X-78505Y20196D01*
X-78412Y20184D01*
X-78321Y20166D01*
X-78291Y20170D01*
X-78261Y20166D01*
X-78162Y20181D01*
X-77622Y19868D01*
X-77591Y19856D01*
X-77511Y19815D01*
X-76933Y19595D01*
X-76878Y19525D01*
X-76827Y19447D01*
X-76803Y19428D01*
X-76784Y19404D01*
X-76649Y19305D01*
X-75557Y18673D01*
X-75529Y18662D01*
X-75504Y18644D01*
X-75415Y18618D01*
X-75327Y18585D01*
X-75297Y18584D01*
X-75268Y18576D01*
X-75169Y18575D01*
X-74685Y18179D01*
X-74657Y18163D01*
X-74585Y18109D01*
X-74049Y17800D01*
X-74006Y17721D01*
X-73968Y17636D01*
X-73948Y17614D01*
X-73933Y17587D01*
X-73816Y17467D01*
X-72839Y16668D01*
X-72813Y16653D01*
X-72791Y16632D01*
X-72707Y16592D01*
X-72626Y16545D01*
X-72596Y16539D01*
X-72569Y16526D01*
X-72471Y16509D01*
X-72058Y16041D01*
X-72032Y16021D01*
X-71969Y15956D01*
X-71491Y15565D01*
X-71461Y15480D01*
X-71437Y15390D01*
X-71420Y15365D01*
X-71410Y15336D01*
X-71313Y15199D01*
X-70478Y14254D01*
X-70454Y14234D01*
X-70436Y14210D01*
X-70360Y14157D01*
X-70287Y14098D01*
X-70259Y14087D01*
X-70234Y14070D01*
X-70140Y14038D01*
X-69900Y13656D01*
X-69865Y13617D01*
X-69838Y13572D01*
X-69784Y13525D01*
X-69737Y13472D01*
X-69691Y13446D01*
X-69651Y13412D01*
X-69585Y13385D01*
X-69523Y13350D01*
X-69471Y13339D01*
X-69422Y13320D01*
X-69310Y13307D01*
X-69282Y13302D01*
X-69272Y13303D01*
X-69256Y13301D01*
X-44130Y13301D01*
X-44040Y13316D01*
G37*
%LPC*%
G36*
X-14069Y159138D02*
X-14069Y159138D01*
X-14962Y160031D01*
X-14962Y171294D01*
X-14069Y172187D01*
X-4821Y172187D01*
X-4731Y172202D01*
X-4640Y172209D01*
X-4610Y172222D01*
X-4578Y172227D01*
X-4498Y172270D01*
X-4414Y172305D01*
X-4382Y172331D01*
X-4361Y172342D01*
X-4339Y172365D01*
X-4283Y172410D01*
X-3748Y172945D01*
X-3695Y173019D01*
X-3635Y173089D01*
X-3623Y173119D01*
X-3604Y173145D01*
X-3578Y173232D01*
X-3543Y173317D01*
X-3539Y173358D01*
X-3532Y173380D01*
X-3533Y173412D01*
X-3525Y173483D01*
X-3525Y178039D01*
X-2954Y178610D01*
X-2901Y178684D01*
X-2842Y178754D01*
X-2829Y178784D01*
X-2811Y178810D01*
X-2784Y178897D01*
X-2750Y178982D01*
X-2745Y179023D01*
X-2738Y179045D01*
X-2739Y179077D01*
X-2731Y179148D01*
X-2731Y179515D01*
X-2734Y179534D01*
X-2732Y179554D01*
X-2754Y179655D01*
X-2771Y179757D01*
X-2780Y179775D01*
X-2785Y179794D01*
X-2838Y179883D01*
X-2886Y179975D01*
X-2900Y179988D01*
X-2911Y180005D01*
X-2989Y180073D01*
X-3064Y180144D01*
X-3082Y180152D01*
X-3098Y180165D01*
X-3194Y180204D01*
X-3287Y180248D01*
X-3307Y180250D01*
X-3326Y180257D01*
X-3492Y180276D01*
X-15235Y180276D01*
X-16574Y181615D01*
X-16574Y192402D01*
X-16577Y192421D01*
X-16575Y192441D01*
X-16597Y192542D01*
X-16614Y192644D01*
X-16623Y192662D01*
X-16628Y192681D01*
X-16681Y192770D01*
X-16729Y192862D01*
X-16743Y192875D01*
X-16754Y192892D01*
X-16832Y192960D01*
X-16907Y193031D01*
X-16925Y193039D01*
X-16941Y193052D01*
X-17037Y193091D01*
X-17130Y193135D01*
X-17150Y193137D01*
X-17169Y193144D01*
X-17335Y193163D01*
X-17526Y193163D01*
X-17546Y193160D01*
X-17565Y193162D01*
X-17667Y193140D01*
X-17769Y193123D01*
X-17786Y193114D01*
X-17806Y193109D01*
X-17895Y193056D01*
X-17986Y193008D01*
X-18000Y192994D01*
X-18017Y192983D01*
X-18084Y192905D01*
X-18156Y192830D01*
X-18164Y192812D01*
X-18177Y192796D01*
X-18216Y192700D01*
X-18259Y192607D01*
X-18261Y192587D01*
X-18269Y192568D01*
X-18287Y192402D01*
X-18287Y187009D01*
X-18734Y186562D01*
X-32066Y186562D01*
X-32513Y187009D01*
X-32513Y199276D01*
X-32516Y199295D01*
X-32514Y199315D01*
X-32536Y199416D01*
X-32552Y199518D01*
X-32562Y199536D01*
X-32566Y199555D01*
X-32619Y199644D01*
X-32668Y199736D01*
X-32682Y199749D01*
X-32692Y199766D01*
X-32771Y199834D01*
X-32846Y199905D01*
X-32864Y199913D01*
X-32879Y199926D01*
X-32975Y199965D01*
X-33069Y200009D01*
X-33089Y200011D01*
X-33107Y200018D01*
X-33274Y200037D01*
X-36380Y200037D01*
X-39163Y202820D01*
X-39163Y206755D01*
X-36380Y209538D01*
X-33274Y209538D01*
X-33254Y209541D01*
X-33235Y209539D01*
X-33133Y209561D01*
X-33031Y209578D01*
X-33014Y209587D01*
X-32994Y209592D01*
X-32905Y209645D01*
X-32814Y209693D01*
X-32800Y209707D01*
X-32783Y209718D01*
X-32716Y209796D01*
X-32644Y209871D01*
X-32636Y209889D01*
X-32623Y209905D01*
X-32584Y210001D01*
X-32541Y210094D01*
X-32539Y210114D01*
X-32531Y210133D01*
X-32513Y210299D01*
X-32513Y227328D01*
X-32066Y227775D01*
X-18734Y227775D01*
X-18287Y227328D01*
X-18287Y220973D01*
X-18284Y220954D01*
X-18286Y220934D01*
X-18264Y220833D01*
X-18248Y220731D01*
X-18238Y220713D01*
X-18234Y220694D01*
X-18181Y220605D01*
X-18132Y220513D01*
X-18118Y220500D01*
X-18108Y220483D01*
X-18029Y220415D01*
X-17954Y220344D01*
X-17936Y220336D01*
X-17921Y220323D01*
X-17825Y220284D01*
X-17731Y220240D01*
X-17711Y220238D01*
X-17693Y220231D01*
X-17526Y220212D01*
X-17335Y220212D01*
X-17316Y220215D01*
X-17296Y220213D01*
X-17195Y220235D01*
X-17093Y220252D01*
X-17075Y220261D01*
X-17056Y220266D01*
X-16967Y220319D01*
X-16875Y220367D01*
X-16862Y220381D01*
X-16845Y220392D01*
X-16777Y220470D01*
X-16706Y220545D01*
X-16698Y220563D01*
X-16685Y220579D01*
X-16646Y220675D01*
X-16602Y220768D01*
X-16600Y220788D01*
X-16593Y220807D01*
X-16574Y220973D01*
X-16574Y234310D01*
X-15235Y235649D01*
X19997Y235649D01*
X21337Y234310D01*
X21337Y220973D01*
X21340Y220954D01*
X21338Y220934D01*
X21360Y220833D01*
X21376Y220731D01*
X21386Y220713D01*
X21390Y220694D01*
X21443Y220605D01*
X21492Y220513D01*
X21506Y220500D01*
X21516Y220483D01*
X21595Y220415D01*
X21670Y220344D01*
X21688Y220336D01*
X21703Y220323D01*
X21799Y220284D01*
X21893Y220240D01*
X21913Y220238D01*
X21931Y220231D01*
X22098Y220212D01*
X22289Y220212D01*
X22308Y220215D01*
X22328Y220213D01*
X22429Y220235D01*
X22531Y220252D01*
X22549Y220261D01*
X22568Y220266D01*
X22657Y220319D01*
X22749Y220367D01*
X22762Y220381D01*
X22779Y220392D01*
X22847Y220470D01*
X22918Y220545D01*
X22926Y220563D01*
X22939Y220579D01*
X22978Y220675D01*
X23022Y220768D01*
X23024Y220788D01*
X23031Y220807D01*
X23050Y220973D01*
X23050Y225741D01*
X23497Y226188D01*
X36828Y226188D01*
X37275Y225741D01*
X37275Y210299D01*
X37278Y210280D01*
X37276Y210260D01*
X37298Y210159D01*
X37315Y210057D01*
X37324Y210039D01*
X37329Y210020D01*
X37382Y209931D01*
X37430Y209839D01*
X37444Y209826D01*
X37455Y209809D01*
X37533Y209741D01*
X37608Y209670D01*
X37626Y209662D01*
X37642Y209649D01*
X37738Y209610D01*
X37831Y209566D01*
X37851Y209564D01*
X37870Y209557D01*
X38036Y209538D01*
X39555Y209538D01*
X42338Y206755D01*
X42338Y202820D01*
X39555Y200037D01*
X38036Y200037D01*
X38017Y200034D01*
X37997Y200036D01*
X37896Y200014D01*
X37794Y199997D01*
X37776Y199988D01*
X37757Y199983D01*
X37668Y199930D01*
X37576Y199882D01*
X37563Y199868D01*
X37546Y199857D01*
X37478Y199779D01*
X37407Y199704D01*
X37399Y199686D01*
X37386Y199670D01*
X37347Y199574D01*
X37303Y199481D01*
X37301Y199461D01*
X37294Y199442D01*
X37275Y199276D01*
X37275Y185422D01*
X36828Y184975D01*
X23497Y184975D01*
X23050Y185422D01*
X23050Y192402D01*
X23047Y192421D01*
X23049Y192441D01*
X23027Y192542D01*
X23010Y192644D01*
X23001Y192662D01*
X22996Y192681D01*
X22943Y192770D01*
X22895Y192862D01*
X22881Y192875D01*
X22870Y192892D01*
X22792Y192960D01*
X22717Y193031D01*
X22699Y193039D01*
X22683Y193052D01*
X22587Y193091D01*
X22494Y193135D01*
X22474Y193137D01*
X22455Y193144D01*
X22289Y193163D01*
X21959Y193163D01*
X21926Y193186D01*
X21907Y193192D01*
X21890Y193203D01*
X21790Y193228D01*
X21691Y193259D01*
X21671Y193258D01*
X21652Y193263D01*
X21549Y193255D01*
X21445Y193252D01*
X21426Y193246D01*
X21407Y193244D01*
X21312Y193204D01*
X21214Y193168D01*
X21208Y193163D01*
X20510Y193163D01*
X20491Y193160D01*
X20471Y193162D01*
X20370Y193140D01*
X20268Y193123D01*
X20250Y193114D01*
X20231Y193109D01*
X20142Y193056D01*
X20050Y193008D01*
X20037Y192994D01*
X20020Y192983D01*
X19952Y192905D01*
X19881Y192830D01*
X19873Y192812D01*
X19860Y192796D01*
X19821Y192700D01*
X19777Y192607D01*
X19775Y192587D01*
X19768Y192568D01*
X19749Y192402D01*
X19749Y181615D01*
X18410Y180276D01*
X6667Y180276D01*
X6648Y180273D01*
X6628Y180275D01*
X6527Y180253D01*
X6425Y180236D01*
X6407Y180227D01*
X6388Y180222D01*
X6299Y180169D01*
X6207Y180121D01*
X6194Y180107D01*
X6177Y180096D01*
X6109Y180018D01*
X6038Y179943D01*
X6030Y179925D01*
X6017Y179909D01*
X5978Y179813D01*
X5934Y179720D01*
X5932Y179700D01*
X5925Y179681D01*
X5906Y179515D01*
X5906Y175255D01*
X5896Y175246D01*
X5843Y175172D01*
X5784Y175102D01*
X5772Y175072D01*
X5753Y175046D01*
X5726Y174959D01*
X5692Y174874D01*
X5687Y174833D01*
X5681Y174811D01*
X5681Y174779D01*
X5673Y174707D01*
X5673Y172948D01*
X5677Y172929D01*
X5674Y172909D01*
X5696Y172808D01*
X5713Y172706D01*
X5722Y172688D01*
X5727Y172669D01*
X5780Y172580D01*
X5828Y172488D01*
X5843Y172475D01*
X5853Y172458D01*
X5932Y172390D01*
X6007Y172319D01*
X6025Y172311D01*
X6040Y172298D01*
X6136Y172259D01*
X6230Y172215D01*
X6249Y172213D01*
X6268Y172206D01*
X6435Y172187D01*
X15657Y172187D01*
X16550Y171294D01*
X16550Y160031D01*
X15657Y159138D01*
X3393Y159138D01*
X2500Y160031D01*
X2500Y168279D01*
X2486Y168369D01*
X2478Y168460D01*
X2466Y168490D01*
X2461Y168522D01*
X2418Y168602D01*
X2382Y168686D01*
X2356Y168718D01*
X2345Y168739D01*
X2322Y168761D01*
X2277Y168817D01*
X1332Y169762D01*
X1316Y169774D01*
X1303Y169790D01*
X1216Y169846D01*
X1132Y169906D01*
X1113Y169912D01*
X1096Y169923D01*
X996Y169948D01*
X897Y169978D01*
X877Y169978D01*
X858Y169983D01*
X755Y169975D01*
X651Y169972D01*
X633Y169965D01*
X613Y169963D01*
X518Y169923D01*
X420Y169887D01*
X405Y169875D01*
X386Y169867D01*
X255Y169762D01*
X-690Y168817D01*
X-743Y168743D01*
X-802Y168674D01*
X-814Y168644D01*
X-833Y168617D01*
X-860Y168530D01*
X-894Y168446D01*
X-899Y168405D01*
X-906Y168382D01*
X-905Y168350D01*
X-913Y168279D01*
X-913Y160031D01*
X-1806Y159138D01*
X-14069Y159138D01*
G37*
%LPD*%
%LPC*%
G36*
X-43982Y94481D02*
X-43982Y94481D01*
X-45517Y96016D01*
X-45591Y96069D01*
X-45661Y96129D01*
X-45691Y96141D01*
X-45717Y96160D01*
X-45804Y96187D01*
X-45889Y96221D01*
X-45930Y96225D01*
X-45952Y96232D01*
X-45984Y96231D01*
X-46055Y96239D01*
X-49299Y96239D01*
X-51010Y97950D01*
X-51010Y97951D01*
X-58484Y105425D01*
X-58484Y118413D01*
X-46975Y129922D01*
X-10116Y129922D01*
X-10096Y129925D01*
X-10077Y129923D01*
X-9975Y129945D01*
X-9873Y129961D01*
X-9856Y129971D01*
X-9836Y129975D01*
X-9747Y130028D01*
X-9656Y130077D01*
X-9642Y130091D01*
X-9625Y130101D01*
X-9558Y130180D01*
X-9487Y130255D01*
X-9478Y130273D01*
X-9465Y130288D01*
X-9427Y130384D01*
X-9383Y130478D01*
X-9381Y130498D01*
X-9373Y130516D01*
X-9355Y130683D01*
X-9355Y133797D01*
X-9370Y133887D01*
X-9377Y133978D01*
X-9389Y134008D01*
X-9395Y134040D01*
X-9437Y134120D01*
X-9473Y134204D01*
X-9499Y134236D01*
X-9510Y134257D01*
X-9533Y134279D01*
X-9578Y134335D01*
X-10478Y135235D01*
X-10478Y141297D01*
X-10481Y141316D01*
X-10479Y141336D01*
X-10501Y141437D01*
X-10518Y141539D01*
X-10527Y141557D01*
X-10532Y141576D01*
X-10585Y141665D01*
X-10633Y141757D01*
X-10647Y141770D01*
X-10658Y141787D01*
X-10736Y141855D01*
X-10811Y141926D01*
X-10829Y141934D01*
X-10845Y141947D01*
X-10941Y141986D01*
X-11034Y142030D01*
X-11054Y142032D01*
X-11073Y142039D01*
X-11239Y142058D01*
X-17446Y142058D01*
X-17536Y142043D01*
X-17627Y142036D01*
X-17656Y142023D01*
X-17688Y142018D01*
X-17769Y141975D01*
X-17853Y141940D01*
X-17885Y141914D01*
X-17906Y141903D01*
X-17928Y141880D01*
X-17984Y141835D01*
X-18181Y141638D01*
X-29444Y141638D01*
X-30337Y142531D01*
X-30337Y147004D01*
X-30348Y147069D01*
X-30348Y147134D01*
X-30372Y147214D01*
X-30377Y147247D01*
X-30386Y147264D01*
X-30395Y147296D01*
X-30417Y147349D01*
X-30417Y149976D01*
X-30395Y150029D01*
X-30382Y150085D01*
X-30365Y150121D01*
X-30364Y150133D01*
X-30356Y150154D01*
X-30347Y150237D01*
X-30339Y150269D01*
X-30341Y150288D01*
X-30337Y150321D01*
X-30337Y154794D01*
X-29444Y155687D01*
X-18181Y155687D01*
X-17984Y155490D01*
X-17910Y155437D01*
X-17840Y155378D01*
X-17810Y155365D01*
X-17784Y155347D01*
X-17697Y155320D01*
X-17612Y155286D01*
X-17571Y155281D01*
X-17549Y155274D01*
X-17517Y155275D01*
X-17446Y155267D01*
X-6624Y155267D01*
X-6571Y155245D01*
X-6507Y155230D01*
X-6446Y155206D01*
X-6363Y155197D01*
X-6331Y155189D01*
X-6312Y155191D01*
X-6279Y155187D01*
X-1806Y155187D01*
X-913Y154294D01*
X-913Y144156D01*
X-901Y144085D01*
X-899Y144013D01*
X-881Y143964D01*
X-873Y143913D01*
X-839Y143850D01*
X-815Y143782D01*
X-782Y143742D01*
X-758Y143696D01*
X-706Y143646D01*
X-661Y143590D01*
X-617Y143562D01*
X-580Y143526D01*
X-515Y143496D01*
X-454Y143457D01*
X-404Y143444D01*
X-357Y143423D01*
X-285Y143415D01*
X-216Y143397D01*
X-164Y143401D01*
X-112Y143395D01*
X-42Y143411D01*
X30Y143416D01*
X77Y143437D01*
X128Y143448D01*
X190Y143485D01*
X256Y143513D01*
X312Y143557D01*
X339Y143574D01*
X355Y143592D01*
X387Y143617D01*
X2277Y145508D01*
X2330Y145582D01*
X2390Y145651D01*
X2402Y145681D01*
X2421Y145708D01*
X2448Y145795D01*
X2482Y145879D01*
X2486Y145920D01*
X2493Y145943D01*
X2492Y145975D01*
X2500Y146046D01*
X2500Y154294D01*
X3393Y155187D01*
X7867Y155187D01*
X7931Y155198D01*
X7997Y155198D01*
X8077Y155222D01*
X8109Y155227D01*
X8127Y155236D01*
X8158Y155245D01*
X8211Y155267D01*
X19033Y155267D01*
X19123Y155282D01*
X19214Y155289D01*
X19244Y155302D01*
X19276Y155307D01*
X19357Y155350D01*
X19440Y155385D01*
X19473Y155411D01*
X19493Y155422D01*
X19515Y155445D01*
X19571Y155490D01*
X19768Y155687D01*
X31032Y155687D01*
X31925Y154794D01*
X31925Y150321D01*
X31928Y150303D01*
X31926Y150287D01*
X31935Y150242D01*
X31936Y150191D01*
X31959Y150111D01*
X31964Y150078D01*
X31974Y150061D01*
X31983Y150029D01*
X32005Y149976D01*
X32005Y147349D01*
X31983Y147296D01*
X31968Y147232D01*
X31943Y147171D01*
X31934Y147088D01*
X31927Y147056D01*
X31928Y147037D01*
X31925Y147004D01*
X31925Y142531D01*
X31032Y141638D01*
X19768Y141638D01*
X19571Y141835D01*
X19497Y141888D01*
X19428Y141947D01*
X19398Y141960D01*
X19372Y141978D01*
X19285Y142005D01*
X19200Y142039D01*
X19159Y142044D01*
X19137Y142051D01*
X19104Y142050D01*
X19033Y142058D01*
X8211Y142058D01*
X8158Y142080D01*
X8094Y142095D01*
X8033Y142119D01*
X7951Y142128D01*
X7919Y142136D01*
X7899Y142134D01*
X7867Y142138D01*
X6409Y142138D01*
X6319Y142123D01*
X6228Y142116D01*
X6198Y142103D01*
X6166Y142098D01*
X6085Y142055D01*
X6001Y142020D01*
X5969Y141994D01*
X5949Y141983D01*
X5926Y141960D01*
X5870Y141915D01*
X-441Y135603D01*
X-453Y135587D01*
X-468Y135575D01*
X-524Y135487D01*
X-584Y135404D01*
X-590Y135385D01*
X-601Y135368D01*
X-626Y135267D01*
X-657Y135169D01*
X-656Y135149D01*
X-661Y135129D01*
X-653Y135026D01*
X-650Y134923D01*
X-644Y134904D01*
X-642Y134884D01*
X-602Y134789D01*
X-566Y134692D01*
X-553Y134676D01*
X-546Y134658D01*
X-441Y134527D01*
X-377Y134463D01*
X759Y133327D01*
X775Y133316D01*
X787Y133300D01*
X875Y133244D01*
X959Y133184D01*
X978Y133178D01*
X994Y133167D01*
X1095Y133142D01*
X1194Y133111D01*
X1214Y133112D01*
X1233Y133107D01*
X1336Y133115D01*
X1439Y133118D01*
X1458Y133125D01*
X1478Y133126D01*
X1573Y133166D01*
X1671Y133202D01*
X1686Y133215D01*
X1704Y133222D01*
X1835Y133327D01*
X2982Y134474D01*
X6543Y134474D01*
X9061Y131956D01*
X9061Y128394D01*
X6543Y125876D01*
X6160Y125876D01*
X6140Y125873D01*
X6120Y125875D01*
X6019Y125853D01*
X5917Y125837D01*
X5899Y125827D01*
X5880Y125823D01*
X5791Y125770D01*
X5699Y125721D01*
X5686Y125707D01*
X5669Y125697D01*
X5601Y125618D01*
X5530Y125543D01*
X5522Y125525D01*
X5509Y125510D01*
X5470Y125414D01*
X5426Y125320D01*
X5424Y125300D01*
X5417Y125282D01*
X5398Y125115D01*
X5398Y123172D01*
X3538Y121312D01*
X-554Y117220D01*
X-17614Y117220D01*
X-17634Y117217D01*
X-17653Y117219D01*
X-17755Y117197D01*
X-17857Y117181D01*
X-17874Y117171D01*
X-17894Y117167D01*
X-17983Y117114D01*
X-18074Y117065D01*
X-18088Y117051D01*
X-18105Y117041D01*
X-18172Y116962D01*
X-18244Y116887D01*
X-18252Y116869D01*
X-18265Y116854D01*
X-18304Y116758D01*
X-18347Y116664D01*
X-18349Y116644D01*
X-18357Y116626D01*
X-18375Y116459D01*
X-18375Y109231D01*
X-19268Y108338D01*
X-31532Y108338D01*
X-32425Y109231D01*
X-32425Y120523D01*
X-32428Y120543D01*
X-32426Y120562D01*
X-32448Y120664D01*
X-32464Y120766D01*
X-32474Y120783D01*
X-32478Y120803D01*
X-32531Y120892D01*
X-32580Y120983D01*
X-32594Y120997D01*
X-32604Y121014D01*
X-32683Y121081D01*
X-32758Y121153D01*
X-32776Y121161D01*
X-32791Y121174D01*
X-32887Y121213D01*
X-32981Y121256D01*
X-33001Y121258D01*
X-33019Y121266D01*
X-33186Y121284D01*
X-43082Y121284D01*
X-43172Y121270D01*
X-43263Y121262D01*
X-43293Y121250D01*
X-43325Y121245D01*
X-43406Y121202D01*
X-43490Y121166D01*
X-43522Y121140D01*
X-43542Y121129D01*
X-43565Y121106D01*
X-43621Y121061D01*
X-49624Y115058D01*
X-49670Y114994D01*
X-49687Y114976D01*
X-49691Y114968D01*
X-49736Y114915D01*
X-49749Y114884D01*
X-49767Y114858D01*
X-49794Y114771D01*
X-49828Y114686D01*
X-49833Y114646D01*
X-49840Y114623D01*
X-49839Y114591D01*
X-49847Y114520D01*
X-49847Y109318D01*
X-49832Y109228D01*
X-49825Y109137D01*
X-49812Y109107D01*
X-49807Y109075D01*
X-49764Y108994D01*
X-49729Y108910D01*
X-49703Y108878D01*
X-49692Y108858D01*
X-49669Y108835D01*
X-49624Y108779D01*
X-49460Y108616D01*
X-49386Y108563D01*
X-49317Y108503D01*
X-49286Y108491D01*
X-49260Y108472D01*
X-49173Y108445D01*
X-49088Y108411D01*
X-49048Y108407D01*
X-49025Y108400D01*
X-48993Y108401D01*
X-48922Y108393D01*
X-46055Y108393D01*
X-45965Y108407D01*
X-45874Y108415D01*
X-45845Y108427D01*
X-45813Y108432D01*
X-45732Y108475D01*
X-45648Y108511D01*
X-45616Y108537D01*
X-45595Y108548D01*
X-45573Y108571D01*
X-45517Y108616D01*
X-43982Y110151D01*
X-40421Y110151D01*
X-37903Y107633D01*
X-37903Y104071D01*
X-39120Y102854D01*
X-39132Y102838D01*
X-39147Y102826D01*
X-39203Y102738D01*
X-39263Y102655D01*
X-39269Y102636D01*
X-39280Y102619D01*
X-39305Y102518D01*
X-39336Y102419D01*
X-39335Y102400D01*
X-39340Y102380D01*
X-39332Y102277D01*
X-39329Y102174D01*
X-39323Y102155D01*
X-39321Y102135D01*
X-39281Y102040D01*
X-39245Y101943D01*
X-39232Y101927D01*
X-39225Y101909D01*
X-39120Y101778D01*
X-37903Y100561D01*
X-37903Y96999D01*
X-40421Y94481D01*
X-43982Y94481D01*
G37*
%LPD*%
%LPC*%
G36*
X-52703Y53212D02*
X-52703Y53212D01*
X-53150Y53659D01*
X-53150Y63816D01*
X-33653Y83313D01*
X-30657Y83313D01*
X-30586Y83324D01*
X-30514Y83326D01*
X-30465Y83344D01*
X-30414Y83352D01*
X-30351Y83386D01*
X-30283Y83411D01*
X-30243Y83443D01*
X-30197Y83468D01*
X-30147Y83520D01*
X-30091Y83564D01*
X-30063Y83608D01*
X-30027Y83646D01*
X-29997Y83711D01*
X-29958Y83771D01*
X-29946Y83822D01*
X-29924Y83869D01*
X-29916Y83940D01*
X-29898Y84010D01*
X-29902Y84062D01*
X-29897Y84113D01*
X-29912Y84184D01*
X-29917Y84255D01*
X-29938Y84303D01*
X-29949Y84354D01*
X-29986Y84415D01*
X-30014Y84481D01*
X-30059Y84537D01*
X-30075Y84565D01*
X-30093Y84580D01*
X-30096Y84584D01*
X-30099Y84588D01*
X-30101Y84591D01*
X-30119Y84612D01*
X-30925Y85418D01*
X-30925Y90577D01*
X-30928Y90596D01*
X-30926Y90616D01*
X-30948Y90717D01*
X-30964Y90819D01*
X-30974Y90837D01*
X-30978Y90856D01*
X-31031Y90945D01*
X-31080Y91037D01*
X-31094Y91050D01*
X-31104Y91067D01*
X-31183Y91135D01*
X-31258Y91206D01*
X-31276Y91214D01*
X-31291Y91227D01*
X-31387Y91266D01*
X-31481Y91310D01*
X-31501Y91312D01*
X-31509Y91315D01*
X-32425Y92231D01*
X-32425Y103494D01*
X-31532Y104387D01*
X-19268Y104387D01*
X-18375Y103494D01*
X-18375Y92231D01*
X-19299Y91308D01*
X-19357Y91298D01*
X-19374Y91289D01*
X-19394Y91284D01*
X-19483Y91231D01*
X-19574Y91183D01*
X-19588Y91169D01*
X-19605Y91158D01*
X-19672Y91080D01*
X-19744Y91005D01*
X-19752Y90987D01*
X-19765Y90971D01*
X-19804Y90875D01*
X-19847Y90782D01*
X-19849Y90762D01*
X-19857Y90743D01*
X-19875Y90577D01*
X-19875Y85418D01*
X-20681Y84612D01*
X-20723Y84554D01*
X-20773Y84502D01*
X-20795Y84455D01*
X-20825Y84413D01*
X-20846Y84344D01*
X-20876Y84279D01*
X-20882Y84227D01*
X-20897Y84177D01*
X-20895Y84106D01*
X-20903Y84035D01*
X-20892Y83984D01*
X-20891Y83932D01*
X-20866Y83864D01*
X-20851Y83794D01*
X-20824Y83749D01*
X-20807Y83701D01*
X-20762Y83645D01*
X-20725Y83583D01*
X-20685Y83549D01*
X-20653Y83509D01*
X-20593Y83470D01*
X-20538Y83423D01*
X-20490Y83404D01*
X-20446Y83376D01*
X-20376Y83358D01*
X-20310Y83331D01*
X-20239Y83323D01*
X-20207Y83315D01*
X-20184Y83317D01*
X-20143Y83313D01*
X10618Y83313D01*
X10689Y83324D01*
X10761Y83326D01*
X10810Y83344D01*
X10861Y83352D01*
X10924Y83386D01*
X10992Y83411D01*
X11032Y83443D01*
X11078Y83468D01*
X11128Y83520D01*
X11184Y83564D01*
X11212Y83608D01*
X11248Y83646D01*
X11278Y83711D01*
X11317Y83771D01*
X11329Y83822D01*
X11351Y83869D01*
X11359Y83940D01*
X11377Y84010D01*
X11373Y84062D01*
X11378Y84113D01*
X11363Y84184D01*
X11358Y84255D01*
X11337Y84303D01*
X11326Y84354D01*
X11289Y84415D01*
X11261Y84481D01*
X11216Y84537D01*
X11200Y84565D01*
X11182Y84580D01*
X11179Y84584D01*
X11176Y84588D01*
X11174Y84591D01*
X11156Y84612D01*
X10350Y85418D01*
X10350Y90577D01*
X10347Y90596D01*
X10349Y90616D01*
X10327Y90717D01*
X10311Y90819D01*
X10301Y90837D01*
X10297Y90856D01*
X10244Y90945D01*
X10195Y91037D01*
X10181Y91050D01*
X10171Y91067D01*
X10092Y91135D01*
X10017Y91206D01*
X9999Y91214D01*
X9984Y91227D01*
X9888Y91266D01*
X9794Y91310D01*
X9774Y91312D01*
X9766Y91315D01*
X8850Y92231D01*
X8850Y103494D01*
X9743Y104387D01*
X22007Y104387D01*
X22900Y103494D01*
X22900Y92231D01*
X21976Y91308D01*
X21918Y91298D01*
X21901Y91289D01*
X21881Y91284D01*
X21792Y91231D01*
X21701Y91183D01*
X21687Y91169D01*
X21670Y91158D01*
X21603Y91080D01*
X21531Y91005D01*
X21523Y90987D01*
X21510Y90971D01*
X21471Y90875D01*
X21428Y90782D01*
X21426Y90762D01*
X21418Y90743D01*
X21400Y90577D01*
X21400Y85418D01*
X20594Y84612D01*
X20552Y84554D01*
X20502Y84502D01*
X20480Y84455D01*
X20450Y84413D01*
X20429Y84344D01*
X20399Y84279D01*
X20393Y84227D01*
X20378Y84177D01*
X20380Y84106D01*
X20372Y84035D01*
X20383Y83984D01*
X20384Y83932D01*
X20409Y83864D01*
X20424Y83794D01*
X20451Y83749D01*
X20468Y83701D01*
X20513Y83645D01*
X20550Y83583D01*
X20590Y83549D01*
X20622Y83509D01*
X20682Y83470D01*
X20737Y83423D01*
X20785Y83404D01*
X20829Y83376D01*
X20899Y83358D01*
X20965Y83331D01*
X21036Y83323D01*
X21068Y83315D01*
X21091Y83317D01*
X21132Y83313D01*
X24128Y83313D01*
X24575Y82866D01*
X24575Y66359D01*
X24128Y65912D01*
X-37469Y65912D01*
X-37559Y65898D01*
X-37650Y65890D01*
X-37680Y65878D01*
X-37711Y65873D01*
X-37792Y65830D01*
X-37876Y65794D01*
X-37908Y65768D01*
X-37929Y65757D01*
X-37951Y65734D01*
X-38007Y65689D01*
X-38702Y64995D01*
X-38755Y64921D01*
X-38814Y64851D01*
X-38827Y64821D01*
X-38845Y64795D01*
X-38872Y64708D01*
X-38906Y64623D01*
X-38911Y64582D01*
X-38918Y64560D01*
X-38917Y64528D01*
X-38925Y64456D01*
X-38925Y53659D01*
X-39372Y53212D01*
X-52703Y53212D01*
G37*
%LPD*%
G36*
X131941Y198380D02*
X131941Y198380D01*
X131984Y198379D01*
X135977Y198979D01*
X136007Y198990D01*
X136050Y198996D01*
X139909Y200185D01*
X139937Y200200D01*
X139978Y200212D01*
X143616Y201963D01*
X143638Y201979D01*
X143664Y201989D01*
X143717Y202039D01*
X143775Y202083D01*
X143788Y202106D01*
X143808Y202125D01*
X143838Y202192D01*
X143874Y202255D01*
X143877Y202282D01*
X143888Y202307D01*
X143889Y202380D01*
X143898Y202453D01*
X143890Y202479D01*
X143890Y202506D01*
X143854Y202605D01*
X143842Y202644D01*
X143836Y202651D01*
X143832Y202662D01*
X116832Y249462D01*
X116814Y249482D01*
X116803Y249507D01*
X116749Y249556D01*
X116701Y249611D01*
X116676Y249623D01*
X116656Y249641D01*
X116587Y249665D01*
X116521Y249697D01*
X116494Y249698D01*
X116469Y249707D01*
X116396Y249702D01*
X116323Y249706D01*
X116297Y249696D01*
X116270Y249695D01*
X116174Y249651D01*
X116136Y249636D01*
X116129Y249630D01*
X116119Y249625D01*
X112782Y247352D01*
X112760Y247329D01*
X112724Y247305D01*
X109763Y244560D01*
X109744Y244534D01*
X109712Y244505D01*
X107194Y241349D01*
X107179Y241321D01*
X107152Y241288D01*
X105132Y237791D01*
X105122Y237761D01*
X105099Y237724D01*
X103623Y233966D01*
X103618Y233935D01*
X103601Y233895D01*
X102701Y229959D01*
X102701Y229927D01*
X102690Y229885D01*
X102387Y225859D01*
X102390Y225835D01*
X102387Y225815D01*
X102389Y225806D01*
X102387Y225784D01*
X102688Y221758D01*
X102696Y221727D01*
X102699Y221684D01*
X103596Y217747D01*
X103609Y217718D01*
X103618Y217676D01*
X105092Y213917D01*
X105109Y213890D01*
X105124Y213849D01*
X107142Y210352D01*
X107163Y210328D01*
X107184Y210290D01*
X109700Y207133D01*
X109725Y207112D01*
X109751Y207078D01*
X112710Y204331D01*
X112737Y204314D01*
X112768Y204284D01*
X116104Y202009D01*
X116133Y201996D01*
X116168Y201971D01*
X119806Y200218D01*
X119836Y200211D01*
X119875Y200191D01*
X123733Y199000D01*
X123765Y198997D01*
X123806Y198983D01*
X127798Y198380D01*
X127830Y198382D01*
X127872Y198374D01*
X131910Y198373D01*
X131941Y198380D01*
G37*
G36*
X-127872Y198374D02*
X-127872Y198374D01*
X-127841Y198381D01*
X-127798Y198380D01*
X-123806Y198983D01*
X-123776Y198994D01*
X-123733Y199000D01*
X-119875Y200191D01*
X-119847Y200206D01*
X-119806Y200218D01*
X-116168Y201971D01*
X-116143Y201991D01*
X-116104Y202009D01*
X-112768Y204284D01*
X-112746Y204307D01*
X-112710Y204331D01*
X-109751Y207078D01*
X-109732Y207104D01*
X-109700Y207133D01*
X-107184Y210290D01*
X-107169Y210319D01*
X-107142Y210352D01*
X-105124Y213849D01*
X-105114Y213880D01*
X-105092Y213917D01*
X-103618Y217676D01*
X-103612Y217707D01*
X-103596Y217747D01*
X-102699Y221684D01*
X-102698Y221716D01*
X-102688Y221758D01*
X-102387Y225784D01*
X-102391Y225816D01*
X-102390Y225832D01*
X-102387Y225848D01*
X-102388Y225852D01*
X-102387Y225859D01*
X-102690Y229885D01*
X-102699Y229916D01*
X-102701Y229959D01*
X-103601Y233895D01*
X-103614Y233924D01*
X-103623Y233966D01*
X-105099Y237724D01*
X-105117Y237751D01*
X-105132Y237791D01*
X-107152Y241288D01*
X-107173Y241311D01*
X-107194Y241349D01*
X-109712Y244505D01*
X-109737Y244526D01*
X-109763Y244560D01*
X-112724Y247305D01*
X-112751Y247322D01*
X-112782Y247352D01*
X-116119Y249625D01*
X-116144Y249636D01*
X-116165Y249653D01*
X-116235Y249674D01*
X-116302Y249702D01*
X-116330Y249702D01*
X-116356Y249710D01*
X-116428Y249702D01*
X-116501Y249701D01*
X-116526Y249691D01*
X-116553Y249688D01*
X-116617Y249652D01*
X-116684Y249623D01*
X-116703Y249604D01*
X-116726Y249590D01*
X-116794Y249509D01*
X-116822Y249480D01*
X-116825Y249471D01*
X-116832Y249462D01*
X-143832Y202662D01*
X-143841Y202636D01*
X-143857Y202614D01*
X-143872Y202543D01*
X-143896Y202473D01*
X-143893Y202446D01*
X-143899Y202420D01*
X-143886Y202348D01*
X-143880Y202275D01*
X-143867Y202251D01*
X-143862Y202224D01*
X-143822Y202164D01*
X-143788Y202099D01*
X-143767Y202081D01*
X-143752Y202059D01*
X-143666Y201998D01*
X-143635Y201972D01*
X-143626Y201969D01*
X-143616Y201963D01*
X-139978Y200212D01*
X-139947Y200204D01*
X-139909Y200185D01*
X-136050Y198996D01*
X-136018Y198993D01*
X-135977Y198979D01*
X-131984Y198379D01*
X-131953Y198380D01*
X-131910Y198373D01*
X-127872Y198374D01*
G37*
G36*
X116428Y51923D02*
X116428Y51923D01*
X116501Y51924D01*
X116526Y51934D01*
X116553Y51937D01*
X116617Y51973D01*
X116684Y52002D01*
X116703Y52021D01*
X116726Y52035D01*
X116794Y52116D01*
X116822Y52145D01*
X116825Y52154D01*
X116832Y52163D01*
X143832Y98963D01*
X143841Y98989D01*
X143857Y99011D01*
X143872Y99082D01*
X143896Y99152D01*
X143893Y99179D01*
X143899Y99205D01*
X143886Y99277D01*
X143880Y99350D01*
X143867Y99374D01*
X143862Y99401D01*
X143822Y99462D01*
X143788Y99526D01*
X143767Y99544D01*
X143752Y99566D01*
X143666Y99627D01*
X143635Y99653D01*
X143626Y99656D01*
X143616Y99662D01*
X139978Y101413D01*
X139947Y101421D01*
X139909Y101440D01*
X136050Y102629D01*
X136018Y102632D01*
X135977Y102646D01*
X131984Y103246D01*
X131953Y103245D01*
X131910Y103252D01*
X127872Y103251D01*
X127841Y103244D01*
X127798Y103245D01*
X123806Y102642D01*
X123776Y102631D01*
X123733Y102625D01*
X119875Y101434D01*
X119847Y101419D01*
X119806Y101407D01*
X116168Y99654D01*
X116143Y99634D01*
X116104Y99616D01*
X112768Y97341D01*
X112746Y97318D01*
X112710Y97294D01*
X109751Y94547D01*
X109732Y94521D01*
X109700Y94492D01*
X107184Y91335D01*
X107169Y91306D01*
X107142Y91273D01*
X105124Y87776D01*
X105114Y87745D01*
X105092Y87708D01*
X103618Y83949D01*
X103612Y83918D01*
X103596Y83878D01*
X102699Y79941D01*
X102698Y79909D01*
X102688Y79867D01*
X102387Y75841D01*
X102391Y75809D01*
X102387Y75766D01*
X102690Y71740D01*
X102699Y71709D01*
X102701Y71666D01*
X103601Y67730D01*
X103614Y67701D01*
X103623Y67659D01*
X105099Y63901D01*
X105117Y63874D01*
X105132Y63834D01*
X107152Y60338D01*
X107173Y60314D01*
X107194Y60276D01*
X109712Y57120D01*
X109737Y57100D01*
X109763Y57065D01*
X112724Y54320D01*
X112751Y54303D01*
X112782Y54273D01*
X116119Y52000D01*
X116144Y51989D01*
X116165Y51972D01*
X116235Y51951D01*
X116302Y51923D01*
X116330Y51923D01*
X116356Y51915D01*
X116428Y51923D01*
G37*
G36*
X-116396Y51923D02*
X-116396Y51923D01*
X-116323Y51919D01*
X-116297Y51929D01*
X-116270Y51930D01*
X-116174Y51974D01*
X-116136Y51989D01*
X-116129Y51995D01*
X-116119Y52000D01*
X-112782Y54273D01*
X-112760Y54296D01*
X-112724Y54320D01*
X-109763Y57065D01*
X-109744Y57091D01*
X-109712Y57120D01*
X-107194Y60276D01*
X-107179Y60304D01*
X-107152Y60338D01*
X-105132Y63834D01*
X-105122Y63864D01*
X-105099Y63901D01*
X-103623Y67659D01*
X-103618Y67690D01*
X-103601Y67730D01*
X-102701Y71666D01*
X-102701Y71698D01*
X-102690Y71740D01*
X-102387Y75766D01*
X-102391Y75798D01*
X-102387Y75841D01*
X-102688Y79867D01*
X-102696Y79898D01*
X-102699Y79941D01*
X-103596Y83878D01*
X-103609Y83907D01*
X-103618Y83949D01*
X-105092Y87708D01*
X-105109Y87735D01*
X-105124Y87776D01*
X-107142Y91273D01*
X-107163Y91297D01*
X-107184Y91335D01*
X-109700Y94492D01*
X-109725Y94513D01*
X-109751Y94547D01*
X-112710Y97294D01*
X-112737Y97311D01*
X-112768Y97341D01*
X-116104Y99616D01*
X-116133Y99629D01*
X-116168Y99654D01*
X-119806Y101407D01*
X-119836Y101414D01*
X-119875Y101434D01*
X-123733Y102625D01*
X-123765Y102628D01*
X-123806Y102642D01*
X-127798Y103245D01*
X-127830Y103243D01*
X-127872Y103251D01*
X-131910Y103252D01*
X-131941Y103246D01*
X-131984Y103246D01*
X-135977Y102646D01*
X-136007Y102635D01*
X-136050Y102629D01*
X-139909Y101440D01*
X-139937Y101425D01*
X-139978Y101413D01*
X-143616Y99662D01*
X-143638Y99646D01*
X-143664Y99636D01*
X-143717Y99586D01*
X-143775Y99542D01*
X-143788Y99519D01*
X-143808Y99500D01*
X-143838Y99433D01*
X-143874Y99370D01*
X-143877Y99343D01*
X-143888Y99318D01*
X-143889Y99245D01*
X-143898Y99172D01*
X-143890Y99146D01*
X-143890Y99119D01*
X-143854Y99020D01*
X-143842Y98981D01*
X-143836Y98974D01*
X-143832Y98963D01*
X-116832Y52163D01*
X-116814Y52143D01*
X-116803Y52118D01*
X-116749Y52069D01*
X-116701Y52014D01*
X-116676Y52002D01*
X-116656Y51984D01*
X-116587Y51960D01*
X-116521Y51928D01*
X-116494Y51927D01*
X-116469Y51918D01*
X-116396Y51923D01*
G37*
G36*
X27027Y319D02*
X27027Y319D01*
X27054Y316D01*
X27123Y338D01*
X27195Y353D01*
X27217Y368D01*
X27243Y377D01*
X27299Y424D01*
X27359Y465D01*
X27373Y488D01*
X27394Y506D01*
X27427Y571D01*
X27466Y633D01*
X27470Y660D01*
X27482Y684D01*
X27492Y789D01*
X27499Y829D01*
X27497Y838D01*
X27498Y850D01*
X27196Y4874D01*
X27188Y4905D01*
X27185Y4948D01*
X26287Y8882D01*
X26274Y8911D01*
X26265Y8953D01*
X24791Y12710D01*
X24774Y12737D01*
X24759Y12777D01*
X22741Y16272D01*
X22720Y16296D01*
X22699Y16333D01*
X20183Y19488D01*
X20158Y19509D01*
X20132Y19543D01*
X17174Y22288D01*
X17147Y22304D01*
X17115Y22334D01*
X13781Y24608D01*
X13752Y24620D01*
X13717Y24645D01*
X10081Y26396D01*
X10050Y26404D01*
X10011Y26423D01*
X6155Y27613D01*
X6124Y27616D01*
X6082Y27629D01*
X2092Y28231D01*
X2060Y28229D01*
X2018Y28236D01*
X-2018Y28236D01*
X-2049Y28230D01*
X-2092Y28231D01*
X-6082Y27629D01*
X-6112Y27618D01*
X-6155Y27613D01*
X-10011Y26423D01*
X-10039Y26408D01*
X-10081Y26396D01*
X-13717Y24645D01*
X-13742Y24626D01*
X-13781Y24608D01*
X-17115Y22334D01*
X-17138Y22312D01*
X-17174Y22288D01*
X-20132Y19543D01*
X-20151Y19517D01*
X-20183Y19488D01*
X-22699Y16333D01*
X-22713Y16305D01*
X-22741Y16272D01*
X-24759Y12777D01*
X-24769Y12747D01*
X-24791Y12710D01*
X-26265Y8953D01*
X-26271Y8922D01*
X-26287Y8882D01*
X-27185Y4948D01*
X-27186Y4916D01*
X-27196Y4874D01*
X-27498Y850D01*
X-27494Y823D01*
X-27499Y796D01*
X-27482Y725D01*
X-27473Y653D01*
X-27459Y629D01*
X-27453Y603D01*
X-27410Y544D01*
X-27373Y481D01*
X-27351Y464D01*
X-27335Y442D01*
X-27272Y405D01*
X-27214Y361D01*
X-27187Y355D01*
X-27164Y341D01*
X-27060Y323D01*
X-27021Y314D01*
X-27011Y315D01*
X-27000Y313D01*
X27000Y313D01*
X27027Y319D01*
G37*
G36*
X-3473Y181804D02*
X-3473Y181804D01*
X-3453Y181802D01*
X-3352Y181824D01*
X-3250Y181841D01*
X-3232Y181850D01*
X-3213Y181855D01*
X-3124Y181908D01*
X-3032Y181956D01*
X-3019Y181971D01*
X-3002Y181981D01*
X-2934Y182059D01*
X-2863Y182134D01*
X-2855Y182152D01*
X-2842Y182168D01*
X-2803Y182264D01*
X-2759Y182358D01*
X-2757Y182377D01*
X-2750Y182396D01*
X-2731Y182563D01*
X-2731Y186092D01*
X-2746Y186182D01*
X-2753Y186273D01*
X-2766Y186303D01*
X-2771Y186335D01*
X-2814Y186415D01*
X-2849Y186499D01*
X-2875Y186531D01*
X-2886Y186552D01*
X-2909Y186574D01*
X-2954Y186630D01*
X-3453Y187129D01*
X-3453Y192402D01*
X-3456Y192421D01*
X-3454Y192441D01*
X-3476Y192542D01*
X-3493Y192644D01*
X-3502Y192662D01*
X-3507Y192681D01*
X-3560Y192770D01*
X-3608Y192862D01*
X-3622Y192875D01*
X-3633Y192892D01*
X-3711Y192960D01*
X-3786Y193031D01*
X-3804Y193039D01*
X-3820Y193052D01*
X-3916Y193091D01*
X-4009Y193135D01*
X-4029Y193137D01*
X-4048Y193144D01*
X-4214Y193163D01*
X-7994Y193163D01*
X-8887Y194056D01*
X-8887Y202319D01*
X-7994Y203212D01*
X-6703Y203212D01*
X-6632Y203224D01*
X-6560Y203226D01*
X-6511Y203244D01*
X-6460Y203252D01*
X-6397Y203285D01*
X-6329Y203310D01*
X-6289Y203343D01*
X-6243Y203367D01*
X-6193Y203419D01*
X-6137Y203464D01*
X-6109Y203508D01*
X-6073Y203545D01*
X-6043Y203610D01*
X-6004Y203671D01*
X-5992Y203721D01*
X-5970Y203768D01*
X-5962Y203840D01*
X-5944Y203909D01*
X-5948Y203961D01*
X-5943Y204013D01*
X-5958Y204083D01*
X-5963Y204155D01*
X-5984Y204202D01*
X-5995Y204253D01*
X-6032Y204315D01*
X-6060Y204381D01*
X-6105Y204437D01*
X-6121Y204464D01*
X-6139Y204480D01*
X-6165Y204512D01*
X-6247Y204594D01*
X-6247Y208156D01*
X-5405Y208997D01*
X-5394Y209014D01*
X-5378Y209026D01*
X-5322Y209113D01*
X-5262Y209197D01*
X-5256Y209216D01*
X-5245Y209233D01*
X-5220Y209333D01*
X-5189Y209432D01*
X-5190Y209452D01*
X-5185Y209472D01*
X-5193Y209575D01*
X-5196Y209678D01*
X-5203Y209697D01*
X-5204Y209717D01*
X-5245Y209812D01*
X-5280Y209909D01*
X-5293Y209925D01*
X-5301Y209943D01*
X-5405Y210074D01*
X-6387Y211056D01*
X-6387Y219319D01*
X-5494Y220212D01*
X-4508Y220212D01*
X-4489Y220215D01*
X-4469Y220213D01*
X-4368Y220235D01*
X-4266Y220252D01*
X-4248Y220261D01*
X-4229Y220266D01*
X-4140Y220319D01*
X-4048Y220367D01*
X-4035Y220381D01*
X-4018Y220392D01*
X-3950Y220470D01*
X-3879Y220545D01*
X-3871Y220563D01*
X-3858Y220579D01*
X-3819Y220675D01*
X-3775Y220768D01*
X-3773Y220788D01*
X-3766Y220807D01*
X-3747Y220973D01*
X-3747Y224532D01*
X-1229Y227050D01*
X2332Y227050D01*
X3549Y225833D01*
X3565Y225821D01*
X3578Y225806D01*
X3665Y225750D01*
X3749Y225690D01*
X3768Y225684D01*
X3785Y225673D01*
X3885Y225648D01*
X3984Y225617D01*
X4004Y225618D01*
X4023Y225613D01*
X4126Y225621D01*
X4230Y225624D01*
X4249Y225630D01*
X4268Y225632D01*
X4363Y225672D01*
X4461Y225708D01*
X4477Y225721D01*
X4495Y225728D01*
X4626Y225833D01*
X5843Y227050D01*
X9404Y227050D01*
X11922Y224532D01*
X11922Y220973D01*
X11925Y220954D01*
X11923Y220934D01*
X11945Y220833D01*
X11962Y220731D01*
X11971Y220713D01*
X11976Y220694D01*
X12029Y220605D01*
X12077Y220513D01*
X12091Y220500D01*
X12102Y220483D01*
X12180Y220415D01*
X12255Y220344D01*
X12273Y220336D01*
X12289Y220323D01*
X12385Y220284D01*
X12478Y220240D01*
X12498Y220238D01*
X12517Y220231D01*
X12683Y220212D01*
X13669Y220212D01*
X14562Y219319D01*
X14562Y211056D01*
X13669Y210163D01*
X9253Y210163D01*
X9182Y210151D01*
X9110Y210149D01*
X9061Y210131D01*
X9010Y210123D01*
X8947Y210089D01*
X8879Y210065D01*
X8839Y210032D01*
X8793Y210008D01*
X8743Y209956D01*
X8687Y209911D01*
X8659Y209867D01*
X8623Y209830D01*
X8593Y209765D01*
X8554Y209704D01*
X8542Y209654D01*
X8520Y209607D01*
X8512Y209535D01*
X8494Y209466D01*
X8498Y209414D01*
X8493Y209362D01*
X8508Y209292D01*
X8513Y209221D01*
X8534Y209173D01*
X8545Y209122D01*
X8582Y209060D01*
X8610Y208994D01*
X8655Y208938D01*
X8671Y208911D01*
X8689Y208895D01*
X8715Y208863D01*
X9422Y208156D01*
X9422Y204594D01*
X9340Y204512D01*
X9298Y204454D01*
X9248Y204402D01*
X9226Y204354D01*
X9196Y204312D01*
X9175Y204243D01*
X9145Y204178D01*
X9139Y204127D01*
X9124Y204077D01*
X9126Y204005D01*
X9118Y203934D01*
X9129Y203883D01*
X9130Y203831D01*
X9155Y203764D01*
X9170Y203694D01*
X9197Y203649D01*
X9214Y203600D01*
X9259Y203544D01*
X9296Y203483D01*
X9336Y203449D01*
X9368Y203408D01*
X9428Y203369D01*
X9483Y203323D01*
X9531Y203303D01*
X9575Y203275D01*
X9644Y203258D01*
X9711Y203231D01*
X9782Y203223D01*
X9814Y203215D01*
X9837Y203217D01*
X9878Y203212D01*
X11169Y203212D01*
X12062Y202319D01*
X12062Y194056D01*
X11169Y193163D01*
X7389Y193163D01*
X7370Y193160D01*
X7350Y193162D01*
X7249Y193140D01*
X7147Y193123D01*
X7129Y193114D01*
X7110Y193109D01*
X7021Y193056D01*
X6929Y193008D01*
X6916Y192994D01*
X6899Y192983D01*
X6831Y192905D01*
X6760Y192830D01*
X6752Y192812D01*
X6739Y192796D01*
X6700Y192700D01*
X6656Y192607D01*
X6654Y192587D01*
X6647Y192568D01*
X6628Y192402D01*
X6628Y187250D01*
X6129Y186751D01*
X6076Y186677D01*
X6017Y186608D01*
X6004Y186578D01*
X5986Y186551D01*
X5959Y186464D01*
X5925Y186380D01*
X5920Y186339D01*
X5913Y186316D01*
X5914Y186284D01*
X5906Y186213D01*
X5906Y182563D01*
X5909Y182543D01*
X5907Y182523D01*
X5929Y182422D01*
X5946Y182320D01*
X5955Y182302D01*
X5960Y182283D01*
X6013Y182194D01*
X6061Y182102D01*
X6075Y182089D01*
X6086Y182072D01*
X6164Y182004D01*
X6239Y181933D01*
X6257Y181925D01*
X6273Y181912D01*
X6369Y181873D01*
X6462Y181829D01*
X6482Y181827D01*
X6501Y181820D01*
X6667Y181801D01*
X17463Y181801D01*
X17482Y181804D01*
X17502Y181802D01*
X17603Y181824D01*
X17705Y181841D01*
X17723Y181850D01*
X17742Y181855D01*
X17831Y181908D01*
X17923Y181956D01*
X17936Y181971D01*
X17953Y181981D01*
X18021Y182059D01*
X18092Y182134D01*
X18100Y182152D01*
X18113Y182168D01*
X18152Y182264D01*
X18196Y182358D01*
X18198Y182377D01*
X18205Y182396D01*
X18224Y182563D01*
X18224Y192402D01*
X18221Y192421D01*
X18223Y192441D01*
X18201Y192542D01*
X18184Y192644D01*
X18175Y192662D01*
X18170Y192681D01*
X18117Y192770D01*
X18069Y192862D01*
X18055Y192875D01*
X18044Y192892D01*
X17966Y192960D01*
X17891Y193031D01*
X17873Y193039D01*
X17857Y193052D01*
X17761Y193091D01*
X17668Y193135D01*
X17648Y193137D01*
X17629Y193144D01*
X17463Y193163D01*
X17006Y193163D01*
X16113Y194056D01*
X16113Y202319D01*
X17006Y203212D01*
X17463Y203212D01*
X17482Y203215D01*
X17502Y203213D01*
X17603Y203235D01*
X17705Y203252D01*
X17723Y203261D01*
X17742Y203266D01*
X17831Y203319D01*
X17923Y203367D01*
X17936Y203381D01*
X17953Y203392D01*
X18021Y203470D01*
X18092Y203545D01*
X18100Y203563D01*
X18113Y203579D01*
X18152Y203675D01*
X18196Y203768D01*
X18198Y203788D01*
X18205Y203807D01*
X18224Y203973D01*
X18224Y206060D01*
X19588Y207424D01*
X19641Y207498D01*
X19701Y207568D01*
X19713Y207598D01*
X19732Y207624D01*
X19759Y207711D01*
X19793Y207796D01*
X19797Y207837D01*
X19804Y207859D01*
X19803Y207891D01*
X19811Y207963D01*
X19811Y209542D01*
X19797Y209632D01*
X19789Y209723D01*
X19777Y209753D01*
X19772Y209785D01*
X19729Y209866D01*
X19693Y209949D01*
X19667Y209982D01*
X19656Y210002D01*
X19633Y210024D01*
X19588Y210080D01*
X18613Y211056D01*
X18613Y219319D01*
X19588Y220295D01*
X19641Y220369D01*
X19701Y220438D01*
X19713Y220468D01*
X19732Y220494D01*
X19759Y220581D01*
X19793Y220666D01*
X19797Y220707D01*
X19804Y220729D01*
X19803Y220762D01*
X19811Y220833D01*
X19811Y233363D01*
X19808Y233382D01*
X19810Y233402D01*
X19788Y233503D01*
X19772Y233605D01*
X19762Y233623D01*
X19758Y233642D01*
X19705Y233731D01*
X19656Y233823D01*
X19642Y233836D01*
X19632Y233853D01*
X19553Y233921D01*
X19478Y233992D01*
X19460Y234000D01*
X19445Y234013D01*
X19349Y234052D01*
X19255Y234096D01*
X19235Y234098D01*
X19217Y234105D01*
X19050Y234124D01*
X-14288Y234124D01*
X-14307Y234121D01*
X-14327Y234123D01*
X-14428Y234101D01*
X-14530Y234084D01*
X-14548Y234075D01*
X-14567Y234070D01*
X-14656Y234017D01*
X-14748Y233969D01*
X-14761Y233955D01*
X-14778Y233944D01*
X-14846Y233866D01*
X-14917Y233791D01*
X-14925Y233773D01*
X-14938Y233757D01*
X-14977Y233661D01*
X-15021Y233568D01*
X-15023Y233548D01*
X-15030Y233529D01*
X-15049Y233363D01*
X-15049Y220973D01*
X-15046Y220954D01*
X-15048Y220934D01*
X-15026Y220833D01*
X-15009Y220731D01*
X-15000Y220713D01*
X-14995Y220694D01*
X-14942Y220605D01*
X-14894Y220513D01*
X-14880Y220500D01*
X-14869Y220483D01*
X-14791Y220415D01*
X-14716Y220344D01*
X-14698Y220336D01*
X-14682Y220323D01*
X-14586Y220284D01*
X-14493Y220240D01*
X-14473Y220238D01*
X-14454Y220231D01*
X-14288Y220212D01*
X-11331Y220212D01*
X-10438Y219319D01*
X-10438Y211056D01*
X-11331Y210163D01*
X-14288Y210163D01*
X-14307Y210160D01*
X-14327Y210162D01*
X-14428Y210140D01*
X-14530Y210123D01*
X-14548Y210114D01*
X-14567Y210109D01*
X-14656Y210056D01*
X-14748Y210008D01*
X-14761Y209994D01*
X-14778Y209983D01*
X-14846Y209905D01*
X-14917Y209830D01*
X-14925Y209812D01*
X-14938Y209796D01*
X-14977Y209700D01*
X-15021Y209607D01*
X-15023Y209587D01*
X-15030Y209568D01*
X-15049Y209402D01*
X-15049Y203973D01*
X-15046Y203954D01*
X-15048Y203934D01*
X-15026Y203833D01*
X-15009Y203731D01*
X-15000Y203713D01*
X-14995Y203694D01*
X-14942Y203605D01*
X-14894Y203513D01*
X-14880Y203500D01*
X-14869Y203483D01*
X-14791Y203415D01*
X-14716Y203344D01*
X-14698Y203336D01*
X-14682Y203323D01*
X-14586Y203284D01*
X-14493Y203240D01*
X-14473Y203238D01*
X-14454Y203231D01*
X-14288Y203212D01*
X-13831Y203212D01*
X-12938Y202319D01*
X-12938Y194056D01*
X-13831Y193163D01*
X-14288Y193163D01*
X-14307Y193160D01*
X-14327Y193162D01*
X-14428Y193140D01*
X-14530Y193123D01*
X-14548Y193114D01*
X-14567Y193109D01*
X-14656Y193056D01*
X-14748Y193008D01*
X-14761Y192994D01*
X-14778Y192983D01*
X-14846Y192905D01*
X-14917Y192830D01*
X-14925Y192812D01*
X-14938Y192796D01*
X-14977Y192700D01*
X-15021Y192607D01*
X-15023Y192587D01*
X-15030Y192568D01*
X-15049Y192402D01*
X-15049Y182563D01*
X-15046Y182543D01*
X-15048Y182523D01*
X-15026Y182422D01*
X-15009Y182320D01*
X-15000Y182302D01*
X-14995Y182283D01*
X-14942Y182194D01*
X-14894Y182102D01*
X-14880Y182089D01*
X-14869Y182072D01*
X-14791Y182004D01*
X-14716Y181933D01*
X-14698Y181925D01*
X-14682Y181912D01*
X-14586Y181873D01*
X-14493Y181829D01*
X-14473Y181827D01*
X-14454Y181820D01*
X-14288Y181801D01*
X-3492Y181801D01*
X-3473Y181804D01*
G37*
%LPC*%
G36*
X37231Y60213D02*
X37231Y60213D01*
X36338Y61106D01*
X36338Y73369D01*
X37231Y74262D01*
X39141Y74262D01*
X39180Y74269D01*
X39221Y74266D01*
X39301Y74289D01*
X39383Y74302D01*
X39419Y74321D01*
X39458Y74331D01*
X39527Y74378D01*
X39601Y74417D01*
X39629Y74446D01*
X39662Y74469D01*
X39713Y74535D01*
X39770Y74595D01*
X39787Y74632D01*
X39812Y74664D01*
X39839Y74743D01*
X39874Y74818D01*
X39878Y74858D01*
X39891Y74897D01*
X39901Y75061D01*
X39901Y75063D01*
X39901Y75064D01*
X39830Y76388D01*
X39815Y76458D01*
X39809Y76529D01*
X39789Y76577D01*
X39778Y76629D01*
X39759Y76659D01*
X39759Y77700D01*
X39757Y77715D01*
X39758Y77740D01*
X39703Y78776D01*
X39706Y78786D01*
X40441Y79522D01*
X40450Y79535D01*
X40469Y79551D01*
X41162Y80323D01*
X41202Y80347D01*
X41268Y80374D01*
X41324Y80420D01*
X41352Y80436D01*
X41367Y80454D01*
X41398Y80479D01*
X100424Y139504D01*
X100477Y139578D01*
X100536Y139648D01*
X100549Y139678D01*
X100567Y139704D01*
X100594Y139791D01*
X100628Y139876D01*
X100633Y139917D01*
X100640Y139939D01*
X100639Y139971D01*
X100647Y140043D01*
X100647Y140907D01*
X100644Y140926D01*
X100646Y140946D01*
X100624Y141047D01*
X100607Y141149D01*
X100598Y141167D01*
X100593Y141186D01*
X100540Y141275D01*
X100492Y141367D01*
X100478Y141380D01*
X100467Y141397D01*
X100389Y141465D01*
X100314Y141536D01*
X100296Y141544D01*
X100280Y141557D01*
X100184Y141596D01*
X100091Y141640D01*
X100071Y141642D01*
X100052Y141649D01*
X99886Y141668D01*
X99400Y141668D01*
X94043Y147025D01*
X94043Y154600D01*
X99400Y159957D01*
X106975Y159957D01*
X112332Y154600D01*
X112332Y147025D01*
X106975Y141668D01*
X106489Y141668D01*
X106470Y141665D01*
X106450Y141667D01*
X106349Y141645D01*
X106247Y141628D01*
X106229Y141619D01*
X106210Y141614D01*
X106121Y141561D01*
X106029Y141513D01*
X106016Y141499D01*
X105999Y141488D01*
X105931Y141410D01*
X105860Y141335D01*
X105852Y141317D01*
X105839Y141301D01*
X105800Y141205D01*
X105756Y141112D01*
X105754Y141092D01*
X105747Y141073D01*
X105728Y140907D01*
X105728Y137623D01*
X45137Y77032D01*
X45073Y76942D01*
X45068Y76935D01*
X45047Y76913D01*
X45040Y76900D01*
X45005Y76853D01*
X45001Y76842D01*
X44994Y76832D01*
X44964Y76735D01*
X44943Y76690D01*
X44940Y76665D01*
X44925Y76620D01*
X44924Y76606D01*
X44921Y76597D01*
X44922Y76570D01*
X44916Y76453D01*
X44994Y74983D01*
X45019Y74870D01*
X45046Y74744D01*
X45046Y74743D01*
X45114Y74629D01*
X45172Y74533D01*
X45173Y74532D01*
X45264Y74454D01*
X45359Y74373D01*
X45360Y74372D01*
X45461Y74331D01*
X45587Y74281D01*
X45588Y74281D01*
X45588Y74280D01*
X45590Y74280D01*
X45754Y74262D01*
X48494Y74262D01*
X49387Y73369D01*
X49387Y61106D01*
X48494Y60213D01*
X37231Y60213D01*
G37*
%LPD*%
G36*
X163727Y133823D02*
X163727Y133823D01*
X163798Y133823D01*
X163825Y133834D01*
X163854Y133837D01*
X163916Y133873D01*
X163981Y133900D01*
X164002Y133921D01*
X164027Y133935D01*
X164090Y134012D01*
X164120Y134043D01*
X164124Y134053D01*
X164133Y134063D01*
X173633Y150563D01*
X173643Y150595D01*
X173652Y150608D01*
X173656Y150633D01*
X173657Y150636D01*
X173688Y150707D01*
X173688Y150730D01*
X173696Y150752D01*
X173690Y150829D01*
X173691Y150906D01*
X173681Y150930D01*
X173680Y150950D01*
X173659Y150990D01*
X173633Y151062D01*
X164133Y167562D01*
X164114Y167583D01*
X164101Y167610D01*
X164048Y167657D01*
X164001Y167711D01*
X163975Y167723D01*
X163954Y167743D01*
X163886Y167766D01*
X163822Y167797D01*
X163793Y167798D01*
X163766Y167807D01*
X163694Y167803D01*
X163623Y167806D01*
X163596Y167796D01*
X163567Y167794D01*
X163477Y167751D01*
X163437Y167737D01*
X163429Y167729D01*
X163416Y167723D01*
X160893Y165982D01*
X160869Y165957D01*
X160831Y165931D01*
X158619Y163807D01*
X158600Y163779D01*
X158566Y163747D01*
X156724Y161295D01*
X156710Y161265D01*
X156681Y161227D01*
X155256Y158512D01*
X155247Y158481D01*
X155231Y158456D01*
X155230Y158448D01*
X155225Y158439D01*
X154254Y155530D01*
X154250Y155496D01*
X154235Y155452D01*
X153743Y152426D01*
X153744Y152392D01*
X153736Y152346D01*
X153736Y149279D01*
X153737Y149276D01*
X153737Y149273D01*
X153743Y149247D01*
X153743Y149246D01*
X153743Y149199D01*
X154235Y146173D01*
X154247Y146141D01*
X154254Y146095D01*
X155225Y143186D01*
X155242Y143157D01*
X155256Y143113D01*
X156681Y140398D01*
X156703Y140371D01*
X156724Y140330D01*
X158566Y137878D01*
X158591Y137856D01*
X158619Y137818D01*
X160831Y135694D01*
X160859Y135676D01*
X160893Y135643D01*
X163416Y133902D01*
X163443Y133890D01*
X163465Y133872D01*
X163534Y133852D01*
X163599Y133824D01*
X163628Y133823D01*
X163656Y133815D01*
X163727Y133823D01*
G37*
G36*
X-163694Y133822D02*
X-163694Y133822D01*
X-163623Y133819D01*
X-163596Y133829D01*
X-163567Y133831D01*
X-163477Y133874D01*
X-163437Y133888D01*
X-163429Y133896D01*
X-163416Y133902D01*
X-160893Y135643D01*
X-160869Y135668D01*
X-160831Y135694D01*
X-158619Y137818D01*
X-158600Y137846D01*
X-158566Y137878D01*
X-156724Y140330D01*
X-156710Y140360D01*
X-156681Y140398D01*
X-155256Y143113D01*
X-155247Y143145D01*
X-155225Y143186D01*
X-154254Y146095D01*
X-154250Y146129D01*
X-154235Y146173D01*
X-153743Y149199D01*
X-153744Y149233D01*
X-153736Y149279D01*
X-153736Y152346D01*
X-153743Y152379D01*
X-153743Y152426D01*
X-154235Y155452D01*
X-154247Y155484D01*
X-154254Y155530D01*
X-155225Y158439D01*
X-155238Y158462D01*
X-155244Y158486D01*
X-155251Y158495D01*
X-155256Y158512D01*
X-156681Y161227D01*
X-156703Y161254D01*
X-156724Y161295D01*
X-158566Y163747D01*
X-158591Y163769D01*
X-158619Y163807D01*
X-160831Y165931D01*
X-160859Y165949D01*
X-160893Y165982D01*
X-163416Y167723D01*
X-163443Y167735D01*
X-163465Y167753D01*
X-163534Y167774D01*
X-163599Y167801D01*
X-163628Y167802D01*
X-163656Y167810D01*
X-163727Y167802D01*
X-163798Y167802D01*
X-163825Y167791D01*
X-163854Y167788D01*
X-163916Y167753D01*
X-163981Y167725D01*
X-164002Y167704D01*
X-164027Y167690D01*
X-164090Y167613D01*
X-164120Y167582D01*
X-164124Y167572D01*
X-164133Y167562D01*
X-173633Y151062D01*
X-173657Y150989D01*
X-173688Y150918D01*
X-173688Y150895D01*
X-173696Y150873D01*
X-173690Y150796D01*
X-173691Y150719D01*
X-173681Y150695D01*
X-173680Y150675D01*
X-173659Y150635D01*
X-173640Y150583D01*
X-173639Y150578D01*
X-173637Y150576D01*
X-173633Y150563D01*
X-164133Y134063D01*
X-164114Y134042D01*
X-164101Y134015D01*
X-164048Y133968D01*
X-164001Y133914D01*
X-163975Y133902D01*
X-163954Y133882D01*
X-163886Y133859D01*
X-163822Y133828D01*
X-163793Y133827D01*
X-163766Y133818D01*
X-163694Y133822D01*
G37*
G36*
X86676Y329D02*
X86676Y329D01*
X86754Y337D01*
X86773Y348D01*
X86795Y353D01*
X86859Y397D01*
X86927Y435D01*
X86943Y454D01*
X86959Y465D01*
X86983Y503D01*
X87033Y563D01*
X96533Y17063D01*
X96542Y17091D01*
X96558Y17114D01*
X96573Y17184D01*
X96596Y17252D01*
X96593Y17281D01*
X96599Y17309D01*
X96586Y17379D01*
X96580Y17450D01*
X96567Y17476D01*
X96561Y17504D01*
X96521Y17563D01*
X96488Y17627D01*
X96466Y17645D01*
X96450Y17669D01*
X96367Y17726D01*
X96335Y17753D01*
X96324Y17756D01*
X96314Y17764D01*
X93548Y19072D01*
X93515Y19080D01*
X93472Y19101D01*
X90532Y19948D01*
X90498Y19951D01*
X90454Y19964D01*
X87416Y20330D01*
X87382Y20327D01*
X87335Y20333D01*
X84278Y20206D01*
X84245Y20198D01*
X84198Y20196D01*
X81201Y19580D01*
X81170Y19567D01*
X81124Y19558D01*
X78264Y18470D01*
X78236Y18451D01*
X78192Y18435D01*
X75544Y16902D01*
X75518Y16879D01*
X75478Y16856D01*
X73110Y14918D01*
X73088Y14892D01*
X73052Y14862D01*
X71025Y12570D01*
X71009Y12540D01*
X70977Y12505D01*
X69345Y9917D01*
X69333Y9886D01*
X69308Y9846D01*
X68112Y7030D01*
X68105Y6996D01*
X68102Y6990D01*
X68098Y6983D01*
X68097Y6978D01*
X68086Y6953D01*
X67358Y3982D01*
X67356Y3948D01*
X67345Y3902D01*
X67102Y852D01*
X67106Y824D01*
X67101Y796D01*
X67118Y726D01*
X67126Y655D01*
X67141Y630D01*
X67147Y603D01*
X67190Y545D01*
X67226Y482D01*
X67248Y465D01*
X67265Y442D01*
X67327Y406D01*
X67384Y362D01*
X67412Y355D01*
X67436Y341D01*
X67536Y324D01*
X67577Y314D01*
X67587Y315D01*
X67600Y313D01*
X86600Y313D01*
X86676Y329D01*
G37*
G36*
X87369Y281298D02*
X87369Y281298D01*
X87416Y281295D01*
X90454Y281661D01*
X90486Y281671D01*
X90532Y281677D01*
X93472Y282524D01*
X93502Y282540D01*
X93548Y282553D01*
X96314Y283861D01*
X96336Y283878D01*
X96363Y283888D01*
X96415Y283937D01*
X96473Y283980D01*
X96487Y284005D01*
X96508Y284025D01*
X96537Y284090D01*
X96573Y284152D01*
X96576Y284181D01*
X96588Y284207D01*
X96589Y284279D01*
X96598Y284349D01*
X96590Y284377D01*
X96591Y284406D01*
X96555Y284500D01*
X96544Y284541D01*
X96537Y284549D01*
X96533Y284562D01*
X87033Y301062D01*
X86981Y301120D01*
X86935Y301183D01*
X86916Y301194D01*
X86901Y301211D01*
X86831Y301244D01*
X86764Y301284D01*
X86740Y301288D01*
X86722Y301297D01*
X86677Y301299D01*
X86600Y301312D01*
X67600Y301312D01*
X67572Y301306D01*
X67544Y301309D01*
X67476Y301286D01*
X67405Y301272D01*
X67382Y301256D01*
X67355Y301247D01*
X67300Y301200D01*
X67241Y301160D01*
X67226Y301136D01*
X67205Y301117D01*
X67173Y301053D01*
X67134Y300992D01*
X67129Y300964D01*
X67117Y300939D01*
X67108Y300837D01*
X67101Y300796D01*
X67103Y300786D01*
X67102Y300773D01*
X67345Y297723D01*
X67354Y297690D01*
X67358Y297643D01*
X68086Y294672D01*
X68101Y294641D01*
X68112Y294595D01*
X69308Y291779D01*
X69327Y291751D01*
X69345Y291708D01*
X70977Y289120D01*
X71001Y289095D01*
X71025Y289055D01*
X73052Y286763D01*
X73079Y286742D01*
X73110Y286707D01*
X75478Y284769D01*
X75508Y284753D01*
X75544Y284723D01*
X78192Y283190D01*
X78224Y283179D01*
X78264Y283155D01*
X81124Y282067D01*
X81157Y282061D01*
X81201Y282045D01*
X84198Y281429D01*
X84232Y281429D01*
X84278Y281419D01*
X87335Y281292D01*
X87369Y281298D01*
G37*
G36*
X-67572Y319D02*
X-67572Y319D01*
X-67544Y316D01*
X-67476Y339D01*
X-67405Y353D01*
X-67382Y369D01*
X-67355Y378D01*
X-67300Y425D01*
X-67241Y465D01*
X-67226Y489D01*
X-67205Y508D01*
X-67173Y572D01*
X-67134Y633D01*
X-67129Y661D01*
X-67117Y686D01*
X-67108Y788D01*
X-67101Y829D01*
X-67103Y839D01*
X-67102Y852D01*
X-67345Y3902D01*
X-67354Y3935D01*
X-67358Y3982D01*
X-68086Y6953D01*
X-68101Y6984D01*
X-68112Y7030D01*
X-69308Y9846D01*
X-69327Y9874D01*
X-69345Y9917D01*
X-70977Y12505D01*
X-71001Y12530D01*
X-71025Y12570D01*
X-73052Y14862D01*
X-73079Y14883D01*
X-73110Y14918D01*
X-75478Y16856D01*
X-75508Y16872D01*
X-75544Y16902D01*
X-78192Y18435D01*
X-78224Y18446D01*
X-78264Y18470D01*
X-81124Y19558D01*
X-81157Y19564D01*
X-81201Y19580D01*
X-84198Y20196D01*
X-84232Y20196D01*
X-84278Y20206D01*
X-87335Y20333D01*
X-87369Y20327D01*
X-87416Y20330D01*
X-90454Y19964D01*
X-90486Y19954D01*
X-90532Y19948D01*
X-93472Y19101D01*
X-93502Y19085D01*
X-93548Y19072D01*
X-96314Y17764D01*
X-96336Y17747D01*
X-96363Y17737D01*
X-96415Y17688D01*
X-96473Y17645D01*
X-96487Y17620D01*
X-96508Y17600D01*
X-96537Y17535D01*
X-96573Y17473D01*
X-96576Y17445D01*
X-96588Y17418D01*
X-96589Y17346D01*
X-96598Y17276D01*
X-96590Y17248D01*
X-96591Y17219D01*
X-96555Y17125D01*
X-96544Y17084D01*
X-96537Y17076D01*
X-96533Y17063D01*
X-87033Y563D01*
X-86981Y505D01*
X-86935Y442D01*
X-86916Y431D01*
X-86901Y414D01*
X-86831Y381D01*
X-86764Y341D01*
X-86740Y337D01*
X-86722Y328D01*
X-86677Y326D01*
X-86600Y313D01*
X-67600Y313D01*
X-67572Y319D01*
G37*
G36*
X-84278Y281419D02*
X-84278Y281419D01*
X-84245Y281427D01*
X-84198Y281429D01*
X-81201Y282045D01*
X-81170Y282058D01*
X-81124Y282067D01*
X-78264Y283155D01*
X-78236Y283174D01*
X-78192Y283190D01*
X-75544Y284723D01*
X-75518Y284746D01*
X-75478Y284769D01*
X-73110Y286707D01*
X-73088Y286733D01*
X-73052Y286763D01*
X-71025Y289055D01*
X-71009Y289085D01*
X-70977Y289120D01*
X-69345Y291708D01*
X-69333Y291740D01*
X-69308Y291779D01*
X-68112Y294595D01*
X-68105Y294629D01*
X-68086Y294672D01*
X-67358Y297643D01*
X-67356Y297677D01*
X-67345Y297723D01*
X-67102Y300773D01*
X-67106Y300801D01*
X-67101Y300829D01*
X-67118Y300899D01*
X-67126Y300970D01*
X-67141Y300995D01*
X-67147Y301022D01*
X-67190Y301080D01*
X-67226Y301143D01*
X-67248Y301160D01*
X-67265Y301183D01*
X-67327Y301219D01*
X-67384Y301263D01*
X-67412Y301270D01*
X-67436Y301284D01*
X-67536Y301301D01*
X-67577Y301311D01*
X-67587Y301310D01*
X-67600Y301312D01*
X-86600Y301312D01*
X-86676Y301296D01*
X-86754Y301288D01*
X-86773Y301277D01*
X-86795Y301272D01*
X-86859Y301228D01*
X-86927Y301190D01*
X-86943Y301171D01*
X-86959Y301160D01*
X-86983Y301122D01*
X-87033Y301062D01*
X-96533Y284562D01*
X-96542Y284534D01*
X-96558Y284511D01*
X-96573Y284441D01*
X-96596Y284373D01*
X-96593Y284345D01*
X-96599Y284316D01*
X-96586Y284246D01*
X-96580Y284175D01*
X-96567Y284149D01*
X-96561Y284121D01*
X-96521Y284062D01*
X-96488Y283998D01*
X-96466Y283980D01*
X-96450Y283956D01*
X-96367Y283899D01*
X-96335Y283872D01*
X-96324Y283869D01*
X-96314Y283861D01*
X-93548Y282553D01*
X-93515Y282545D01*
X-93472Y282524D01*
X-90532Y281677D01*
X-90498Y281674D01*
X-90454Y281661D01*
X-87416Y281295D01*
X-87382Y281298D01*
X-87335Y281292D01*
X-84278Y281419D01*
G37*
%LPC*%
G36*
X9743Y108338D02*
X9743Y108338D01*
X8850Y109231D01*
X8850Y120494D01*
X9743Y121387D01*
X12319Y121387D01*
X12339Y121390D01*
X12358Y121388D01*
X12460Y121410D01*
X12562Y121427D01*
X12579Y121436D01*
X12599Y121441D01*
X12688Y121494D01*
X12779Y121542D01*
X12793Y121556D01*
X12810Y121567D01*
X12877Y121645D01*
X12949Y121720D01*
X12957Y121738D01*
X12970Y121754D01*
X13009Y121850D01*
X13052Y121943D01*
X13054Y121963D01*
X13062Y121982D01*
X13080Y122148D01*
X13080Y126575D01*
X13066Y126665D01*
X13058Y126756D01*
X13046Y126786D01*
X13041Y126818D01*
X12998Y126899D01*
X12962Y126982D01*
X12936Y127015D01*
X12925Y127035D01*
X12902Y127057D01*
X12857Y127113D01*
X11576Y128394D01*
X11576Y131956D01*
X14094Y134474D01*
X17656Y134474D01*
X20174Y131956D01*
X20174Y128394D01*
X18893Y127113D01*
X18840Y127039D01*
X18780Y126970D01*
X18768Y126940D01*
X18749Y126914D01*
X18722Y126827D01*
X18688Y126742D01*
X18684Y126701D01*
X18677Y126679D01*
X18678Y126646D01*
X18670Y126575D01*
X18670Y122148D01*
X18672Y122133D01*
X18671Y122121D01*
X18672Y122117D01*
X18671Y122109D01*
X18693Y122008D01*
X18709Y121906D01*
X18719Y121888D01*
X18723Y121869D01*
X18776Y121780D01*
X18825Y121688D01*
X18839Y121675D01*
X18849Y121658D01*
X18928Y121590D01*
X19003Y121519D01*
X19021Y121511D01*
X19036Y121498D01*
X19132Y121459D01*
X19226Y121415D01*
X19246Y121413D01*
X19264Y121406D01*
X19431Y121387D01*
X22007Y121387D01*
X22900Y120494D01*
X22900Y109231D01*
X22007Y108338D01*
X9743Y108338D01*
G37*
%LPD*%
%LPC*%
G36*
X-68500Y244825D02*
X-68500Y244825D01*
X-71872Y246222D01*
X-74453Y248803D01*
X-75850Y252175D01*
X-75850Y255825D01*
X-74453Y259197D01*
X-71872Y261778D01*
X-68500Y263175D01*
X-64850Y263175D01*
X-61478Y261778D01*
X-58897Y259197D01*
X-57500Y255825D01*
X-57500Y252175D01*
X-58897Y248803D01*
X-61478Y246222D01*
X-64850Y244825D01*
X-68500Y244825D01*
G37*
%LPD*%
%LPC*%
G36*
X-68500Y219425D02*
X-68500Y219425D01*
X-71872Y220822D01*
X-74453Y223403D01*
X-75850Y226775D01*
X-75850Y230425D01*
X-74453Y233797D01*
X-71872Y236378D01*
X-68500Y237775D01*
X-64850Y237775D01*
X-61478Y236378D01*
X-58897Y233797D01*
X-57500Y230425D01*
X-57500Y226775D01*
X-58897Y223403D01*
X-61478Y220822D01*
X-64850Y219425D01*
X-68500Y219425D01*
G37*
%LPD*%
%LPC*%
G36*
X-95481Y154368D02*
X-95481Y154368D01*
X-98843Y155760D01*
X-101415Y158332D01*
X-102807Y161694D01*
X-102807Y165331D01*
X-101415Y168693D01*
X-98843Y171265D01*
X-95481Y172657D01*
X-91844Y172657D01*
X-88482Y171265D01*
X-85910Y168693D01*
X-84518Y165331D01*
X-84518Y161694D01*
X-85910Y158332D01*
X-88482Y155760D01*
X-91844Y154368D01*
X-95481Y154368D01*
G37*
%LPD*%
%LPC*%
G36*
X-95481Y128968D02*
X-95481Y128968D01*
X-98843Y130360D01*
X-101415Y132932D01*
X-102807Y136294D01*
X-102807Y139931D01*
X-101415Y143293D01*
X-98843Y145865D01*
X-95481Y147257D01*
X-91844Y147257D01*
X-88482Y145865D01*
X-85910Y143293D01*
X-84518Y139931D01*
X-84518Y136294D01*
X-85910Y132932D01*
X-88482Y130360D01*
X-91844Y128968D01*
X-95481Y128968D01*
G37*
%LPD*%
%LPC*%
G36*
X-95481Y103568D02*
X-95481Y103568D01*
X-98843Y104960D01*
X-101415Y107532D01*
X-102807Y110894D01*
X-102807Y114531D01*
X-101415Y117893D01*
X-98843Y120465D01*
X-95481Y121857D01*
X-91844Y121857D01*
X-88482Y120465D01*
X-85910Y117893D01*
X-84518Y114531D01*
X-84518Y110894D01*
X-85910Y107532D01*
X-88482Y104960D01*
X-91844Y103568D01*
X-95481Y103568D01*
G37*
%LPD*%
%LPC*%
G36*
X-66107Y54800D02*
X-66107Y54800D01*
X-67000Y55693D01*
X-67000Y57407D01*
X-67014Y57497D01*
X-67022Y57588D01*
X-67034Y57618D01*
X-67039Y57650D01*
X-67082Y57730D01*
X-67118Y57814D01*
X-67144Y57846D01*
X-67155Y57867D01*
X-67178Y57889D01*
X-67223Y57945D01*
X-68256Y58978D01*
X-68330Y59031D01*
X-68399Y59091D01*
X-68429Y59103D01*
X-68455Y59122D01*
X-68542Y59149D01*
X-68627Y59183D01*
X-68668Y59187D01*
X-68690Y59194D01*
X-68723Y59193D01*
X-68794Y59201D01*
X-70606Y59201D01*
X-73124Y61719D01*
X-73124Y65281D01*
X-70606Y67799D01*
X-67044Y67799D01*
X-65318Y66073D01*
X-65244Y66020D01*
X-65175Y65960D01*
X-65145Y65948D01*
X-65119Y65929D01*
X-65032Y65902D01*
X-64947Y65868D01*
X-64906Y65864D01*
X-64884Y65857D01*
X-64851Y65858D01*
X-64780Y65850D01*
X-56843Y65850D01*
X-55950Y64957D01*
X-55950Y55693D01*
X-56843Y54800D01*
X-66107Y54800D01*
G37*
%LPD*%
%LPC*%
G36*
X-36279Y236439D02*
X-36279Y236439D01*
X-38797Y238957D01*
X-38797Y242518D01*
X-36279Y245036D01*
X-32717Y245036D01*
X-30199Y242518D01*
X-30199Y238957D01*
X-32717Y236439D01*
X-36279Y236439D01*
G37*
%LPD*%
D10*
X42863Y67238D03*
X42863Y50238D03*
D11*
X-61475Y60325D03*
X-46475Y60325D03*
D12*
X103188Y150813D03*
D13*
X-93663Y163513D03*
X-93663Y138113D03*
X-93663Y112713D03*
D14*
X29088Y198188D03*
X24088Y198188D03*
X19088Y198188D03*
X14088Y198188D03*
X9088Y198188D03*
X4088Y198188D03*
X-913Y198188D03*
X-5913Y198188D03*
X-10913Y198188D03*
X-15913Y198188D03*
X-20913Y198188D03*
X-25913Y198188D03*
X-23413Y215188D03*
X-18413Y215188D03*
X-13413Y215188D03*
X-8413Y215188D03*
X-3413Y215188D03*
X1588Y215188D03*
X6588Y215188D03*
X11588Y215188D03*
X16588Y215188D03*
X21588Y215188D03*
X26588Y215188D03*
X31588Y215188D03*
D15*
X42888Y212248D02*
X42888Y222328D01*
X-39713Y222328D02*
X-39713Y212248D01*
X-43313Y271748D02*
X-43313Y281828D01*
X46488Y281828D02*
X46488Y271748D01*
D16*
X-66675Y254000D03*
X-66675Y228600D03*
D17*
X9525Y165663D03*
X9525Y148663D03*
X-7938Y148663D03*
X-7938Y165663D03*
D10*
X25400Y148663D03*
X25400Y165663D03*
X-23813Y148663D03*
X-23813Y165663D03*
D18*
X82600Y293913D03*
X165200Y150813D03*
X82600Y7713D03*
X-82600Y7713D03*
X-165200Y150813D03*
X-82600Y293913D03*
X123900Y222313D03*
X123900Y79313D03*
X0Y7713D03*
X-123900Y79313D03*
X-123900Y222313D03*
D17*
X-25400Y97863D03*
X-25400Y114863D03*
X15875Y97863D03*
X15875Y114863D03*
D11*
X-25400Y90050D03*
X-25400Y75050D03*
X15875Y90050D03*
X15875Y75050D03*
D19*
X43088Y7713D02*
X82600Y7713D01*
X-31357Y17856D02*
X-31357Y33414D01*
X-25084Y39688D02*
X11113Y39688D01*
X-41500Y7713D02*
X-82600Y7713D01*
X11113Y39688D02*
X43088Y7713D01*
X-31357Y17856D02*
X-41500Y7713D01*
X-82600Y7713D02*
X-84922Y10035D01*
X-104775Y44422D01*
X-104775Y47625D01*
X-89890Y62510D01*
X-115117Y108467D02*
X-115880Y108467D01*
X-116252Y108839D01*
X-116489Y108839D01*
X-118775Y111125D01*
X-115117Y108467D02*
X-89890Y83240D01*
X-118775Y111125D02*
X-141288Y111125D01*
X-146014Y115851D01*
X-165200Y149084D01*
X-165200Y150813D01*
X-89890Y83240D02*
X-89890Y62510D01*
X-84922Y291590D02*
X-82600Y293913D01*
X-84922Y291590D02*
X-100013Y265452D01*
X-100013Y254000D01*
X-95250Y249238D01*
X-138113Y192088D02*
X-148182Y182018D01*
X-165200Y152541D01*
X-165200Y150813D01*
X-82600Y293913D02*
X26988Y293913D01*
X82600Y293913D01*
X165200Y152541D02*
X165200Y150813D01*
X165200Y152541D02*
X150350Y178262D01*
X139700Y188913D01*
X122050Y186901D02*
X115122Y186901D01*
X110224Y191799D01*
X124062Y188913D02*
X139700Y188913D01*
X124062Y188913D02*
X122050Y186901D01*
X110224Y191799D02*
X110224Y198658D01*
X95250Y273702D02*
X84922Y291590D01*
X82600Y293913D01*
X95250Y213632D02*
X110224Y198658D01*
X95250Y213632D02*
X95250Y273702D01*
X84922Y10035D02*
X82600Y7713D01*
X84922Y10035D02*
X101600Y38922D01*
X101600Y39387D02*
X90906Y50081D01*
X90906Y84556D01*
X115888Y109538D02*
X138113Y109538D01*
X148182Y119607D01*
X165200Y149084D01*
X165200Y150813D01*
X101600Y39387D02*
X101600Y38922D01*
X90906Y84556D02*
X115888Y109538D01*
D20*
X46038Y170425D03*
D21*
X67411Y191799D01*
X110224Y191799D01*
D19*
X-25084Y39688D02*
X-31357Y33414D01*
X-103955Y192088D02*
X-95250Y200792D01*
X-103955Y192088D02*
X-138113Y192088D01*
X-95250Y200792D02*
X-95250Y249238D01*
D20*
X30163Y258738D03*
D22*
X26988Y261913D01*
X26988Y293913D01*
D23*
X-23413Y239713D02*
X-23413Y215188D01*
X-23413Y239713D02*
X-23813Y239713D01*
X31588Y238125D02*
X31588Y215188D01*
X31588Y238125D02*
X30163Y238125D01*
X29088Y208640D02*
X29088Y198188D01*
X29088Y208640D02*
X31588Y208640D01*
X31588Y215188D01*
X29088Y198188D02*
X29088Y176213D01*
X28575Y176213D01*
X-25913Y180975D02*
X-25913Y198188D01*
X-25913Y180975D02*
X-28575Y180975D01*
X-23413Y207621D02*
X-23413Y215188D01*
X-23413Y207621D02*
X-25913Y205121D01*
X-25913Y198188D01*
D20*
X134938Y165100D03*
X133350Y139700D03*
X66675Y36513D03*
X49213Y26988D03*
X-52388Y31750D03*
X-84138Y46038D03*
X-133350Y166688D03*
X-133350Y133350D03*
X-6350Y258763D03*
X3175Y258763D03*
X3175Y250825D03*
X-6350Y250825D03*
X-6350Y242888D03*
X3175Y242888D03*
X-1588Y87313D03*
D22*
X-1588Y88900D01*
X-9525Y88900D01*
D24*
X-31750Y75050D02*
X-46475Y60325D01*
X-31750Y75050D02*
X-25400Y75050D01*
X15875Y75050D01*
X-1588Y75050D01*
X-1588Y88900D01*
D25*
X-107276Y205688D02*
X-123900Y222313D01*
X-107276Y205688D02*
X-103767Y205688D01*
D26*
X-103767Y205688D03*
X-18232Y28363D03*
D25*
X-18232Y25945D01*
X0Y7713D01*
D26*
X-98252Y79776D03*
D25*
X-123436Y79776D01*
X-123900Y79313D01*
D26*
X100855Y59895D03*
D25*
X104482Y59895D01*
X123900Y79313D01*
D26*
X118586Y195263D03*
D25*
X123900Y200577D01*
X123900Y222313D01*
D24*
X-61475Y60325D02*
X-65650Y60325D01*
X-68825Y63500D01*
D26*
X-68825Y63500D03*
X42300Y66675D03*
D25*
X103188Y138675D02*
X103188Y150813D01*
X103188Y138675D02*
X42300Y77788D01*
X42863Y67238D01*
D24*
X42300Y66675D01*
D26*
X-42202Y98780D03*
D25*
X-48247Y98780D01*
X-55944Y106477D02*
X-55944Y117361D01*
X-7938Y136288D02*
X-7938Y148663D01*
X-7938Y136288D02*
X-6814Y135165D01*
X-48247Y98780D02*
X-55944Y106477D01*
X-55944Y117361D02*
X-45923Y127381D01*
X-6814Y127381D01*
X-6814Y135165D01*
D27*
X-7938Y148663D02*
X-23813Y148663D01*
D26*
X-42202Y105852D03*
D25*
X-50290Y105852D01*
X-52388Y107950D01*
X-52388Y115888D01*
X9025Y148663D02*
X9525Y148663D01*
X9025Y148663D02*
X-3258Y136379D01*
X-3258Y133751D01*
X-1206Y131699D01*
X-1206Y125908D01*
X-3290Y123825D01*
X-44450Y123825D02*
X-52388Y115888D01*
X-44450Y123825D02*
X-3290Y123825D01*
D27*
X9525Y148663D02*
X25400Y148663D01*
D26*
X-34498Y240738D03*
D20*
X-11113Y187325D03*
X12700Y187325D03*
D25*
X4088Y188303D02*
X4088Y198188D01*
X4088Y188303D02*
X3366Y187581D01*
X3366Y176308D01*
X3133Y176075D01*
X3133Y171555D01*
X9025Y165663D01*
X9525Y165663D01*
X4088Y198188D02*
X4088Y205752D01*
X4711Y206375D01*
X5124Y206375D01*
D26*
X5124Y206375D03*
D25*
X1588Y215188D02*
X1588Y222752D01*
X552Y222752D01*
D26*
X552Y222752D03*
D25*
X-913Y198188D02*
X-913Y188182D01*
X-191Y187460D01*
X-191Y177781D01*
X-984Y176987D01*
X-984Y172116D01*
X-7438Y165663D01*
X-7938Y165663D01*
X-913Y198188D02*
X-913Y205752D01*
X-1536Y206375D01*
X-1949Y206375D01*
D26*
X-1949Y206375D03*
D25*
X6588Y215188D02*
X6588Y222752D01*
X7624Y222752D01*
D26*
X7624Y222752D03*
X4763Y130175D03*
D24*
X-20248Y120015D02*
X-25400Y114863D01*
X-20248Y120015D02*
X-1711Y120015D01*
X2604Y124330D01*
X2604Y128016D01*
X4763Y130175D01*
X15875Y130175D02*
X15875Y114863D01*
D26*
X15875Y130175D03*
D24*
X15875Y97863D02*
X15875Y90050D01*
X-25400Y90050D02*
X-25400Y97863D01*
M02*
