G04 EAGLE Gerber RS-274X export*
G75*
%MOMM*%
%FSLAX34Y34*%
%LPD*%
%INBottom Copper*%
%IPPOS*%
%AMOC8*
5,1,8,0,0,1.08239X$1,22.5*%
G01*
%ADD10R,1.300000X1.500000*%
%ADD11R,1.100000X1.000000*%
%ADD12P,1.649562X8X22.500000*%
%ADD13C,1.524000*%
%ADD14R,1.000000X1.100000*%
%ADD15R,0.550000X0.254000*%
%ADD16R,0.254000X0.550000*%
%ADD17R,5.600000X5.600000*%
%ADD18R,1.399997X0.400000*%
%ADD19R,0.800000X0.500000*%
%ADD20C,1.008000*%
%ADD21R,1.500000X1.300000*%
%ADD22R,0.700000X0.400000*%
%ADD23R,1.750000X2.500000*%
%ADD24C,1.530000*%
%ADD25C,1.000000*%
%ADD26C,0.406400*%
%ADD27C,0.750000*%
%ADD28C,0.609600*%
%ADD29C,0.554800*%
%ADD30C,0.203200*%
%ADD31C,0.254000*%
%ADD32C,0.304800*%
%ADD33C,0.812800*%

G36*
X79685Y63261D02*
X79685Y63261D01*
X79776Y63269D01*
X79806Y63281D01*
X79838Y63286D01*
X79918Y63329D01*
X80002Y63365D01*
X80034Y63391D01*
X80055Y63402D01*
X80077Y63425D01*
X80133Y63470D01*
X92105Y75442D01*
X92158Y75516D01*
X92218Y75585D01*
X92230Y75616D01*
X92249Y75642D01*
X92276Y75729D01*
X92310Y75814D01*
X92314Y75854D01*
X92321Y75877D01*
X92320Y75909D01*
X92328Y75980D01*
X92328Y91425D01*
X115822Y114919D01*
X115875Y114993D01*
X115935Y115063D01*
X115947Y115093D01*
X115966Y115119D01*
X115993Y115206D01*
X116027Y115291D01*
X116031Y115332D01*
X116038Y115354D01*
X116037Y115386D01*
X116045Y115458D01*
X116045Y188916D01*
X116027Y189027D01*
X116012Y189138D01*
X116007Y189150D01*
X116006Y189158D01*
X115993Y189181D01*
X115946Y189292D01*
X53911Y298427D01*
X53867Y298481D01*
X53831Y298541D01*
X53791Y298576D01*
X53757Y298618D01*
X53698Y298656D01*
X53644Y298701D01*
X53595Y298721D01*
X53549Y298750D01*
X53481Y298767D01*
X53416Y298793D01*
X53342Y298802D01*
X53311Y298809D01*
X53288Y298807D01*
X53249Y298812D01*
X-56500Y298812D01*
X-56572Y298800D01*
X-56645Y298798D01*
X-56693Y298780D01*
X-56743Y298772D01*
X-56807Y298738D01*
X-56876Y298712D01*
X-56915Y298681D01*
X-56960Y298657D01*
X-57010Y298604D01*
X-57067Y298558D01*
X-57107Y298502D01*
X-57129Y298479D01*
X-57140Y298457D01*
X-57165Y298421D01*
X-101794Y218426D01*
X-101800Y218408D01*
X-101811Y218392D01*
X-101842Y218292D01*
X-101877Y218195D01*
X-101878Y218175D01*
X-101883Y218157D01*
X-101880Y218053D01*
X-101883Y217949D01*
X-101878Y217934D01*
X-102121Y217313D01*
X-102128Y217281D01*
X-102155Y217204D01*
X-102297Y216580D01*
X-102346Y216528D01*
X-102413Y216469D01*
X-102430Y216439D01*
X-102454Y216414D01*
X-102532Y216265D01*
X-103337Y214213D01*
X-103344Y214179D01*
X-103359Y214148D01*
X-103370Y214060D01*
X-103389Y213973D01*
X-103385Y213938D01*
X-103389Y213904D01*
X-103377Y213825D01*
X-103698Y213268D01*
X-103710Y213237D01*
X-103748Y213165D01*
X-103982Y212569D01*
X-104038Y212525D01*
X-104113Y212477D01*
X-104134Y212450D01*
X-104162Y212428D01*
X-104261Y212293D01*
X-104933Y211129D01*
X-104966Y211040D01*
X-105006Y210953D01*
X-105009Y210925D01*
X-105019Y210899D01*
X-105023Y210804D01*
X-105033Y210709D01*
X-105027Y210681D01*
X-105028Y210653D01*
X-105001Y210562D01*
X-104981Y210469D01*
X-104967Y210444D01*
X-104959Y210417D01*
X-104904Y210339D01*
X-104855Y210257D01*
X-104833Y210239D01*
X-104817Y210216D01*
X-104740Y210159D01*
X-104668Y210098D01*
X-104642Y210087D01*
X-104619Y210070D01*
X-104528Y210041D01*
X-104440Y210006D01*
X-104404Y210002D01*
X-104385Y209995D01*
X-104352Y209996D01*
X-104273Y209987D01*
X-101986Y209987D01*
X-100451Y208452D01*
X-100377Y208399D01*
X-100308Y208340D01*
X-100278Y208327D01*
X-100252Y208309D01*
X-100165Y208282D01*
X-100080Y208248D01*
X-100039Y208243D01*
X-100017Y208236D01*
X-99984Y208237D01*
X-99913Y208229D01*
X-86827Y208229D01*
X-6549Y127951D01*
X-6549Y126148D01*
X-6546Y126129D01*
X-6548Y126109D01*
X-6526Y126008D01*
X-6509Y125906D01*
X-6500Y125888D01*
X-6495Y125869D01*
X-6442Y125779D01*
X-6394Y125688D01*
X-6380Y125675D01*
X-6369Y125658D01*
X-6291Y125590D01*
X-6216Y125519D01*
X-6198Y125511D01*
X-6182Y125498D01*
X-6086Y125459D01*
X-5993Y125415D01*
X-5973Y125413D01*
X-5954Y125406D01*
X-5788Y125387D01*
X-2187Y125387D01*
X-2126Y125326D01*
X-2110Y125314D01*
X-2097Y125299D01*
X-2010Y125243D01*
X-1926Y125183D01*
X-1907Y125177D01*
X-1890Y125166D01*
X-1790Y125141D01*
X-1691Y125110D01*
X-1671Y125111D01*
X-1652Y125106D01*
X-1549Y125114D01*
X-1445Y125117D01*
X-1426Y125123D01*
X-1407Y125125D01*
X-1311Y125165D01*
X-1214Y125201D01*
X-1198Y125213D01*
X-1180Y125221D01*
X-1049Y125326D01*
X-988Y125387D01*
X1633Y125387D01*
X1704Y125399D01*
X1776Y125401D01*
X1825Y125419D01*
X1876Y125427D01*
X1939Y125460D01*
X2007Y125485D01*
X2047Y125518D01*
X2093Y125542D01*
X2143Y125594D01*
X2199Y125639D01*
X2227Y125683D01*
X2263Y125720D01*
X2293Y125785D01*
X2332Y125846D01*
X2344Y125896D01*
X2366Y125943D01*
X2374Y126015D01*
X2392Y126084D01*
X2388Y126136D01*
X2393Y126188D01*
X2378Y126258D01*
X2373Y126329D01*
X2352Y126377D01*
X2341Y126428D01*
X2304Y126490D01*
X2276Y126556D01*
X2231Y126612D01*
X2215Y126639D01*
X2197Y126655D01*
X2171Y126687D01*
X464Y128394D01*
X464Y131956D01*
X2982Y134474D01*
X6543Y134474D01*
X9061Y131956D01*
X9061Y128394D01*
X8932Y128265D01*
X8879Y128191D01*
X8820Y128122D01*
X8807Y128092D01*
X8789Y128066D01*
X8762Y127979D01*
X8728Y127894D01*
X8723Y127853D01*
X8716Y127831D01*
X8717Y127798D01*
X8709Y127727D01*
X8709Y126148D01*
X8712Y126129D01*
X8710Y126109D01*
X8732Y126008D01*
X8749Y125906D01*
X8758Y125888D01*
X8763Y125869D01*
X8816Y125779D01*
X8864Y125688D01*
X8878Y125675D01*
X8889Y125658D01*
X8967Y125590D01*
X9042Y125519D01*
X9060Y125511D01*
X9076Y125498D01*
X9172Y125459D01*
X9265Y125415D01*
X9285Y125413D01*
X9304Y125406D01*
X9470Y125387D01*
X12361Y125387D01*
X12380Y125390D01*
X12400Y125388D01*
X12501Y125410D01*
X12603Y125427D01*
X12621Y125436D01*
X12640Y125441D01*
X12729Y125494D01*
X12821Y125542D01*
X12834Y125556D01*
X12851Y125567D01*
X12919Y125645D01*
X12990Y125720D01*
X12998Y125738D01*
X13011Y125754D01*
X13050Y125850D01*
X13094Y125943D01*
X13096Y125963D01*
X13103Y125982D01*
X13122Y126148D01*
X13122Y126534D01*
X13107Y126624D01*
X13100Y126715D01*
X13087Y126744D01*
X13082Y126776D01*
X13039Y126857D01*
X13004Y126941D01*
X12978Y126973D01*
X12967Y126994D01*
X12944Y127016D01*
X12899Y127072D01*
X11576Y128394D01*
X11576Y131956D01*
X14094Y134474D01*
X17656Y134474D01*
X20174Y131956D01*
X20174Y128394D01*
X18934Y127155D01*
X18881Y127081D01*
X18822Y127011D01*
X18810Y126981D01*
X18791Y126955D01*
X18764Y126868D01*
X18730Y126783D01*
X18725Y126742D01*
X18718Y126720D01*
X18719Y126688D01*
X18711Y126617D01*
X18711Y126148D01*
X18714Y126129D01*
X18712Y126109D01*
X18734Y126008D01*
X18751Y125906D01*
X18760Y125888D01*
X18765Y125869D01*
X18818Y125779D01*
X18866Y125688D01*
X18880Y125675D01*
X18891Y125658D01*
X18969Y125590D01*
X19044Y125519D01*
X19062Y125511D01*
X19078Y125498D01*
X19174Y125459D01*
X19267Y125415D01*
X19287Y125413D01*
X19306Y125406D01*
X19472Y125387D01*
X22618Y125387D01*
X22637Y125390D01*
X22657Y125388D01*
X22758Y125410D01*
X22860Y125427D01*
X22878Y125436D01*
X22897Y125441D01*
X22986Y125494D01*
X23078Y125542D01*
X23091Y125556D01*
X23108Y125567D01*
X23176Y125645D01*
X23247Y125720D01*
X23255Y125738D01*
X23268Y125754D01*
X23307Y125850D01*
X23351Y125943D01*
X23353Y125963D01*
X23360Y125982D01*
X23379Y126148D01*
X23379Y182077D01*
X23364Y182167D01*
X23357Y182258D01*
X23344Y182288D01*
X23339Y182320D01*
X23296Y182401D01*
X23261Y182485D01*
X23235Y182517D01*
X23224Y182537D01*
X23201Y182560D01*
X23156Y182616D01*
X19466Y186305D01*
X19429Y186332D01*
X19398Y186366D01*
X19329Y186403D01*
X19266Y186449D01*
X19223Y186462D01*
X19182Y186484D01*
X19106Y186498D01*
X19031Y186521D01*
X18985Y186520D01*
X18940Y186528D01*
X18863Y186517D01*
X18785Y186515D01*
X18742Y186499D01*
X18697Y186492D01*
X18628Y186457D01*
X18554Y186430D01*
X18519Y186402D01*
X18478Y186381D01*
X18423Y186325D01*
X18362Y186277D01*
X18338Y186238D01*
X18305Y186205D01*
X18239Y186085D01*
X18229Y186070D01*
X18228Y186065D01*
X18225Y186058D01*
X18033Y185595D01*
X18018Y185531D01*
X17993Y185471D01*
X17984Y185388D01*
X17977Y185356D01*
X17978Y185336D01*
X17975Y185304D01*
X17975Y185140D01*
X17859Y185024D01*
X17821Y184971D01*
X17775Y184924D01*
X17735Y184851D01*
X17715Y184825D01*
X17710Y184806D01*
X17694Y184777D01*
X17438Y184159D01*
X15866Y182587D01*
X15248Y182331D01*
X15192Y182296D01*
X15132Y182271D01*
X15067Y182219D01*
X15039Y182201D01*
X15026Y182186D01*
X15001Y182166D01*
X14885Y182050D01*
X14721Y182050D01*
X14657Y182040D01*
X14591Y182039D01*
X14511Y182016D01*
X14478Y182011D01*
X14461Y182001D01*
X14430Y181992D01*
X13812Y181736D01*
X-40312Y181736D01*
X-42366Y182587D01*
X-72111Y212332D01*
X-72962Y214386D01*
X-72962Y221597D01*
X-72977Y221687D01*
X-72984Y221778D01*
X-72997Y221808D01*
X-73002Y221840D01*
X-73045Y221920D01*
X-73080Y222004D01*
X-73106Y222036D01*
X-73117Y222057D01*
X-73140Y222079D01*
X-73185Y222135D01*
X-74453Y223403D01*
X-75850Y226775D01*
X-75850Y230425D01*
X-74453Y233797D01*
X-71872Y236378D01*
X-68500Y237775D01*
X-64850Y237775D01*
X-61478Y236378D01*
X-58897Y233797D01*
X-57500Y230425D01*
X-57500Y226775D01*
X-58897Y223403D01*
X-61562Y220738D01*
X-61615Y220664D01*
X-61674Y220595D01*
X-61687Y220565D01*
X-61705Y220538D01*
X-61732Y220451D01*
X-61766Y220367D01*
X-61771Y220326D01*
X-61778Y220303D01*
X-61777Y220271D01*
X-61785Y220200D01*
X-61785Y218128D01*
X-61770Y218038D01*
X-61763Y217947D01*
X-61750Y217917D01*
X-61745Y217885D01*
X-61702Y217805D01*
X-61667Y217721D01*
X-61641Y217689D01*
X-61630Y217668D01*
X-61607Y217646D01*
X-61562Y217590D01*
X-37109Y193137D01*
X-37035Y193084D01*
X-36965Y193024D01*
X-36935Y193012D01*
X-36909Y192993D01*
X-36822Y192966D01*
X-36737Y192932D01*
X-36696Y192928D01*
X-36674Y192921D01*
X-36642Y192922D01*
X-36570Y192914D01*
X11020Y192914D01*
X11091Y192925D01*
X11162Y192927D01*
X11211Y192945D01*
X11263Y192953D01*
X11326Y192987D01*
X11393Y193012D01*
X11434Y193044D01*
X11480Y193069D01*
X11529Y193121D01*
X11585Y193165D01*
X11613Y193209D01*
X11649Y193247D01*
X11680Y193312D01*
X11718Y193372D01*
X11731Y193423D01*
X11753Y193470D01*
X11761Y193541D01*
X11778Y193611D01*
X11774Y193663D01*
X11780Y193714D01*
X11765Y193785D01*
X11759Y193856D01*
X11739Y193904D01*
X11728Y193955D01*
X11691Y194016D01*
X11663Y194082D01*
X11618Y194138D01*
X11602Y194166D01*
X11584Y194181D01*
X11558Y194213D01*
X11030Y194741D01*
X10956Y194795D01*
X10887Y194854D01*
X10857Y194866D01*
X10830Y194885D01*
X10743Y194912D01*
X10658Y194946D01*
X10618Y194950D01*
X10595Y194957D01*
X10563Y194956D01*
X10492Y194964D01*
X-1646Y194964D01*
X-15418Y208736D01*
X-15418Y234660D01*
X-15433Y234750D01*
X-15440Y234841D01*
X-15453Y234871D01*
X-15458Y234903D01*
X-15501Y234983D01*
X-15536Y235067D01*
X-15562Y235099D01*
X-15573Y235120D01*
X-15596Y235142D01*
X-15641Y235198D01*
X-16401Y235958D01*
X-16475Y236011D01*
X-16544Y236070D01*
X-16575Y236083D01*
X-16601Y236101D01*
X-16688Y236128D01*
X-16773Y236162D01*
X-16813Y236167D01*
X-16836Y236174D01*
X-16868Y236173D01*
X-16939Y236181D01*
X-18208Y236181D01*
X-18241Y236194D01*
X-18282Y236199D01*
X-18305Y236206D01*
X-18337Y236205D01*
X-18408Y236213D01*
X-20719Y236213D01*
X-21464Y236958D01*
X-21538Y237011D01*
X-21607Y237070D01*
X-21638Y237082D01*
X-21664Y237101D01*
X-21751Y237128D01*
X-21836Y237162D01*
X-21877Y237167D01*
X-21899Y237174D01*
X-21931Y237173D01*
X-22002Y237181D01*
X-23964Y237181D01*
X-23984Y237178D01*
X-24003Y237180D01*
X-24105Y237158D01*
X-24207Y237141D01*
X-24224Y237132D01*
X-24244Y237127D01*
X-24333Y237074D01*
X-24424Y237026D01*
X-24438Y237012D01*
X-24455Y237001D01*
X-24522Y236923D01*
X-24594Y236848D01*
X-24602Y236830D01*
X-24615Y236814D01*
X-24654Y236718D01*
X-24697Y236625D01*
X-24699Y236605D01*
X-24707Y236586D01*
X-24725Y236420D01*
X-24725Y235106D01*
X-25618Y234213D01*
X-37882Y234213D01*
X-38775Y235106D01*
X-38775Y238620D01*
X-38789Y238710D01*
X-38797Y238801D01*
X-38797Y242680D01*
X-38793Y242689D01*
X-38789Y242730D01*
X-38782Y242752D01*
X-38783Y242784D01*
X-38775Y242855D01*
X-38775Y243727D01*
X-38789Y243817D01*
X-38797Y243908D01*
X-38809Y243938D01*
X-38814Y243970D01*
X-38857Y244050D01*
X-38893Y244134D01*
X-38919Y244166D01*
X-38930Y244187D01*
X-38953Y244209D01*
X-38998Y244265D01*
X-39261Y244528D01*
X-39280Y244542D01*
X-39377Y244623D01*
X-39816Y244916D01*
X-39817Y244929D01*
X-39859Y245027D01*
X-39897Y245127D01*
X-39907Y245140D01*
X-39914Y245155D01*
X-40006Y245270D01*
X-40006Y245798D01*
X-40010Y245822D01*
X-40021Y245948D01*
X-40124Y246466D01*
X-40116Y246475D01*
X-40076Y246575D01*
X-40032Y246672D01*
X-40030Y246688D01*
X-40024Y246703D01*
X-40008Y246850D01*
X-39634Y247223D01*
X-39620Y247243D01*
X-39539Y247339D01*
X-37673Y250139D01*
X-37645Y250201D01*
X-37608Y250258D01*
X-37594Y250312D01*
X-37571Y250363D01*
X-37564Y250431D01*
X-37548Y250497D01*
X-37552Y250552D01*
X-37546Y250607D01*
X-37562Y250674D01*
X-37567Y250742D01*
X-37589Y250793D01*
X-37601Y250847D01*
X-37637Y250906D01*
X-37663Y250968D01*
X-37712Y251029D01*
X-37729Y251057D01*
X-37745Y251071D01*
X-37768Y251099D01*
X-38595Y251926D01*
X-38669Y251979D01*
X-38738Y252038D01*
X-38768Y252051D01*
X-38794Y252069D01*
X-38881Y252096D01*
X-38966Y252130D01*
X-39007Y252135D01*
X-39029Y252142D01*
X-39062Y252141D01*
X-39133Y252149D01*
X-57003Y252149D01*
X-57117Y252130D01*
X-57233Y252113D01*
X-57239Y252110D01*
X-57245Y252109D01*
X-57348Y252055D01*
X-57453Y252001D01*
X-57457Y251997D01*
X-57463Y251994D01*
X-57542Y251910D01*
X-57625Y251826D01*
X-57629Y251819D01*
X-57632Y251816D01*
X-57640Y251799D01*
X-57706Y251679D01*
X-58897Y248803D01*
X-61478Y246222D01*
X-64850Y244825D01*
X-68500Y244825D01*
X-71872Y246222D01*
X-74453Y248803D01*
X-75850Y252175D01*
X-75850Y255825D01*
X-74453Y259197D01*
X-71872Y261778D01*
X-68500Y263175D01*
X-64805Y263175D01*
X-64748Y263156D01*
X-64716Y263156D01*
X-64684Y263149D01*
X-64594Y263158D01*
X-64502Y263159D01*
X-64463Y263170D01*
X-64440Y263172D01*
X-64410Y263185D01*
X-64341Y263205D01*
X-64049Y263326D01*
X-39133Y263326D01*
X-39043Y263341D01*
X-38952Y263348D01*
X-38922Y263361D01*
X-38890Y263366D01*
X-38809Y263409D01*
X-38726Y263444D01*
X-38693Y263470D01*
X-38673Y263481D01*
X-38651Y263504D01*
X-38595Y263549D01*
X-37882Y264262D01*
X-28665Y264262D01*
X-28622Y264269D01*
X-28579Y264267D01*
X-28501Y264289D01*
X-28422Y264302D01*
X-28384Y264322D01*
X-28342Y264334D01*
X-28276Y264379D01*
X-28205Y264417D01*
X-28175Y264448D01*
X-28139Y264473D01*
X-28044Y264587D01*
X-28035Y264595D01*
X-28034Y264598D01*
X-28031Y264601D01*
X-20828Y275407D01*
X-20821Y275422D01*
X-20810Y275434D01*
X-20770Y275534D01*
X-20726Y275631D01*
X-20724Y275647D01*
X-20718Y275662D01*
X-20700Y275829D01*
X-20700Y284357D01*
X-19807Y285250D01*
X-14673Y285250D01*
X-14630Y285257D01*
X-14587Y285255D01*
X-14510Y285276D01*
X-14430Y285289D01*
X-14392Y285310D01*
X-14350Y285321D01*
X-14284Y285367D01*
X-14213Y285405D01*
X-14183Y285436D01*
X-14147Y285460D01*
X-14052Y285574D01*
X-14043Y285583D01*
X-14042Y285586D01*
X-14040Y285589D01*
X-13846Y285879D01*
X-13834Y285880D01*
X-13735Y285922D01*
X-13635Y285959D01*
X-13623Y285970D01*
X-13607Y285976D01*
X-13493Y286068D01*
X-12964Y286068D01*
X-12941Y286072D01*
X-12815Y286083D01*
X-12297Y286187D01*
X-12287Y286179D01*
X-12188Y286139D01*
X-12091Y286095D01*
X-12075Y286093D01*
X-12059Y286087D01*
X-11893Y286068D01*
X-3973Y286068D01*
X-2857Y284952D01*
X-2857Y267498D01*
X-3973Y266382D01*
X-10033Y266382D01*
X-10053Y266379D01*
X-10072Y266381D01*
X-10174Y266359D01*
X-10276Y266342D01*
X-10293Y266333D01*
X-10313Y266328D01*
X-10402Y266275D01*
X-10493Y266227D01*
X-10507Y266213D01*
X-10524Y266202D01*
X-10591Y266124D01*
X-10663Y266049D01*
X-10671Y266031D01*
X-10684Y266015D01*
X-10723Y265919D01*
X-10766Y265826D01*
X-10768Y265806D01*
X-10776Y265787D01*
X-10794Y265621D01*
X-10794Y245273D01*
X-12092Y243975D01*
X-12104Y243959D01*
X-12119Y243946D01*
X-12176Y243859D01*
X-12236Y243775D01*
X-12242Y243756D01*
X-12252Y243740D01*
X-12278Y243639D01*
X-12308Y243540D01*
X-12308Y243520D01*
X-12313Y243501D01*
X-12304Y243398D01*
X-12302Y243294D01*
X-12295Y243276D01*
X-12293Y243256D01*
X-12253Y243161D01*
X-12217Y243063D01*
X-12205Y243048D01*
X-12197Y243029D01*
X-12092Y242899D01*
X-11563Y242369D01*
X-11563Y238621D01*
X-11548Y238531D01*
X-11541Y238440D01*
X-11528Y238410D01*
X-11523Y238378D01*
X-11480Y238298D01*
X-11445Y238214D01*
X-11419Y238182D01*
X-11408Y238161D01*
X-11385Y238139D01*
X-11340Y238083D01*
X-10337Y237080D01*
X-10337Y211157D01*
X-10322Y211066D01*
X-10315Y210976D01*
X-10302Y210946D01*
X-10297Y210914D01*
X-10254Y210833D01*
X-10219Y210749D01*
X-10193Y210717D01*
X-10182Y210696D01*
X-10159Y210674D01*
X-10114Y210618D01*
X-7487Y207992D01*
X-7471Y207980D01*
X-7459Y207965D01*
X-7371Y207909D01*
X-7288Y207848D01*
X-7269Y207843D01*
X-7252Y207832D01*
X-7151Y207806D01*
X-7053Y207776D01*
X-7033Y207777D01*
X-7013Y207772D01*
X-6910Y207780D01*
X-6807Y207782D01*
X-6788Y207789D01*
X-6768Y207791D01*
X-6673Y207831D01*
X-6576Y207867D01*
X-6560Y207879D01*
X-6542Y207887D01*
X-6411Y207992D01*
X-3729Y210674D01*
X-168Y210674D01*
X1049Y209457D01*
X1065Y209445D01*
X1078Y209429D01*
X1165Y209373D01*
X1249Y209313D01*
X1268Y209307D01*
X1285Y209296D01*
X1385Y209271D01*
X1484Y209241D01*
X1504Y209241D01*
X1523Y209236D01*
X1626Y209244D01*
X1730Y209247D01*
X1749Y209254D01*
X1769Y209255D01*
X1864Y209296D01*
X1961Y209332D01*
X1977Y209344D01*
X1995Y209352D01*
X2126Y209457D01*
X2360Y209691D01*
X2413Y209765D01*
X2472Y209834D01*
X2485Y209864D01*
X2503Y209890D01*
X2530Y209977D01*
X2564Y210062D01*
X2569Y210103D01*
X2576Y210126D01*
X2575Y210158D01*
X2583Y210229D01*
X2583Y210910D01*
X2568Y211000D01*
X2561Y211091D01*
X2548Y211120D01*
X2543Y211152D01*
X2500Y211233D01*
X2465Y211317D01*
X2439Y211349D01*
X2428Y211370D01*
X2405Y211392D01*
X2360Y211448D01*
X-278Y214086D01*
X-1989Y215797D01*
X-1989Y218898D01*
X-2004Y218988D01*
X-2011Y219079D01*
X-2024Y219108D01*
X-2029Y219140D01*
X-2072Y219221D01*
X-2107Y219305D01*
X-2133Y219337D01*
X-2144Y219358D01*
X-2167Y219380D01*
X-2212Y219436D01*
X-3747Y220971D01*
X-3747Y224532D01*
X-1229Y227050D01*
X2332Y227050D01*
X3549Y225833D01*
X3565Y225821D01*
X3578Y225806D01*
X3665Y225750D01*
X3749Y225690D01*
X3768Y225684D01*
X3785Y225673D01*
X3885Y225648D01*
X3984Y225617D01*
X4004Y225618D01*
X4023Y225613D01*
X4126Y225621D01*
X4230Y225624D01*
X4249Y225630D01*
X4268Y225632D01*
X4363Y225672D01*
X4461Y225708D01*
X4477Y225721D01*
X4495Y225728D01*
X4626Y225833D01*
X5843Y227050D01*
X9404Y227050D01*
X11922Y224532D01*
X11922Y222361D01*
X11937Y222271D01*
X11944Y222180D01*
X11957Y222150D01*
X11962Y222118D01*
X12005Y222038D01*
X12040Y221954D01*
X12066Y221922D01*
X12077Y221901D01*
X12100Y221879D01*
X12145Y221823D01*
X12978Y220990D01*
X12978Y203121D01*
X11267Y201410D01*
X11202Y201345D01*
X11160Y201287D01*
X11111Y201235D01*
X11089Y201188D01*
X11059Y201146D01*
X11038Y201077D01*
X11007Y201012D01*
X11002Y200960D01*
X10986Y200911D01*
X10988Y200839D01*
X10980Y200768D01*
X10991Y200717D01*
X10993Y200665D01*
X11017Y200597D01*
X11032Y200527D01*
X11059Y200482D01*
X11077Y200434D01*
X11122Y200378D01*
X11159Y200316D01*
X11198Y200282D01*
X11231Y200242D01*
X11291Y200203D01*
X11346Y200156D01*
X11394Y200137D01*
X11438Y200109D01*
X11507Y200091D01*
X11574Y200064D01*
X11645Y200056D01*
X11676Y200048D01*
X11699Y200050D01*
X11740Y200046D01*
X12912Y200046D01*
X28460Y184497D01*
X28460Y125063D01*
X28475Y124973D01*
X28482Y124882D01*
X28495Y124853D01*
X28500Y124821D01*
X28543Y124740D01*
X28578Y124656D01*
X28604Y124624D01*
X28615Y124603D01*
X28638Y124581D01*
X28683Y124525D01*
X28714Y124494D01*
X28714Y118375D01*
X28717Y118356D01*
X28715Y118336D01*
X28737Y118235D01*
X28754Y118133D01*
X28763Y118115D01*
X28768Y118096D01*
X28821Y118007D01*
X28869Y117915D01*
X28883Y117902D01*
X28894Y117885D01*
X28972Y117817D01*
X29047Y117746D01*
X29065Y117738D01*
X29081Y117725D01*
X29177Y117686D01*
X29270Y117642D01*
X29290Y117640D01*
X29309Y117633D01*
X29475Y117614D01*
X35594Y117614D01*
X36487Y116721D01*
X36487Y112918D01*
X36427Y112857D01*
X36415Y112841D01*
X36399Y112829D01*
X36343Y112742D01*
X36283Y112658D01*
X36277Y112639D01*
X36266Y112622D01*
X36241Y112521D01*
X36211Y112423D01*
X36211Y112403D01*
X36206Y112383D01*
X36214Y112280D01*
X36217Y112177D01*
X36224Y112158D01*
X36225Y112138D01*
X36266Y112043D01*
X36301Y111946D01*
X36314Y111930D01*
X36322Y111912D01*
X36427Y111781D01*
X36487Y111720D01*
X36487Y107917D01*
X36426Y107856D01*
X36414Y107840D01*
X36399Y107827D01*
X36343Y107740D01*
X36283Y107656D01*
X36277Y107637D01*
X36266Y107620D01*
X36241Y107520D01*
X36210Y107421D01*
X36211Y107401D01*
X36206Y107382D01*
X36214Y107279D01*
X36217Y107175D01*
X36223Y107156D01*
X36225Y107137D01*
X36265Y107041D01*
X36301Y106944D01*
X36313Y106928D01*
X36321Y106910D01*
X36426Y106779D01*
X36487Y106718D01*
X36487Y102915D01*
X36427Y102854D01*
X36415Y102838D01*
X36399Y102826D01*
X36343Y102739D01*
X36283Y102655D01*
X36277Y102636D01*
X36266Y102619D01*
X36241Y102518D01*
X36211Y102420D01*
X36211Y102400D01*
X36206Y102380D01*
X36214Y102277D01*
X36217Y102174D01*
X36224Y102155D01*
X36225Y102135D01*
X36266Y102040D01*
X36301Y101943D01*
X36314Y101927D01*
X36322Y101909D01*
X36427Y101778D01*
X36487Y101717D01*
X36487Y99808D01*
X36502Y99718D01*
X36509Y99627D01*
X36522Y99598D01*
X36527Y99566D01*
X36570Y99485D01*
X36605Y99401D01*
X36631Y99369D01*
X36642Y99348D01*
X36665Y99326D01*
X36710Y99270D01*
X38148Y97832D01*
X38222Y97779D01*
X38292Y97720D01*
X38322Y97707D01*
X38348Y97689D01*
X38435Y97662D01*
X38520Y97628D01*
X38561Y97623D01*
X38583Y97616D01*
X38615Y97617D01*
X38686Y97609D01*
X38830Y97609D01*
X38921Y97624D01*
X39011Y97631D01*
X39041Y97644D01*
X39073Y97649D01*
X39154Y97692D01*
X39238Y97727D01*
X39270Y97753D01*
X39291Y97764D01*
X39313Y97787D01*
X39369Y97832D01*
X40614Y99078D01*
X40626Y99094D01*
X40642Y99106D01*
X40698Y99194D01*
X40758Y99278D01*
X40764Y99297D01*
X40775Y99313D01*
X40800Y99414D01*
X40830Y99513D01*
X40830Y99533D01*
X40835Y99552D01*
X40827Y99655D01*
X40824Y99759D01*
X40817Y99777D01*
X40815Y99797D01*
X40775Y99892D01*
X40739Y99990D01*
X40727Y100005D01*
X40719Y100023D01*
X40614Y100154D01*
X40038Y100731D01*
X40038Y117214D01*
X40035Y117234D01*
X40037Y117253D01*
X40015Y117355D01*
X39998Y117457D01*
X39989Y117474D01*
X39984Y117494D01*
X39931Y117583D01*
X39883Y117674D01*
X39869Y117688D01*
X39858Y117705D01*
X39780Y117772D01*
X39705Y117844D01*
X39687Y117852D01*
X39671Y117865D01*
X39575Y117904D01*
X39482Y117947D01*
X39462Y117949D01*
X39443Y117957D01*
X39277Y117975D01*
X38931Y117975D01*
X38038Y118868D01*
X38038Y149419D01*
X38790Y150171D01*
X38843Y150245D01*
X38902Y150315D01*
X38915Y150345D01*
X38933Y150371D01*
X38960Y150458D01*
X38994Y150543D01*
X38999Y150584D01*
X39006Y150606D01*
X39005Y150638D01*
X39013Y150709D01*
X39013Y159057D01*
X39906Y159950D01*
X52169Y159950D01*
X53062Y159057D01*
X53062Y150759D01*
X53077Y150669D01*
X53084Y150578D01*
X53097Y150549D01*
X53102Y150517D01*
X53145Y150436D01*
X53180Y150352D01*
X53206Y150320D01*
X53217Y150299D01*
X53240Y150277D01*
X53285Y150221D01*
X54087Y149419D01*
X54087Y100731D01*
X53194Y99838D01*
X49594Y99838D01*
X49504Y99823D01*
X49413Y99816D01*
X49383Y99803D01*
X49352Y99798D01*
X49271Y99755D01*
X49187Y99720D01*
X49155Y99694D01*
X49134Y99683D01*
X49112Y99660D01*
X49056Y99615D01*
X48117Y98676D01*
X48075Y98617D01*
X48026Y98565D01*
X48004Y98518D01*
X47973Y98476D01*
X47952Y98407D01*
X47922Y98342D01*
X47916Y98291D01*
X47901Y98241D01*
X47903Y98169D01*
X47895Y98098D01*
X47906Y98047D01*
X47907Y97995D01*
X47932Y97928D01*
X47947Y97858D01*
X47974Y97813D01*
X47992Y97764D01*
X48037Y97708D01*
X48073Y97646D01*
X48113Y97613D01*
X48146Y97572D01*
X48206Y97533D01*
X48260Y97487D01*
X48309Y97467D01*
X48352Y97439D01*
X48422Y97421D01*
X48488Y97395D01*
X48560Y97387D01*
X48591Y97379D01*
X48614Y97381D01*
X48655Y97376D01*
X58852Y97376D01*
X58942Y97391D01*
X59033Y97398D01*
X59063Y97411D01*
X59095Y97416D01*
X59176Y97459D01*
X59259Y97494D01*
X59292Y97520D01*
X59312Y97531D01*
X59334Y97554D01*
X59390Y97599D01*
X60329Y98538D01*
X60371Y98596D01*
X60421Y98648D01*
X60443Y98696D01*
X60473Y98738D01*
X60494Y98806D01*
X60524Y98872D01*
X60530Y98923D01*
X60545Y98973D01*
X60543Y99045D01*
X60551Y99116D01*
X60540Y99167D01*
X60539Y99219D01*
X60514Y99286D01*
X60499Y99356D01*
X60472Y99401D01*
X60455Y99450D01*
X60410Y99506D01*
X60373Y99567D01*
X60333Y99601D01*
X60301Y99642D01*
X60241Y99681D01*
X60186Y99727D01*
X60138Y99747D01*
X60094Y99775D01*
X60024Y99792D01*
X59958Y99819D01*
X59887Y99827D01*
X59855Y99835D01*
X59832Y99833D01*
X59791Y99838D01*
X57931Y99838D01*
X57038Y100731D01*
X57038Y149419D01*
X57840Y150221D01*
X57893Y150295D01*
X57952Y150364D01*
X57964Y150395D01*
X57983Y150421D01*
X58010Y150508D01*
X58044Y150593D01*
X58049Y150634D01*
X58056Y150656D01*
X58055Y150688D01*
X58063Y150759D01*
X58063Y159057D01*
X58956Y159950D01*
X71219Y159950D01*
X72112Y159057D01*
X72112Y150709D01*
X72127Y150619D01*
X72134Y150528D01*
X72147Y150499D01*
X72152Y150467D01*
X72195Y150386D01*
X72230Y150302D01*
X72256Y150270D01*
X72267Y150249D01*
X72290Y150227D01*
X72335Y150171D01*
X73087Y149419D01*
X73087Y118868D01*
X72194Y117975D01*
X71848Y117975D01*
X71829Y117972D01*
X71809Y117974D01*
X71708Y117952D01*
X71606Y117936D01*
X71588Y117926D01*
X71569Y117922D01*
X71480Y117869D01*
X71388Y117820D01*
X71375Y117806D01*
X71358Y117796D01*
X71290Y117717D01*
X71219Y117642D01*
X71211Y117624D01*
X71198Y117609D01*
X71159Y117513D01*
X71115Y117419D01*
X71113Y117399D01*
X71106Y117381D01*
X71087Y117214D01*
X71087Y100731D01*
X70194Y99838D01*
X67618Y99838D01*
X67599Y99835D01*
X67579Y99837D01*
X67478Y99815D01*
X67376Y99798D01*
X67358Y99789D01*
X67339Y99784D01*
X67250Y99731D01*
X67158Y99683D01*
X67145Y99669D01*
X67128Y99658D01*
X67060Y99580D01*
X66989Y99505D01*
X66981Y99487D01*
X66968Y99471D01*
X66929Y99375D01*
X66885Y99282D01*
X66883Y99262D01*
X66876Y99243D01*
X66857Y99077D01*
X66857Y97161D01*
X64997Y95301D01*
X63343Y93647D01*
X62723Y93027D01*
X62670Y92953D01*
X62610Y92883D01*
X62598Y92853D01*
X62579Y92827D01*
X62552Y92740D01*
X62518Y92655D01*
X62514Y92614D01*
X62507Y92592D01*
X62508Y92560D01*
X62500Y92488D01*
X62500Y87156D01*
X61607Y86263D01*
X48896Y86263D01*
X48806Y86248D01*
X48715Y86241D01*
X48685Y86228D01*
X48653Y86223D01*
X48573Y86180D01*
X48489Y86145D01*
X48457Y86119D01*
X48436Y86108D01*
X48414Y86085D01*
X48358Y86040D01*
X40968Y78650D01*
X40926Y78592D01*
X40877Y78540D01*
X40855Y78492D01*
X40824Y78450D01*
X40803Y78382D01*
X40773Y78316D01*
X40767Y78265D01*
X40752Y78215D01*
X40754Y78143D01*
X40746Y78072D01*
X40757Y78021D01*
X40758Y77969D01*
X40783Y77902D01*
X40798Y77832D01*
X40825Y77787D01*
X40843Y77738D01*
X40888Y77682D01*
X40924Y77621D01*
X40964Y77587D01*
X40997Y77546D01*
X41057Y77507D01*
X41111Y77461D01*
X41160Y77441D01*
X41203Y77413D01*
X41273Y77396D01*
X41339Y77369D01*
X41411Y77361D01*
X41442Y77353D01*
X41465Y77355D01*
X41506Y77350D01*
X42733Y77350D01*
X50548Y69535D01*
X50622Y69482D01*
X50691Y69423D01*
X50722Y69411D01*
X50748Y69392D01*
X50835Y69365D01*
X50920Y69331D01*
X50961Y69326D01*
X50983Y69319D01*
X51015Y69320D01*
X51086Y69312D01*
X61607Y69312D01*
X62500Y68419D01*
X62500Y64008D01*
X62503Y63988D01*
X62501Y63969D01*
X62523Y63867D01*
X62539Y63765D01*
X62549Y63748D01*
X62553Y63728D01*
X62606Y63639D01*
X62655Y63548D01*
X62669Y63534D01*
X62679Y63517D01*
X62758Y63450D01*
X62833Y63378D01*
X62851Y63370D01*
X62866Y63357D01*
X62962Y63318D01*
X63056Y63275D01*
X63076Y63273D01*
X63094Y63265D01*
X63261Y63247D01*
X79595Y63247D01*
X79685Y63261D01*
G37*
G36*
X-102580Y87076D02*
X-102580Y87076D01*
X-102504Y87073D01*
X-102458Y87086D01*
X-102410Y87089D01*
X-102340Y87119D01*
X-102268Y87140D01*
X-102228Y87167D01*
X-102184Y87186D01*
X-102083Y87266D01*
X-102065Y87279D01*
X-102061Y87284D01*
X-102053Y87291D01*
X-101513Y87830D01*
X-49545Y87830D01*
X-49454Y87845D01*
X-49364Y87852D01*
X-49334Y87865D01*
X-49302Y87870D01*
X-49221Y87913D01*
X-49137Y87948D01*
X-49105Y87974D01*
X-49084Y87985D01*
X-49062Y88008D01*
X-49006Y88053D01*
X-43818Y93241D01*
X-43807Y93257D01*
X-43791Y93270D01*
X-43735Y93357D01*
X-43675Y93441D01*
X-43669Y93460D01*
X-43658Y93477D01*
X-43633Y93577D01*
X-43603Y93676D01*
X-43603Y93696D01*
X-43598Y93715D01*
X-43606Y93818D01*
X-43609Y93922D01*
X-43616Y93940D01*
X-43617Y93960D01*
X-43658Y94055D01*
X-43693Y94153D01*
X-43706Y94168D01*
X-43714Y94187D01*
X-43818Y94318D01*
X-46500Y96999D01*
X-46500Y100561D01*
X-45283Y101778D01*
X-45271Y101794D01*
X-45256Y101806D01*
X-45200Y101894D01*
X-45140Y101977D01*
X-45134Y101996D01*
X-45123Y102013D01*
X-45098Y102114D01*
X-45067Y102213D01*
X-45068Y102232D01*
X-45063Y102252D01*
X-45071Y102355D01*
X-45074Y102458D01*
X-45080Y102477D01*
X-45082Y102497D01*
X-45122Y102592D01*
X-45158Y102689D01*
X-45171Y102705D01*
X-45178Y102723D01*
X-45283Y102854D01*
X-46500Y104071D01*
X-46500Y107864D01*
X-46503Y107884D01*
X-46501Y107903D01*
X-46523Y108005D01*
X-46540Y108107D01*
X-46549Y108124D01*
X-46554Y108144D01*
X-46607Y108233D01*
X-46655Y108324D01*
X-46669Y108338D01*
X-46680Y108355D01*
X-46758Y108422D01*
X-46833Y108494D01*
X-46851Y108502D01*
X-46867Y108515D01*
X-46963Y108554D01*
X-47056Y108597D01*
X-47076Y108599D01*
X-47095Y108607D01*
X-47261Y108625D01*
X-84949Y108625D01*
X-85063Y108607D01*
X-85180Y108589D01*
X-85185Y108587D01*
X-85191Y108586D01*
X-85294Y108531D01*
X-85399Y108478D01*
X-85403Y108473D01*
X-85409Y108470D01*
X-85489Y108386D01*
X-85571Y108302D01*
X-85575Y108296D01*
X-85578Y108292D01*
X-85586Y108275D01*
X-85652Y108155D01*
X-85910Y107532D01*
X-88482Y104960D01*
X-91844Y103568D01*
X-95481Y103568D01*
X-98843Y104960D01*
X-101415Y107532D01*
X-102807Y110894D01*
X-102807Y114531D01*
X-101415Y117893D01*
X-98843Y120465D01*
X-95481Y121857D01*
X-91844Y121857D01*
X-88482Y120465D01*
X-85910Y117893D01*
X-84518Y114531D01*
X-84518Y114468D01*
X-84515Y114448D01*
X-84517Y114429D01*
X-84495Y114327D01*
X-84478Y114225D01*
X-84469Y114208D01*
X-84464Y114188D01*
X-84411Y114099D01*
X-84363Y114008D01*
X-84349Y113994D01*
X-84338Y113977D01*
X-84260Y113910D01*
X-84185Y113838D01*
X-84167Y113830D01*
X-84151Y113817D01*
X-84055Y113778D01*
X-83962Y113735D01*
X-83942Y113733D01*
X-83923Y113725D01*
X-83757Y113707D01*
X-74688Y113707D01*
X-74617Y113718D01*
X-74545Y113720D01*
X-74496Y113738D01*
X-74445Y113746D01*
X-74382Y113780D01*
X-74314Y113805D01*
X-74273Y113837D01*
X-74228Y113862D01*
X-74178Y113913D01*
X-74122Y113958D01*
X-74094Y114002D01*
X-74058Y114040D01*
X-74028Y114105D01*
X-73989Y114165D01*
X-73976Y114216D01*
X-73955Y114263D01*
X-73947Y114334D01*
X-73929Y114404D01*
X-73933Y114456D01*
X-73927Y114507D01*
X-73943Y114578D01*
X-73948Y114649D01*
X-73969Y114697D01*
X-73980Y114748D01*
X-74017Y114809D01*
X-74045Y114875D01*
X-74089Y114931D01*
X-74106Y114959D01*
X-74124Y114974D01*
X-74149Y115006D01*
X-88844Y129701D01*
X-88938Y129769D01*
X-89033Y129839D01*
X-89039Y129841D01*
X-89044Y129845D01*
X-89155Y129879D01*
X-89267Y129915D01*
X-89273Y129915D01*
X-89279Y129917D01*
X-89396Y129914D01*
X-89513Y129913D01*
X-89520Y129911D01*
X-89525Y129911D01*
X-89543Y129904D01*
X-89674Y129866D01*
X-91844Y128968D01*
X-95481Y128968D01*
X-98843Y130360D01*
X-101415Y132932D01*
X-102807Y136294D01*
X-102807Y139931D01*
X-101646Y142735D01*
X-101635Y142780D01*
X-101616Y142822D01*
X-101608Y142899D01*
X-101590Y142975D01*
X-101594Y143020D01*
X-101589Y143066D01*
X-101606Y143142D01*
X-101613Y143220D01*
X-101631Y143261D01*
X-101641Y143306D01*
X-101681Y143373D01*
X-101713Y143444D01*
X-101744Y143478D01*
X-101767Y143517D01*
X-101827Y143568D01*
X-101879Y143625D01*
X-101919Y143648D01*
X-101954Y143677D01*
X-102027Y143706D01*
X-102095Y143744D01*
X-102140Y143752D01*
X-102182Y143769D01*
X-102318Y143784D01*
X-102337Y143788D01*
X-102342Y143787D01*
X-102349Y143788D01*
X-105082Y143788D01*
X-105975Y144681D01*
X-105975Y156944D01*
X-105082Y157837D01*
X-102349Y157837D01*
X-102304Y157845D01*
X-102258Y157843D01*
X-102183Y157864D01*
X-102106Y157877D01*
X-102066Y157898D01*
X-102022Y157911D01*
X-101958Y157956D01*
X-101889Y157992D01*
X-101858Y158025D01*
X-101820Y158051D01*
X-101773Y158114D01*
X-101720Y158170D01*
X-101700Y158212D01*
X-101673Y158249D01*
X-101649Y158323D01*
X-101616Y158393D01*
X-101611Y158439D01*
X-101597Y158483D01*
X-101598Y158561D01*
X-101589Y158638D01*
X-101599Y158683D01*
X-101599Y158729D01*
X-101637Y158860D01*
X-101641Y158878D01*
X-101644Y158883D01*
X-101646Y158890D01*
X-102807Y161694D01*
X-102807Y165331D01*
X-101415Y168693D01*
X-98843Y171265D01*
X-95481Y172657D01*
X-91844Y172657D01*
X-88482Y171265D01*
X-85910Y168693D01*
X-84518Y165331D01*
X-84518Y161694D01*
X-85910Y158332D01*
X-88482Y155760D01*
X-91872Y154356D01*
X-91928Y154321D01*
X-91988Y154296D01*
X-92053Y154244D01*
X-92081Y154226D01*
X-92094Y154211D01*
X-92119Y154191D01*
X-92702Y153608D01*
X-92755Y153534D01*
X-92815Y153464D01*
X-92827Y153434D01*
X-92846Y153408D01*
X-92873Y153321D01*
X-92907Y153236D01*
X-92911Y153195D01*
X-92918Y153173D01*
X-92917Y153141D01*
X-92925Y153070D01*
X-92925Y148555D01*
X-92911Y148465D01*
X-92903Y148374D01*
X-92891Y148345D01*
X-92886Y148313D01*
X-92843Y148232D01*
X-92807Y148148D01*
X-92781Y148116D01*
X-92770Y148095D01*
X-92747Y148073D01*
X-92702Y148017D01*
X-92119Y147434D01*
X-92066Y147396D01*
X-92019Y147350D01*
X-91946Y147310D01*
X-91920Y147291D01*
X-91901Y147285D01*
X-91872Y147269D01*
X-88482Y145865D01*
X-85910Y143293D01*
X-84518Y139931D01*
X-84518Y136294D01*
X-85416Y134124D01*
X-85443Y134011D01*
X-85472Y133897D01*
X-85471Y133891D01*
X-85473Y133885D01*
X-85462Y133768D01*
X-85452Y133652D01*
X-85450Y133646D01*
X-85449Y133640D01*
X-85402Y133532D01*
X-85356Y133425D01*
X-85352Y133420D01*
X-85349Y133415D01*
X-85337Y133401D01*
X-85251Y133294D01*
X-69540Y117583D01*
X-69466Y117530D01*
X-69397Y117471D01*
X-69366Y117458D01*
X-69340Y117440D01*
X-69253Y117413D01*
X-69168Y117379D01*
X-69128Y117374D01*
X-69105Y117367D01*
X-69073Y117368D01*
X-69002Y117360D01*
X-39338Y117360D01*
X-39248Y117375D01*
X-39157Y117382D01*
X-39128Y117395D01*
X-39096Y117400D01*
X-39015Y117443D01*
X-38931Y117478D01*
X-38899Y117504D01*
X-38878Y117515D01*
X-38856Y117538D01*
X-38800Y117583D01*
X-38769Y117614D01*
X-32650Y117614D01*
X-32631Y117617D01*
X-32611Y117615D01*
X-32510Y117637D01*
X-32408Y117654D01*
X-32390Y117663D01*
X-32371Y117668D01*
X-32282Y117721D01*
X-32190Y117769D01*
X-32177Y117783D01*
X-32160Y117794D01*
X-32092Y117872D01*
X-32021Y117947D01*
X-32013Y117965D01*
X-32000Y117981D01*
X-31961Y118077D01*
X-31917Y118170D01*
X-31915Y118190D01*
X-31908Y118209D01*
X-31889Y118375D01*
X-31889Y124494D01*
X-30996Y125387D01*
X-27193Y125387D01*
X-27132Y125327D01*
X-27116Y125315D01*
X-27104Y125299D01*
X-27017Y125243D01*
X-26933Y125183D01*
X-26914Y125177D01*
X-26897Y125166D01*
X-26796Y125141D01*
X-26698Y125111D01*
X-26678Y125111D01*
X-26658Y125106D01*
X-26555Y125114D01*
X-26452Y125117D01*
X-26433Y125124D01*
X-26413Y125125D01*
X-26318Y125166D01*
X-26221Y125201D01*
X-26205Y125214D01*
X-26187Y125222D01*
X-26056Y125327D01*
X-25995Y125387D01*
X-22192Y125387D01*
X-22131Y125326D01*
X-22115Y125314D01*
X-22102Y125299D01*
X-22015Y125243D01*
X-21931Y125183D01*
X-21912Y125177D01*
X-21895Y125166D01*
X-21795Y125141D01*
X-21696Y125110D01*
X-21676Y125111D01*
X-21657Y125106D01*
X-21554Y125114D01*
X-21450Y125117D01*
X-21431Y125123D01*
X-21412Y125125D01*
X-21316Y125165D01*
X-21219Y125201D01*
X-21203Y125213D01*
X-21185Y125221D01*
X-21054Y125326D01*
X-20993Y125387D01*
X-18038Y125387D01*
X-17967Y125399D01*
X-17896Y125401D01*
X-17847Y125419D01*
X-17795Y125427D01*
X-17732Y125460D01*
X-17665Y125485D01*
X-17624Y125518D01*
X-17578Y125542D01*
X-17529Y125594D01*
X-17473Y125639D01*
X-17444Y125683D01*
X-17409Y125720D01*
X-17378Y125785D01*
X-17340Y125846D01*
X-17327Y125896D01*
X-17305Y125943D01*
X-17297Y126015D01*
X-17280Y126084D01*
X-17284Y126136D01*
X-17278Y126188D01*
X-17293Y126258D01*
X-17299Y126329D01*
X-17319Y126377D01*
X-17330Y126428D01*
X-17367Y126490D01*
X-17395Y126556D01*
X-17440Y126612D01*
X-17456Y126639D01*
X-17474Y126655D01*
X-17500Y126687D01*
X-88074Y197261D01*
X-88148Y197314D01*
X-88218Y197374D01*
X-88248Y197386D01*
X-88274Y197405D01*
X-88361Y197432D01*
X-88446Y197466D01*
X-88487Y197470D01*
X-88509Y197477D01*
X-88541Y197476D01*
X-88613Y197484D01*
X-108259Y197484D01*
X-110896Y200121D01*
X-110897Y200122D01*
X-110898Y200124D01*
X-110997Y200194D01*
X-111096Y200265D01*
X-111097Y200265D01*
X-111098Y200266D01*
X-111217Y200302D01*
X-111331Y200337D01*
X-111332Y200337D01*
X-111334Y200338D01*
X-111456Y200334D01*
X-111577Y200331D01*
X-111578Y200330D01*
X-111579Y200330D01*
X-111691Y200289D01*
X-111808Y200247D01*
X-111809Y200246D01*
X-111810Y200245D01*
X-111904Y200170D01*
X-112000Y200093D01*
X-112000Y200092D01*
X-112002Y200091D01*
X-112099Y199954D01*
X-140335Y149343D01*
X-140357Y149282D01*
X-140388Y149226D01*
X-140393Y149197D01*
X-140397Y149188D01*
X-140400Y149162D01*
X-140418Y149111D01*
X-140420Y149047D01*
X-140431Y148984D01*
X-140422Y148925D01*
X-140424Y148865D01*
X-140405Y148804D01*
X-140395Y148741D01*
X-140360Y148662D01*
X-140351Y148631D01*
X-140340Y148615D01*
X-140327Y148587D01*
X-110190Y97080D01*
X-110172Y97059D01*
X-110161Y97034D01*
X-110051Y96907D01*
X-109385Y96289D01*
X-109356Y96269D01*
X-109332Y96244D01*
X-109254Y96202D01*
X-109180Y96153D01*
X-109147Y96144D01*
X-109116Y96127D01*
X-109039Y96110D01*
X-108637Y95606D01*
X-108613Y95584D01*
X-108560Y95523D01*
X-108091Y95087D01*
X-108070Y95018D01*
X-108053Y94931D01*
X-108035Y94901D01*
X-108025Y94868D01*
X-107936Y94726D01*
X-106562Y93002D01*
X-106537Y92979D01*
X-106517Y92950D01*
X-106446Y92897D01*
X-106380Y92837D01*
X-106348Y92823D01*
X-106320Y92802D01*
X-106246Y92774D01*
X-105925Y92216D01*
X-105904Y92191D01*
X-105861Y92122D01*
X-105462Y91621D01*
X-105452Y91550D01*
X-105447Y91461D01*
X-105435Y91429D01*
X-105430Y91395D01*
X-105362Y91241D01*
X-104261Y89332D01*
X-104239Y89305D01*
X-104224Y89274D01*
X-104161Y89210D01*
X-104105Y89142D01*
X-104076Y89123D01*
X-104052Y89098D01*
X-103983Y89059D01*
X-103748Y88460D01*
X-103731Y88431D01*
X-103698Y88357D01*
X-103340Y87736D01*
X-103340Y87735D01*
X-103339Y87686D01*
X-103313Y87615D01*
X-103296Y87542D01*
X-103271Y87501D01*
X-103254Y87455D01*
X-103207Y87396D01*
X-103168Y87332D01*
X-103131Y87301D01*
X-103100Y87263D01*
X-103037Y87223D01*
X-102979Y87174D01*
X-102934Y87156D01*
X-102894Y87130D01*
X-102820Y87112D01*
X-102750Y87084D01*
X-102702Y87082D01*
X-102655Y87070D01*
X-102580Y87076D01*
G37*
G36*
X18456Y57514D02*
X18456Y57514D01*
X18560Y57517D01*
X18579Y57523D01*
X18599Y57525D01*
X18694Y57565D01*
X18791Y57601D01*
X18807Y57613D01*
X18825Y57621D01*
X18956Y57726D01*
X19017Y57787D01*
X22820Y57787D01*
X22881Y57727D01*
X22897Y57715D01*
X22909Y57699D01*
X22997Y57643D01*
X23080Y57583D01*
X23099Y57577D01*
X23116Y57566D01*
X23217Y57541D01*
X23316Y57511D01*
X23336Y57511D01*
X23355Y57506D01*
X23458Y57514D01*
X23561Y57517D01*
X23580Y57524D01*
X23600Y57525D01*
X23695Y57566D01*
X23792Y57601D01*
X23808Y57614D01*
X23826Y57622D01*
X23957Y57727D01*
X24018Y57787D01*
X27177Y57787D01*
X27196Y57790D01*
X27216Y57788D01*
X27317Y57810D01*
X27419Y57827D01*
X27437Y57836D01*
X27456Y57841D01*
X27545Y57894D01*
X27637Y57942D01*
X27650Y57956D01*
X27667Y57967D01*
X27735Y58045D01*
X27806Y58120D01*
X27814Y58138D01*
X27827Y58154D01*
X27866Y58250D01*
X27910Y58343D01*
X27912Y58363D01*
X27919Y58382D01*
X27938Y58548D01*
X27938Y61707D01*
X27998Y61768D01*
X28010Y61784D01*
X28026Y61796D01*
X28082Y61884D01*
X28142Y61967D01*
X28148Y61986D01*
X28159Y62003D01*
X28184Y62104D01*
X28214Y62203D01*
X28214Y62223D01*
X28219Y62242D01*
X28211Y62345D01*
X28208Y62448D01*
X28201Y62467D01*
X28200Y62487D01*
X28159Y62582D01*
X28124Y62679D01*
X28111Y62695D01*
X28103Y62713D01*
X27998Y62844D01*
X27938Y62905D01*
X27938Y66708D01*
X27999Y66769D01*
X28011Y66785D01*
X28026Y66798D01*
X28082Y66885D01*
X28142Y66969D01*
X28148Y66988D01*
X28159Y67005D01*
X28184Y67105D01*
X28215Y67204D01*
X28214Y67224D01*
X28219Y67243D01*
X28211Y67346D01*
X28208Y67450D01*
X28202Y67469D01*
X28200Y67489D01*
X28160Y67584D01*
X28124Y67681D01*
X28112Y67697D01*
X28104Y67715D01*
X27999Y67846D01*
X27938Y67907D01*
X27938Y69914D01*
X27935Y69933D01*
X27937Y69953D01*
X27915Y70054D01*
X27898Y70156D01*
X27889Y70174D01*
X27884Y70193D01*
X27831Y70282D01*
X27783Y70374D01*
X27769Y70387D01*
X27758Y70404D01*
X27680Y70472D01*
X27605Y70543D01*
X27587Y70551D01*
X27571Y70564D01*
X27475Y70603D01*
X27382Y70647D01*
X27362Y70649D01*
X27343Y70656D01*
X27177Y70675D01*
X15559Y70675D01*
X15112Y71122D01*
X15112Y111441D01*
X15559Y111888D01*
X27177Y111888D01*
X27196Y111891D01*
X27216Y111889D01*
X27317Y111911D01*
X27419Y111927D01*
X27437Y111937D01*
X27456Y111941D01*
X27545Y111994D01*
X27637Y112043D01*
X27650Y112057D01*
X27667Y112067D01*
X27735Y112146D01*
X27806Y112221D01*
X27814Y112239D01*
X27827Y112254D01*
X27866Y112350D01*
X27910Y112444D01*
X27912Y112464D01*
X27919Y112482D01*
X27938Y112649D01*
X27938Y116077D01*
X27935Y116096D01*
X27937Y116116D01*
X27915Y116217D01*
X27898Y116319D01*
X27889Y116337D01*
X27884Y116356D01*
X27831Y116445D01*
X27783Y116537D01*
X27769Y116550D01*
X27758Y116567D01*
X27680Y116635D01*
X27605Y116706D01*
X27587Y116714D01*
X27571Y116727D01*
X27475Y116766D01*
X27382Y116810D01*
X27362Y116812D01*
X27343Y116819D01*
X27177Y116838D01*
X24018Y116838D01*
X23957Y116898D01*
X23941Y116910D01*
X23929Y116926D01*
X23841Y116982D01*
X23758Y117042D01*
X23739Y117048D01*
X23722Y117059D01*
X23621Y117084D01*
X23522Y117114D01*
X23502Y117114D01*
X23483Y117119D01*
X23380Y117111D01*
X23277Y117108D01*
X23258Y117101D01*
X23238Y117100D01*
X23143Y117059D01*
X23046Y117024D01*
X23030Y117011D01*
X23012Y117003D01*
X22881Y116898D01*
X22820Y116838D01*
X19017Y116838D01*
X18956Y116899D01*
X18940Y116911D01*
X18927Y116926D01*
X18840Y116982D01*
X18756Y117042D01*
X18737Y117048D01*
X18720Y117059D01*
X18620Y117084D01*
X18521Y117115D01*
X18501Y117114D01*
X18482Y117119D01*
X18379Y117111D01*
X18275Y117108D01*
X18256Y117102D01*
X18236Y117100D01*
X18141Y117060D01*
X18044Y117024D01*
X18028Y117012D01*
X18010Y117004D01*
X17879Y116899D01*
X17818Y116838D01*
X14015Y116838D01*
X13954Y116898D01*
X13938Y116910D01*
X13926Y116926D01*
X13838Y116982D01*
X13755Y117042D01*
X13736Y117048D01*
X13719Y117059D01*
X13618Y117084D01*
X13519Y117114D01*
X13499Y117114D01*
X13480Y117119D01*
X13377Y117111D01*
X13274Y117108D01*
X13255Y117101D01*
X13235Y117100D01*
X13140Y117059D01*
X13043Y117024D01*
X13027Y117011D01*
X13009Y117003D01*
X12878Y116898D01*
X12817Y116838D01*
X9014Y116838D01*
X8953Y116898D01*
X8937Y116910D01*
X8925Y116926D01*
X8837Y116982D01*
X8754Y117042D01*
X8735Y117048D01*
X8718Y117059D01*
X8617Y117084D01*
X8518Y117114D01*
X8498Y117114D01*
X8479Y117119D01*
X8376Y117111D01*
X8273Y117108D01*
X8254Y117101D01*
X8234Y117100D01*
X8139Y117059D01*
X8042Y117024D01*
X8026Y117011D01*
X8008Y117003D01*
X7877Y116898D01*
X7816Y116838D01*
X4013Y116838D01*
X3952Y116898D01*
X3936Y116910D01*
X3924Y116926D01*
X3836Y116982D01*
X3753Y117042D01*
X3734Y117048D01*
X3717Y117059D01*
X3616Y117084D01*
X3517Y117114D01*
X3497Y117114D01*
X3478Y117119D01*
X3375Y117111D01*
X3272Y117108D01*
X3253Y117101D01*
X3233Y117100D01*
X3138Y117059D01*
X3041Y117024D01*
X3025Y117011D01*
X3007Y117003D01*
X2876Y116898D01*
X2815Y116838D01*
X-988Y116838D01*
X-1049Y116899D01*
X-1065Y116911D01*
X-1078Y116926D01*
X-1165Y116982D01*
X-1249Y117042D01*
X-1268Y117048D01*
X-1285Y117059D01*
X-1385Y117084D01*
X-1484Y117115D01*
X-1504Y117114D01*
X-1523Y117119D01*
X-1626Y117111D01*
X-1730Y117108D01*
X-1749Y117102D01*
X-1769Y117100D01*
X-1864Y117060D01*
X-1961Y117024D01*
X-1977Y117012D01*
X-1995Y117004D01*
X-2126Y116899D01*
X-2187Y116838D01*
X-5990Y116838D01*
X-6051Y116898D01*
X-6067Y116910D01*
X-6079Y116926D01*
X-6167Y116982D01*
X-6250Y117042D01*
X-6269Y117048D01*
X-6286Y117059D01*
X-6387Y117084D01*
X-6486Y117114D01*
X-6506Y117114D01*
X-6525Y117119D01*
X-6628Y117111D01*
X-6731Y117108D01*
X-6750Y117101D01*
X-6770Y117100D01*
X-6865Y117059D01*
X-6962Y117024D01*
X-6978Y117011D01*
X-6996Y117003D01*
X-7127Y116898D01*
X-7188Y116838D01*
X-10991Y116838D01*
X-11052Y116898D01*
X-11068Y116910D01*
X-11080Y116926D01*
X-11168Y116982D01*
X-11251Y117042D01*
X-11270Y117048D01*
X-11287Y117059D01*
X-11388Y117084D01*
X-11487Y117114D01*
X-11507Y117114D01*
X-11526Y117119D01*
X-11629Y117111D01*
X-11732Y117108D01*
X-11751Y117101D01*
X-11771Y117100D01*
X-11866Y117059D01*
X-11963Y117024D01*
X-11979Y117011D01*
X-11997Y117003D01*
X-12128Y116898D01*
X-12189Y116838D01*
X-15992Y116838D01*
X-16053Y116898D01*
X-16069Y116910D01*
X-16081Y116926D01*
X-16169Y116982D01*
X-16252Y117042D01*
X-16271Y117048D01*
X-16288Y117059D01*
X-16389Y117084D01*
X-16488Y117114D01*
X-16508Y117114D01*
X-16527Y117119D01*
X-16630Y117111D01*
X-16733Y117108D01*
X-16752Y117101D01*
X-16772Y117100D01*
X-16867Y117059D01*
X-16964Y117024D01*
X-16980Y117011D01*
X-16998Y117003D01*
X-17129Y116898D01*
X-17190Y116838D01*
X-20993Y116838D01*
X-21054Y116899D01*
X-21070Y116911D01*
X-21083Y116926D01*
X-21170Y116982D01*
X-21254Y117042D01*
X-21273Y117048D01*
X-21290Y117059D01*
X-21390Y117084D01*
X-21489Y117115D01*
X-21509Y117114D01*
X-21528Y117119D01*
X-21631Y117111D01*
X-21735Y117108D01*
X-21754Y117102D01*
X-21774Y117100D01*
X-21869Y117060D01*
X-21966Y117024D01*
X-21982Y117012D01*
X-22000Y117004D01*
X-22131Y116899D01*
X-22192Y116838D01*
X-25995Y116838D01*
X-26056Y116898D01*
X-26072Y116910D01*
X-26084Y116926D01*
X-26172Y116982D01*
X-26255Y117042D01*
X-26274Y117048D01*
X-26291Y117059D01*
X-26392Y117084D01*
X-26491Y117114D01*
X-26511Y117114D01*
X-26530Y117119D01*
X-26633Y117111D01*
X-26736Y117108D01*
X-26755Y117101D01*
X-26775Y117100D01*
X-26870Y117059D01*
X-26967Y117024D01*
X-26983Y117011D01*
X-27001Y117003D01*
X-27132Y116898D01*
X-27193Y116838D01*
X-30352Y116838D01*
X-30371Y116835D01*
X-30391Y116837D01*
X-30492Y116815D01*
X-30594Y116798D01*
X-30612Y116789D01*
X-30631Y116784D01*
X-30720Y116731D01*
X-30812Y116683D01*
X-30825Y116669D01*
X-30842Y116658D01*
X-30910Y116580D01*
X-30981Y116505D01*
X-30989Y116487D01*
X-31002Y116471D01*
X-31041Y116375D01*
X-31085Y116282D01*
X-31087Y116262D01*
X-31094Y116243D01*
X-31113Y116077D01*
X-31113Y112918D01*
X-31173Y112857D01*
X-31185Y112841D01*
X-31201Y112829D01*
X-31257Y112741D01*
X-31317Y112658D01*
X-31323Y112639D01*
X-31334Y112622D01*
X-31359Y112521D01*
X-31389Y112422D01*
X-31389Y112402D01*
X-31394Y112383D01*
X-31386Y112280D01*
X-31383Y112177D01*
X-31376Y112158D01*
X-31375Y112138D01*
X-31334Y112043D01*
X-31299Y111946D01*
X-31286Y111930D01*
X-31278Y111912D01*
X-31173Y111781D01*
X-31113Y111720D01*
X-31113Y107917D01*
X-31174Y107856D01*
X-31186Y107840D01*
X-31201Y107827D01*
X-31257Y107740D01*
X-31317Y107656D01*
X-31323Y107637D01*
X-31334Y107620D01*
X-31359Y107520D01*
X-31390Y107421D01*
X-31389Y107401D01*
X-31394Y107382D01*
X-31386Y107279D01*
X-31383Y107175D01*
X-31377Y107156D01*
X-31375Y107136D01*
X-31335Y107041D01*
X-31299Y106944D01*
X-31287Y106928D01*
X-31279Y106910D01*
X-31174Y106779D01*
X-31113Y106718D01*
X-31113Y102915D01*
X-31173Y102854D01*
X-31185Y102838D01*
X-31201Y102826D01*
X-31257Y102738D01*
X-31317Y102655D01*
X-31323Y102636D01*
X-31334Y102619D01*
X-31359Y102518D01*
X-31389Y102419D01*
X-31389Y102399D01*
X-31394Y102380D01*
X-31386Y102277D01*
X-31383Y102174D01*
X-31376Y102155D01*
X-31375Y102135D01*
X-31334Y102040D01*
X-31299Y101943D01*
X-31286Y101927D01*
X-31278Y101909D01*
X-31173Y101778D01*
X-31113Y101717D01*
X-31113Y97914D01*
X-31173Y97853D01*
X-31185Y97837D01*
X-31201Y97825D01*
X-31257Y97737D01*
X-31317Y97654D01*
X-31323Y97635D01*
X-31334Y97618D01*
X-31359Y97517D01*
X-31389Y97418D01*
X-31389Y97398D01*
X-31394Y97379D01*
X-31386Y97276D01*
X-31383Y97173D01*
X-31376Y97154D01*
X-31375Y97134D01*
X-31334Y97039D01*
X-31299Y96942D01*
X-31286Y96926D01*
X-31278Y96908D01*
X-31173Y96777D01*
X-31113Y96716D01*
X-31113Y92913D01*
X-31173Y92852D01*
X-31185Y92836D01*
X-31201Y92824D01*
X-31257Y92736D01*
X-31317Y92653D01*
X-31323Y92634D01*
X-31334Y92617D01*
X-31359Y92516D01*
X-31389Y92417D01*
X-31389Y92397D01*
X-31394Y92378D01*
X-31386Y92275D01*
X-31383Y92172D01*
X-31376Y92153D01*
X-31375Y92133D01*
X-31334Y92038D01*
X-31299Y91941D01*
X-31286Y91925D01*
X-31278Y91907D01*
X-31173Y91776D01*
X-31113Y91715D01*
X-31113Y87912D01*
X-31174Y87851D01*
X-31186Y87835D01*
X-31201Y87822D01*
X-31230Y87777D01*
X-31256Y87749D01*
X-31274Y87712D01*
X-31317Y87651D01*
X-31323Y87632D01*
X-31334Y87615D01*
X-31352Y87543D01*
X-31360Y87526D01*
X-31362Y87505D01*
X-31390Y87416D01*
X-31389Y87396D01*
X-31394Y87377D01*
X-31387Y87283D01*
X-31387Y87282D01*
X-31387Y87280D01*
X-31386Y87274D01*
X-31383Y87170D01*
X-31377Y87151D01*
X-31375Y87131D01*
X-31335Y87036D01*
X-31299Y86939D01*
X-31287Y86923D01*
X-31279Y86905D01*
X-31174Y86774D01*
X-31113Y86713D01*
X-31113Y82910D01*
X-31173Y82849D01*
X-31185Y82833D01*
X-31201Y82821D01*
X-31257Y82733D01*
X-31317Y82650D01*
X-31323Y82631D01*
X-31334Y82614D01*
X-31359Y82513D01*
X-31389Y82414D01*
X-31389Y82394D01*
X-31394Y82375D01*
X-31386Y82272D01*
X-31383Y82169D01*
X-31376Y82150D01*
X-31375Y82130D01*
X-31334Y82035D01*
X-31299Y81938D01*
X-31286Y81922D01*
X-31278Y81904D01*
X-31173Y81773D01*
X-31113Y81712D01*
X-31113Y77909D01*
X-31173Y77848D01*
X-31185Y77832D01*
X-31201Y77820D01*
X-31257Y77732D01*
X-31317Y77649D01*
X-31323Y77630D01*
X-31334Y77613D01*
X-31359Y77512D01*
X-31389Y77413D01*
X-31389Y77393D01*
X-31394Y77374D01*
X-31386Y77271D01*
X-31383Y77168D01*
X-31376Y77149D01*
X-31375Y77129D01*
X-31334Y77034D01*
X-31299Y76937D01*
X-31286Y76921D01*
X-31278Y76903D01*
X-31173Y76772D01*
X-31113Y76711D01*
X-31113Y72908D01*
X-31173Y72847D01*
X-31185Y72831D01*
X-31201Y72819D01*
X-31257Y72731D01*
X-31317Y72648D01*
X-31323Y72629D01*
X-31334Y72612D01*
X-31359Y72511D01*
X-31389Y72412D01*
X-31389Y72392D01*
X-31394Y72373D01*
X-31386Y72270D01*
X-31383Y72167D01*
X-31376Y72148D01*
X-31375Y72128D01*
X-31334Y72033D01*
X-31299Y71936D01*
X-31286Y71920D01*
X-31278Y71902D01*
X-31173Y71771D01*
X-31113Y71710D01*
X-31113Y67907D01*
X-31174Y67846D01*
X-31186Y67830D01*
X-31201Y67817D01*
X-31257Y67730D01*
X-31317Y67646D01*
X-31323Y67627D01*
X-31334Y67610D01*
X-31359Y67510D01*
X-31390Y67411D01*
X-31389Y67391D01*
X-31394Y67372D01*
X-31386Y67269D01*
X-31383Y67165D01*
X-31377Y67146D01*
X-31375Y67126D01*
X-31335Y67031D01*
X-31299Y66934D01*
X-31287Y66918D01*
X-31279Y66900D01*
X-31174Y66769D01*
X-31113Y66708D01*
X-31113Y62905D01*
X-31173Y62844D01*
X-31185Y62828D01*
X-31201Y62816D01*
X-31257Y62728D01*
X-31317Y62645D01*
X-31323Y62626D01*
X-31334Y62609D01*
X-31359Y62508D01*
X-31389Y62409D01*
X-31389Y62389D01*
X-31394Y62370D01*
X-31386Y62267D01*
X-31383Y62164D01*
X-31376Y62145D01*
X-31375Y62125D01*
X-31334Y62030D01*
X-31299Y61933D01*
X-31286Y61917D01*
X-31278Y61899D01*
X-31173Y61768D01*
X-31113Y61707D01*
X-31113Y58548D01*
X-31110Y58529D01*
X-31112Y58509D01*
X-31090Y58408D01*
X-31073Y58306D01*
X-31064Y58288D01*
X-31059Y58269D01*
X-31006Y58180D01*
X-30958Y58088D01*
X-30944Y58075D01*
X-30933Y58058D01*
X-30855Y57990D01*
X-30780Y57919D01*
X-30762Y57911D01*
X-30746Y57898D01*
X-30650Y57859D01*
X-30557Y57815D01*
X-30537Y57813D01*
X-30518Y57806D01*
X-30352Y57787D01*
X-27193Y57787D01*
X-27132Y57727D01*
X-27116Y57715D01*
X-27104Y57699D01*
X-27016Y57643D01*
X-26933Y57583D01*
X-26914Y57577D01*
X-26897Y57566D01*
X-26796Y57541D01*
X-26697Y57511D01*
X-26677Y57511D01*
X-26658Y57506D01*
X-26555Y57514D01*
X-26452Y57517D01*
X-26433Y57524D01*
X-26413Y57525D01*
X-26318Y57566D01*
X-26221Y57601D01*
X-26205Y57614D01*
X-26187Y57622D01*
X-26056Y57727D01*
X-25995Y57787D01*
X-22192Y57787D01*
X-22131Y57726D01*
X-22115Y57714D01*
X-22102Y57699D01*
X-22015Y57643D01*
X-21931Y57583D01*
X-21912Y57577D01*
X-21895Y57566D01*
X-21795Y57541D01*
X-21696Y57510D01*
X-21676Y57511D01*
X-21657Y57506D01*
X-21554Y57514D01*
X-21450Y57517D01*
X-21431Y57523D01*
X-21411Y57525D01*
X-21316Y57565D01*
X-21219Y57601D01*
X-21203Y57613D01*
X-21185Y57621D01*
X-21054Y57726D01*
X-20993Y57787D01*
X-17190Y57787D01*
X-17129Y57727D01*
X-17113Y57715D01*
X-17101Y57699D01*
X-17013Y57643D01*
X-16930Y57583D01*
X-16911Y57577D01*
X-16894Y57566D01*
X-16793Y57541D01*
X-16694Y57511D01*
X-16674Y57511D01*
X-16655Y57506D01*
X-16552Y57514D01*
X-16449Y57517D01*
X-16430Y57524D01*
X-16410Y57525D01*
X-16315Y57566D01*
X-16218Y57601D01*
X-16202Y57614D01*
X-16184Y57622D01*
X-16053Y57727D01*
X-15992Y57787D01*
X-12189Y57787D01*
X-12128Y57727D01*
X-12112Y57715D01*
X-12100Y57699D01*
X-12012Y57643D01*
X-11929Y57583D01*
X-11910Y57577D01*
X-11893Y57566D01*
X-11792Y57541D01*
X-11693Y57511D01*
X-11673Y57511D01*
X-11654Y57506D01*
X-11551Y57514D01*
X-11448Y57517D01*
X-11429Y57524D01*
X-11409Y57525D01*
X-11314Y57566D01*
X-11217Y57601D01*
X-11201Y57614D01*
X-11183Y57622D01*
X-11052Y57727D01*
X-10991Y57787D01*
X-7188Y57787D01*
X-7127Y57727D01*
X-7111Y57715D01*
X-7099Y57699D01*
X-7012Y57643D01*
X-6928Y57583D01*
X-6909Y57577D01*
X-6892Y57566D01*
X-6791Y57541D01*
X-6693Y57511D01*
X-6673Y57511D01*
X-6653Y57506D01*
X-6550Y57514D01*
X-6447Y57517D01*
X-6428Y57524D01*
X-6408Y57525D01*
X-6313Y57566D01*
X-6216Y57601D01*
X-6200Y57614D01*
X-6182Y57622D01*
X-6051Y57727D01*
X-5990Y57787D01*
X-2187Y57787D01*
X-2126Y57726D01*
X-2110Y57714D01*
X-2097Y57699D01*
X-2010Y57643D01*
X-1926Y57583D01*
X-1907Y57577D01*
X-1890Y57566D01*
X-1790Y57541D01*
X-1691Y57510D01*
X-1671Y57511D01*
X-1652Y57506D01*
X-1549Y57514D01*
X-1445Y57517D01*
X-1426Y57523D01*
X-1406Y57525D01*
X-1311Y57565D01*
X-1214Y57601D01*
X-1198Y57613D01*
X-1180Y57621D01*
X-1049Y57726D01*
X-988Y57787D01*
X2815Y57787D01*
X2876Y57727D01*
X2892Y57715D01*
X2904Y57699D01*
X2992Y57643D01*
X3075Y57583D01*
X3094Y57577D01*
X3111Y57566D01*
X3212Y57541D01*
X3311Y57511D01*
X3331Y57511D01*
X3350Y57506D01*
X3453Y57514D01*
X3556Y57517D01*
X3575Y57524D01*
X3595Y57525D01*
X3690Y57566D01*
X3787Y57601D01*
X3803Y57614D01*
X3821Y57622D01*
X3952Y57727D01*
X4013Y57787D01*
X7816Y57787D01*
X7877Y57727D01*
X7893Y57715D01*
X7905Y57699D01*
X7993Y57643D01*
X8076Y57583D01*
X8095Y57577D01*
X8112Y57566D01*
X8213Y57541D01*
X8312Y57511D01*
X8332Y57511D01*
X8351Y57506D01*
X8454Y57514D01*
X8557Y57517D01*
X8576Y57524D01*
X8596Y57525D01*
X8691Y57566D01*
X8788Y57601D01*
X8804Y57614D01*
X8822Y57622D01*
X8953Y57727D01*
X9014Y57787D01*
X12817Y57787D01*
X12878Y57727D01*
X12894Y57715D01*
X12906Y57699D01*
X12994Y57643D01*
X13077Y57583D01*
X13096Y57577D01*
X13113Y57566D01*
X13214Y57541D01*
X13313Y57511D01*
X13333Y57511D01*
X13352Y57506D01*
X13455Y57514D01*
X13558Y57517D01*
X13577Y57524D01*
X13597Y57525D01*
X13692Y57566D01*
X13789Y57601D01*
X13805Y57614D01*
X13823Y57622D01*
X13954Y57727D01*
X14015Y57787D01*
X17818Y57787D01*
X17879Y57726D01*
X17895Y57714D01*
X17908Y57699D01*
X17995Y57643D01*
X18079Y57583D01*
X18098Y57577D01*
X18115Y57566D01*
X18215Y57541D01*
X18314Y57510D01*
X18334Y57511D01*
X18353Y57506D01*
X18456Y57514D01*
G37*
G36*
X-27376Y30992D02*
X-27376Y30992D01*
X-27356Y30990D01*
X-27255Y31012D01*
X-27153Y31029D01*
X-27135Y31038D01*
X-27116Y31042D01*
X-27027Y31095D01*
X-26935Y31144D01*
X-26922Y31158D01*
X-26905Y31168D01*
X-26837Y31247D01*
X-26766Y31322D01*
X-26758Y31340D01*
X-26745Y31355D01*
X-26706Y31451D01*
X-26662Y31545D01*
X-26660Y31565D01*
X-26653Y31583D01*
X-26634Y31750D01*
X-26634Y48477D01*
X-26637Y48496D01*
X-26635Y48516D01*
X-26657Y48617D01*
X-26674Y48719D01*
X-26683Y48737D01*
X-26688Y48756D01*
X-26741Y48845D01*
X-26789Y48937D01*
X-26803Y48950D01*
X-26814Y48967D01*
X-26892Y49035D01*
X-26967Y49106D01*
X-26985Y49114D01*
X-27001Y49127D01*
X-27097Y49166D01*
X-27190Y49210D01*
X-27210Y49212D01*
X-27229Y49219D01*
X-27395Y49238D01*
X-30996Y49238D01*
X-31889Y50131D01*
X-31889Y56250D01*
X-31892Y56269D01*
X-31890Y56289D01*
X-31912Y56390D01*
X-31929Y56492D01*
X-31938Y56510D01*
X-31943Y56529D01*
X-31996Y56618D01*
X-32044Y56710D01*
X-32058Y56723D01*
X-32069Y56740D01*
X-32147Y56808D01*
X-32222Y56879D01*
X-32240Y56887D01*
X-32256Y56900D01*
X-32352Y56939D01*
X-32445Y56983D01*
X-32465Y56985D01*
X-32484Y56992D01*
X-32650Y57011D01*
X-38769Y57011D01*
X-39662Y57904D01*
X-39662Y61251D01*
X-39665Y61270D01*
X-39663Y61290D01*
X-39685Y61391D01*
X-39702Y61493D01*
X-39711Y61511D01*
X-39716Y61530D01*
X-39769Y61619D01*
X-39817Y61711D01*
X-39831Y61724D01*
X-39842Y61741D01*
X-39920Y61809D01*
X-39995Y61880D01*
X-40013Y61888D01*
X-40029Y61901D01*
X-40125Y61940D01*
X-40218Y61984D01*
X-40238Y61986D01*
X-40257Y61993D01*
X-40423Y62012D01*
X-44539Y62012D01*
X-44559Y62009D01*
X-44578Y62011D01*
X-44680Y61989D01*
X-44782Y61972D01*
X-44799Y61963D01*
X-44819Y61958D01*
X-44908Y61905D01*
X-44999Y61857D01*
X-45013Y61843D01*
X-45030Y61832D01*
X-45097Y61754D01*
X-45169Y61679D01*
X-45177Y61661D01*
X-45190Y61645D01*
X-45229Y61549D01*
X-45272Y61456D01*
X-45274Y61436D01*
X-45282Y61417D01*
X-45300Y61251D01*
X-45300Y57368D01*
X-46193Y56475D01*
X-57457Y56475D01*
X-58350Y57368D01*
X-58350Y69632D01*
X-57457Y70525D01*
X-46193Y70525D01*
X-45300Y69632D01*
X-45300Y68362D01*
X-45297Y68343D01*
X-45299Y68323D01*
X-45277Y68222D01*
X-45261Y68120D01*
X-45251Y68102D01*
X-45247Y68083D01*
X-45194Y67994D01*
X-45145Y67902D01*
X-45131Y67889D01*
X-45121Y67872D01*
X-45042Y67804D01*
X-44967Y67733D01*
X-44949Y67725D01*
X-44934Y67712D01*
X-44838Y67673D01*
X-44744Y67629D01*
X-44724Y67627D01*
X-44706Y67620D01*
X-44539Y67601D01*
X-40423Y67601D01*
X-40404Y67604D01*
X-40384Y67602D01*
X-40283Y67624D01*
X-40181Y67641D01*
X-40163Y67650D01*
X-40144Y67655D01*
X-40055Y67708D01*
X-39963Y67756D01*
X-39950Y67770D01*
X-39933Y67781D01*
X-39865Y67859D01*
X-39794Y67934D01*
X-39786Y67952D01*
X-39773Y67968D01*
X-39734Y68064D01*
X-39690Y68157D01*
X-39688Y68177D01*
X-39681Y68196D01*
X-39662Y68362D01*
X-39662Y71710D01*
X-39602Y71771D01*
X-39590Y71787D01*
X-39574Y71799D01*
X-39518Y71886D01*
X-39458Y71970D01*
X-39452Y71989D01*
X-39441Y72006D01*
X-39416Y72107D01*
X-39386Y72205D01*
X-39386Y72225D01*
X-39381Y72245D01*
X-39389Y72348D01*
X-39392Y72451D01*
X-39399Y72470D01*
X-39400Y72490D01*
X-39441Y72585D01*
X-39476Y72682D01*
X-39489Y72698D01*
X-39497Y72716D01*
X-39602Y72847D01*
X-39662Y72908D01*
X-39662Y76509D01*
X-39665Y76528D01*
X-39663Y76548D01*
X-39685Y76649D01*
X-39702Y76751D01*
X-39711Y76769D01*
X-39716Y76788D01*
X-39769Y76877D01*
X-39817Y76969D01*
X-39831Y76982D01*
X-39842Y76999D01*
X-39920Y77067D01*
X-39995Y77138D01*
X-40013Y77146D01*
X-40029Y77159D01*
X-40125Y77198D01*
X-40218Y77242D01*
X-40238Y77244D01*
X-40257Y77251D01*
X-40423Y77270D01*
X-94364Y77270D01*
X-94454Y77255D01*
X-94545Y77248D01*
X-94575Y77235D01*
X-94607Y77230D01*
X-94687Y77187D01*
X-94771Y77152D01*
X-94803Y77126D01*
X-94824Y77115D01*
X-94846Y77092D01*
X-94902Y77047D01*
X-96561Y75388D01*
X-96641Y75352D01*
X-96660Y75335D01*
X-96683Y75323D01*
X-96750Y75252D01*
X-96822Y75186D01*
X-96834Y75163D01*
X-96852Y75144D01*
X-96893Y75056D01*
X-96940Y74970D01*
X-96945Y74945D01*
X-96956Y74921D01*
X-96966Y74824D01*
X-96984Y74728D01*
X-96980Y74703D01*
X-96983Y74677D01*
X-96962Y74581D01*
X-96948Y74485D01*
X-96935Y74455D01*
X-96931Y74436D01*
X-96914Y74408D01*
X-96880Y74332D01*
X-71740Y31366D01*
X-71698Y31315D01*
X-71665Y31259D01*
X-71620Y31221D01*
X-71583Y31176D01*
X-71527Y31142D01*
X-71478Y31099D01*
X-71423Y31077D01*
X-71374Y31047D01*
X-71310Y31032D01*
X-71250Y31007D01*
X-71166Y30998D01*
X-71134Y30991D01*
X-71115Y30992D01*
X-71083Y30989D01*
X-27395Y30989D01*
X-27376Y30992D01*
G37*
G36*
X70779Y31000D02*
X70779Y31000D01*
X70847Y31001D01*
X70900Y31020D01*
X70954Y31029D01*
X71014Y31060D01*
X71079Y31083D01*
X71123Y31118D01*
X71171Y31144D01*
X71219Y31193D01*
X71272Y31235D01*
X71318Y31298D01*
X71341Y31322D01*
X71350Y31341D01*
X71371Y31371D01*
X77682Y42356D01*
X77715Y42445D01*
X77755Y42531D01*
X77758Y42559D01*
X77769Y42587D01*
X77772Y42681D01*
X77782Y42775D01*
X77776Y42803D01*
X77777Y42832D01*
X77750Y42923D01*
X77730Y43015D01*
X77715Y43040D01*
X77707Y43068D01*
X77652Y43145D01*
X77604Y43226D01*
X77582Y43245D01*
X77565Y43269D01*
X77489Y43325D01*
X77417Y43386D01*
X77390Y43397D01*
X77367Y43414D01*
X77277Y43443D01*
X77189Y43478D01*
X77152Y43482D01*
X77132Y43489D01*
X77099Y43488D01*
X77022Y43497D01*
X24730Y43497D01*
X20089Y48138D01*
X18942Y49285D01*
X18926Y49297D01*
X18913Y49312D01*
X18826Y49368D01*
X18742Y49428D01*
X18723Y49434D01*
X18706Y49445D01*
X18606Y49470D01*
X18507Y49501D01*
X18487Y49500D01*
X18468Y49505D01*
X18365Y49497D01*
X18261Y49494D01*
X18242Y49488D01*
X18222Y49486D01*
X18127Y49446D01*
X18030Y49410D01*
X18015Y49398D01*
X17996Y49390D01*
X17865Y49285D01*
X17818Y49238D01*
X14015Y49238D01*
X13954Y49298D01*
X13938Y49310D01*
X13926Y49326D01*
X13839Y49382D01*
X13755Y49442D01*
X13736Y49448D01*
X13719Y49459D01*
X13618Y49484D01*
X13520Y49514D01*
X13500Y49514D01*
X13480Y49519D01*
X13377Y49511D01*
X13274Y49508D01*
X13255Y49501D01*
X13235Y49500D01*
X13140Y49459D01*
X13043Y49424D01*
X13027Y49411D01*
X13009Y49403D01*
X12878Y49298D01*
X12817Y49238D01*
X9014Y49238D01*
X8953Y49298D01*
X8937Y49310D01*
X8925Y49326D01*
X8838Y49382D01*
X8754Y49442D01*
X8735Y49448D01*
X8718Y49459D01*
X8617Y49484D01*
X8519Y49514D01*
X8499Y49514D01*
X8479Y49519D01*
X8376Y49511D01*
X8273Y49508D01*
X8254Y49501D01*
X8234Y49500D01*
X8139Y49459D01*
X8042Y49424D01*
X8026Y49411D01*
X8008Y49403D01*
X7877Y49298D01*
X7816Y49238D01*
X4013Y49238D01*
X3952Y49298D01*
X3936Y49310D01*
X3924Y49326D01*
X3837Y49382D01*
X3753Y49442D01*
X3734Y49448D01*
X3717Y49459D01*
X3616Y49484D01*
X3518Y49514D01*
X3498Y49514D01*
X3478Y49519D01*
X3375Y49511D01*
X3272Y49508D01*
X3253Y49501D01*
X3233Y49500D01*
X3138Y49459D01*
X3041Y49424D01*
X3025Y49411D01*
X3007Y49403D01*
X2876Y49298D01*
X2815Y49238D01*
X-988Y49238D01*
X-1049Y49299D01*
X-1065Y49311D01*
X-1078Y49326D01*
X-1165Y49382D01*
X-1249Y49442D01*
X-1268Y49448D01*
X-1285Y49459D01*
X-1385Y49484D01*
X-1484Y49515D01*
X-1504Y49514D01*
X-1523Y49519D01*
X-1626Y49511D01*
X-1730Y49508D01*
X-1749Y49502D01*
X-1768Y49500D01*
X-1864Y49460D01*
X-1961Y49424D01*
X-1977Y49412D01*
X-1995Y49404D01*
X-2126Y49299D01*
X-2187Y49238D01*
X-5990Y49238D01*
X-6051Y49298D01*
X-6067Y49310D01*
X-6079Y49326D01*
X-6167Y49382D01*
X-6250Y49442D01*
X-6269Y49448D01*
X-6286Y49459D01*
X-6387Y49484D01*
X-6486Y49514D01*
X-6506Y49514D01*
X-6525Y49519D01*
X-6628Y49511D01*
X-6731Y49508D01*
X-6750Y49501D01*
X-6770Y49500D01*
X-6865Y49459D01*
X-6962Y49424D01*
X-6978Y49411D01*
X-6996Y49403D01*
X-7127Y49298D01*
X-7188Y49238D01*
X-10991Y49238D01*
X-11052Y49298D01*
X-11068Y49310D01*
X-11080Y49326D01*
X-11167Y49382D01*
X-11251Y49442D01*
X-11270Y49448D01*
X-11287Y49459D01*
X-11388Y49484D01*
X-11486Y49514D01*
X-11506Y49514D01*
X-11526Y49519D01*
X-11629Y49511D01*
X-11732Y49508D01*
X-11751Y49501D01*
X-11771Y49500D01*
X-11866Y49459D01*
X-11963Y49424D01*
X-11979Y49411D01*
X-11997Y49403D01*
X-12128Y49298D01*
X-12189Y49238D01*
X-15790Y49238D01*
X-15809Y49235D01*
X-15829Y49237D01*
X-15930Y49215D01*
X-16032Y49198D01*
X-16050Y49189D01*
X-16069Y49184D01*
X-16158Y49131D01*
X-16250Y49083D01*
X-16263Y49069D01*
X-16280Y49058D01*
X-16348Y48980D01*
X-16419Y48905D01*
X-16427Y48887D01*
X-16440Y48871D01*
X-16479Y48775D01*
X-16523Y48682D01*
X-16525Y48662D01*
X-16532Y48643D01*
X-16551Y48477D01*
X-16551Y33076D01*
X-16536Y32986D01*
X-16529Y32895D01*
X-16516Y32865D01*
X-16511Y32833D01*
X-16468Y32753D01*
X-16433Y32669D01*
X-16407Y32637D01*
X-16396Y32616D01*
X-16373Y32594D01*
X-16328Y32538D01*
X-15002Y31212D01*
X-14928Y31159D01*
X-14858Y31099D01*
X-14828Y31087D01*
X-14802Y31068D01*
X-14715Y31041D01*
X-14630Y31007D01*
X-14589Y31003D01*
X-14567Y30996D01*
X-14535Y30997D01*
X-14463Y30989D01*
X70711Y30989D01*
X70779Y31000D01*
G37*
G36*
X131941Y198380D02*
X131941Y198380D01*
X131984Y198379D01*
X135977Y198979D01*
X136007Y198990D01*
X136050Y198996D01*
X139909Y200185D01*
X139937Y200200D01*
X139978Y200212D01*
X143616Y201963D01*
X143638Y201979D01*
X143664Y201989D01*
X143717Y202039D01*
X143775Y202083D01*
X143788Y202106D01*
X143808Y202125D01*
X143838Y202192D01*
X143874Y202255D01*
X143877Y202282D01*
X143888Y202307D01*
X143889Y202380D01*
X143898Y202453D01*
X143890Y202479D01*
X143890Y202506D01*
X143854Y202605D01*
X143842Y202644D01*
X143836Y202651D01*
X143832Y202662D01*
X116832Y249462D01*
X116814Y249482D01*
X116803Y249507D01*
X116749Y249556D01*
X116701Y249611D01*
X116676Y249623D01*
X116656Y249641D01*
X116587Y249665D01*
X116521Y249697D01*
X116494Y249698D01*
X116469Y249707D01*
X116396Y249702D01*
X116323Y249706D01*
X116297Y249696D01*
X116270Y249695D01*
X116174Y249651D01*
X116136Y249636D01*
X116129Y249630D01*
X116119Y249625D01*
X112782Y247352D01*
X112760Y247329D01*
X112724Y247305D01*
X109763Y244560D01*
X109744Y244534D01*
X109712Y244505D01*
X107194Y241349D01*
X107179Y241321D01*
X107152Y241288D01*
X105132Y237791D01*
X105122Y237761D01*
X105099Y237724D01*
X103623Y233966D01*
X103618Y233935D01*
X103601Y233895D01*
X102701Y229959D01*
X102701Y229927D01*
X102690Y229885D01*
X102387Y225859D01*
X102390Y225835D01*
X102387Y225815D01*
X102389Y225806D01*
X102387Y225784D01*
X102688Y221758D01*
X102696Y221727D01*
X102699Y221684D01*
X103596Y217747D01*
X103609Y217718D01*
X103618Y217676D01*
X105092Y213917D01*
X105109Y213890D01*
X105124Y213849D01*
X107142Y210352D01*
X107163Y210328D01*
X107184Y210290D01*
X109700Y207133D01*
X109725Y207112D01*
X109751Y207078D01*
X112710Y204331D01*
X112737Y204314D01*
X112768Y204284D01*
X116104Y202009D01*
X116133Y201996D01*
X116168Y201971D01*
X119806Y200218D01*
X119836Y200211D01*
X119875Y200191D01*
X123733Y199000D01*
X123765Y198997D01*
X123806Y198983D01*
X127798Y198380D01*
X127830Y198382D01*
X127872Y198374D01*
X131910Y198373D01*
X131941Y198380D01*
G37*
G36*
X-127872Y198374D02*
X-127872Y198374D01*
X-127841Y198381D01*
X-127798Y198380D01*
X-123806Y198983D01*
X-123776Y198994D01*
X-123733Y199000D01*
X-119875Y200191D01*
X-119847Y200206D01*
X-119806Y200218D01*
X-116168Y201971D01*
X-116143Y201991D01*
X-116104Y202009D01*
X-112768Y204284D01*
X-112746Y204307D01*
X-112710Y204331D01*
X-109751Y207078D01*
X-109732Y207104D01*
X-109700Y207133D01*
X-107184Y210290D01*
X-107169Y210319D01*
X-107142Y210352D01*
X-105124Y213849D01*
X-105114Y213880D01*
X-105092Y213917D01*
X-103618Y217676D01*
X-103612Y217707D01*
X-103596Y217747D01*
X-102699Y221684D01*
X-102698Y221716D01*
X-102688Y221758D01*
X-102387Y225784D01*
X-102391Y225816D01*
X-102390Y225832D01*
X-102387Y225848D01*
X-102388Y225852D01*
X-102387Y225859D01*
X-102690Y229885D01*
X-102699Y229916D01*
X-102701Y229959D01*
X-103601Y233895D01*
X-103614Y233924D01*
X-103623Y233966D01*
X-105099Y237724D01*
X-105117Y237751D01*
X-105132Y237791D01*
X-107152Y241288D01*
X-107173Y241311D01*
X-107194Y241349D01*
X-109712Y244505D01*
X-109737Y244526D01*
X-109763Y244560D01*
X-112724Y247305D01*
X-112751Y247322D01*
X-112782Y247352D01*
X-116119Y249625D01*
X-116144Y249636D01*
X-116165Y249653D01*
X-116235Y249674D01*
X-116302Y249702D01*
X-116330Y249702D01*
X-116356Y249710D01*
X-116428Y249702D01*
X-116501Y249701D01*
X-116526Y249691D01*
X-116553Y249688D01*
X-116617Y249652D01*
X-116684Y249623D01*
X-116703Y249604D01*
X-116726Y249590D01*
X-116794Y249509D01*
X-116822Y249480D01*
X-116825Y249471D01*
X-116832Y249462D01*
X-143832Y202662D01*
X-143841Y202636D01*
X-143857Y202614D01*
X-143872Y202543D01*
X-143896Y202473D01*
X-143893Y202446D01*
X-143899Y202420D01*
X-143886Y202348D01*
X-143880Y202275D01*
X-143867Y202251D01*
X-143862Y202224D01*
X-143822Y202164D01*
X-143788Y202099D01*
X-143767Y202081D01*
X-143752Y202059D01*
X-143666Y201998D01*
X-143635Y201972D01*
X-143626Y201969D01*
X-143616Y201963D01*
X-139978Y200212D01*
X-139947Y200204D01*
X-139909Y200185D01*
X-136050Y198996D01*
X-136018Y198993D01*
X-135977Y198979D01*
X-131984Y198379D01*
X-131953Y198380D01*
X-131910Y198373D01*
X-127872Y198374D01*
G37*
G36*
X116428Y51923D02*
X116428Y51923D01*
X116501Y51924D01*
X116526Y51934D01*
X116553Y51937D01*
X116617Y51973D01*
X116684Y52002D01*
X116703Y52021D01*
X116726Y52035D01*
X116794Y52116D01*
X116822Y52145D01*
X116825Y52154D01*
X116832Y52163D01*
X143832Y98963D01*
X143841Y98989D01*
X143857Y99011D01*
X143872Y99082D01*
X143896Y99152D01*
X143893Y99179D01*
X143899Y99205D01*
X143886Y99277D01*
X143880Y99350D01*
X143867Y99374D01*
X143862Y99401D01*
X143822Y99462D01*
X143788Y99526D01*
X143767Y99544D01*
X143752Y99566D01*
X143666Y99627D01*
X143635Y99653D01*
X143626Y99656D01*
X143616Y99662D01*
X139978Y101413D01*
X139947Y101421D01*
X139909Y101440D01*
X136050Y102629D01*
X136018Y102632D01*
X135977Y102646D01*
X131984Y103246D01*
X131953Y103245D01*
X131910Y103252D01*
X127872Y103251D01*
X127841Y103244D01*
X127798Y103245D01*
X123806Y102642D01*
X123776Y102631D01*
X123733Y102625D01*
X119875Y101434D01*
X119847Y101419D01*
X119806Y101407D01*
X116168Y99654D01*
X116143Y99634D01*
X116104Y99616D01*
X112768Y97341D01*
X112746Y97318D01*
X112710Y97294D01*
X109751Y94547D01*
X109732Y94521D01*
X109700Y94492D01*
X107184Y91335D01*
X107169Y91306D01*
X107142Y91273D01*
X105124Y87776D01*
X105114Y87745D01*
X105092Y87708D01*
X103618Y83949D01*
X103612Y83918D01*
X103596Y83878D01*
X102699Y79941D01*
X102698Y79909D01*
X102688Y79867D01*
X102387Y75841D01*
X102391Y75809D01*
X102387Y75766D01*
X102690Y71740D01*
X102699Y71709D01*
X102701Y71666D01*
X103601Y67730D01*
X103614Y67701D01*
X103623Y67659D01*
X105099Y63901D01*
X105117Y63874D01*
X105132Y63834D01*
X107152Y60338D01*
X107173Y60314D01*
X107194Y60276D01*
X109712Y57120D01*
X109737Y57100D01*
X109763Y57065D01*
X112724Y54320D01*
X112751Y54303D01*
X112782Y54273D01*
X116119Y52000D01*
X116144Y51989D01*
X116165Y51972D01*
X116235Y51951D01*
X116302Y51923D01*
X116330Y51923D01*
X116356Y51915D01*
X116428Y51923D01*
G37*
G36*
X-116396Y51923D02*
X-116396Y51923D01*
X-116323Y51919D01*
X-116297Y51929D01*
X-116270Y51930D01*
X-116174Y51974D01*
X-116136Y51989D01*
X-116129Y51995D01*
X-116119Y52000D01*
X-112782Y54273D01*
X-112760Y54296D01*
X-112724Y54320D01*
X-109763Y57065D01*
X-109744Y57091D01*
X-109712Y57120D01*
X-107194Y60276D01*
X-107179Y60304D01*
X-107152Y60338D01*
X-105132Y63834D01*
X-105122Y63864D01*
X-105099Y63901D01*
X-103623Y67659D01*
X-103618Y67690D01*
X-103601Y67730D01*
X-102701Y71666D01*
X-102701Y71698D01*
X-102690Y71740D01*
X-102387Y75766D01*
X-102391Y75798D01*
X-102387Y75841D01*
X-102688Y79867D01*
X-102696Y79898D01*
X-102699Y79941D01*
X-103596Y83878D01*
X-103609Y83907D01*
X-103618Y83949D01*
X-105092Y87708D01*
X-105109Y87735D01*
X-105124Y87776D01*
X-107142Y91273D01*
X-107163Y91297D01*
X-107184Y91335D01*
X-109700Y94492D01*
X-109725Y94513D01*
X-109751Y94547D01*
X-112710Y97294D01*
X-112737Y97311D01*
X-112768Y97341D01*
X-116104Y99616D01*
X-116133Y99629D01*
X-116168Y99654D01*
X-119806Y101407D01*
X-119836Y101414D01*
X-119875Y101434D01*
X-123733Y102625D01*
X-123765Y102628D01*
X-123806Y102642D01*
X-127798Y103245D01*
X-127830Y103243D01*
X-127872Y103251D01*
X-131910Y103252D01*
X-131941Y103246D01*
X-131984Y103246D01*
X-135977Y102646D01*
X-136007Y102635D01*
X-136050Y102629D01*
X-139909Y101440D01*
X-139937Y101425D01*
X-139978Y101413D01*
X-143616Y99662D01*
X-143638Y99646D01*
X-143664Y99636D01*
X-143717Y99586D01*
X-143775Y99542D01*
X-143788Y99519D01*
X-143808Y99500D01*
X-143838Y99433D01*
X-143874Y99370D01*
X-143877Y99343D01*
X-143888Y99318D01*
X-143889Y99245D01*
X-143898Y99172D01*
X-143890Y99146D01*
X-143890Y99119D01*
X-143854Y99020D01*
X-143842Y98981D01*
X-143836Y98974D01*
X-143832Y98963D01*
X-116832Y52163D01*
X-116814Y52143D01*
X-116803Y52118D01*
X-116749Y52069D01*
X-116701Y52014D01*
X-116676Y52002D01*
X-116656Y51984D01*
X-116587Y51960D01*
X-116521Y51928D01*
X-116494Y51927D01*
X-116469Y51918D01*
X-116396Y51923D01*
G37*
G36*
X27027Y319D02*
X27027Y319D01*
X27054Y316D01*
X27123Y338D01*
X27195Y353D01*
X27217Y368D01*
X27243Y377D01*
X27299Y424D01*
X27359Y465D01*
X27373Y488D01*
X27394Y506D01*
X27427Y571D01*
X27466Y633D01*
X27470Y660D01*
X27482Y684D01*
X27492Y789D01*
X27499Y829D01*
X27497Y838D01*
X27498Y850D01*
X27196Y4874D01*
X27188Y4905D01*
X27185Y4948D01*
X26287Y8882D01*
X26274Y8911D01*
X26265Y8953D01*
X24791Y12710D01*
X24774Y12737D01*
X24759Y12777D01*
X22741Y16272D01*
X22720Y16296D01*
X22699Y16333D01*
X20183Y19488D01*
X20158Y19509D01*
X20132Y19543D01*
X17174Y22288D01*
X17147Y22304D01*
X17115Y22334D01*
X13781Y24608D01*
X13752Y24620D01*
X13717Y24645D01*
X10081Y26396D01*
X10050Y26404D01*
X10011Y26423D01*
X6155Y27613D01*
X6124Y27616D01*
X6082Y27629D01*
X2092Y28231D01*
X2060Y28229D01*
X2018Y28236D01*
X-2018Y28236D01*
X-2049Y28230D01*
X-2092Y28231D01*
X-6082Y27629D01*
X-6112Y27618D01*
X-6155Y27613D01*
X-10011Y26423D01*
X-10039Y26408D01*
X-10081Y26396D01*
X-13717Y24645D01*
X-13742Y24626D01*
X-13781Y24608D01*
X-17115Y22334D01*
X-17138Y22312D01*
X-17174Y22288D01*
X-20132Y19543D01*
X-20151Y19517D01*
X-20183Y19488D01*
X-22699Y16333D01*
X-22713Y16305D01*
X-22741Y16272D01*
X-24759Y12777D01*
X-24769Y12747D01*
X-24791Y12710D01*
X-26265Y8953D01*
X-26271Y8922D01*
X-26287Y8882D01*
X-27185Y4948D01*
X-27186Y4916D01*
X-27196Y4874D01*
X-27498Y850D01*
X-27494Y823D01*
X-27499Y796D01*
X-27482Y725D01*
X-27473Y653D01*
X-27459Y629D01*
X-27453Y603D01*
X-27410Y544D01*
X-27373Y481D01*
X-27351Y464D01*
X-27335Y442D01*
X-27272Y405D01*
X-27214Y361D01*
X-27187Y355D01*
X-27164Y341D01*
X-27060Y323D01*
X-27021Y314D01*
X-27011Y315D01*
X-27000Y313D01*
X27000Y313D01*
X27027Y319D01*
G37*
%LPC*%
G36*
X9133Y245713D02*
X9133Y245713D01*
X9101Y245726D01*
X9060Y245730D01*
X9038Y245737D01*
X9006Y245736D01*
X8934Y245744D01*
X8736Y245744D01*
X7619Y246861D01*
X7619Y265902D01*
X8736Y267018D01*
X38889Y267018D01*
X40006Y265902D01*
X40006Y246861D01*
X38889Y245744D01*
X17891Y245744D01*
X17801Y245730D01*
X17709Y245722D01*
X17687Y245713D01*
X9133Y245713D01*
G37*
%LPD*%
G36*
X-12650Y245694D02*
X-12650Y245694D01*
X-12599Y245696D01*
X-12567Y245713D01*
X-12531Y245722D01*
X-12492Y245754D01*
X-12447Y245779D01*
X-12426Y245809D01*
X-12398Y245832D01*
X-12377Y245879D01*
X-12347Y245920D01*
X-12339Y245962D01*
X-12327Y245990D01*
X-12328Y246021D01*
X-12320Y246063D01*
X-12320Y267907D01*
X-4763Y267907D01*
X-4713Y267919D01*
X-4662Y267921D01*
X-4630Y267938D01*
X-4594Y267947D01*
X-4554Y267979D01*
X-4510Y268004D01*
X-4489Y268034D01*
X-4460Y268057D01*
X-4439Y268104D01*
X-4410Y268145D01*
X-4402Y268187D01*
X-4389Y268215D01*
X-4390Y268246D01*
X-4382Y268288D01*
X-4382Y284163D01*
X-4394Y284212D01*
X-4396Y284263D01*
X-4413Y284295D01*
X-4422Y284331D01*
X-4454Y284371D01*
X-4479Y284415D01*
X-4509Y284437D01*
X-4532Y284465D01*
X-4579Y284486D01*
X-4620Y284515D01*
X-4662Y284523D01*
X-4690Y284536D01*
X-4721Y284535D01*
X-4763Y284543D01*
X-12700Y284543D01*
X-12726Y284537D01*
X-12753Y284539D01*
X-12810Y284517D01*
X-12869Y284503D01*
X-12889Y284486D01*
X-12915Y284476D01*
X-12973Y284417D01*
X-13002Y284393D01*
X-13007Y284383D01*
X-13016Y284373D01*
X-37363Y247853D01*
X-37389Y247783D01*
X-37420Y247715D01*
X-37419Y247703D01*
X-37424Y247691D01*
X-37416Y247617D01*
X-37413Y247542D01*
X-37407Y247531D01*
X-37406Y247519D01*
X-37366Y247455D01*
X-37331Y247390D01*
X-37321Y247383D01*
X-37314Y247372D01*
X-37250Y247333D01*
X-37189Y247290D01*
X-37176Y247287D01*
X-37166Y247282D01*
X-37128Y247278D01*
X-37047Y247262D01*
X-25618Y247262D01*
X-24725Y246369D01*
X-24725Y246063D01*
X-24714Y246013D01*
X-24712Y245962D01*
X-24694Y245930D01*
X-24686Y245894D01*
X-24653Y245854D01*
X-24629Y245810D01*
X-24599Y245789D01*
X-24576Y245760D01*
X-24529Y245739D01*
X-24487Y245710D01*
X-24445Y245702D01*
X-24417Y245689D01*
X-24387Y245690D01*
X-24345Y245682D01*
X-12700Y245682D01*
X-12650Y245694D01*
G37*
G36*
X21455Y247287D02*
X21455Y247287D01*
X21530Y247300D01*
X21540Y247307D01*
X21550Y247309D01*
X21578Y247333D01*
X21650Y247381D01*
X22031Y247762D01*
X38100Y247762D01*
X38150Y247774D01*
X38201Y247776D01*
X38233Y247793D01*
X38269Y247802D01*
X38308Y247834D01*
X38353Y247859D01*
X38374Y247889D01*
X38402Y247912D01*
X38423Y247959D01*
X38453Y248000D01*
X38461Y248042D01*
X38473Y248070D01*
X38472Y248101D01*
X38480Y248142D01*
X38480Y265113D01*
X38469Y265162D01*
X38467Y265213D01*
X38449Y265245D01*
X38441Y265281D01*
X38408Y265321D01*
X38384Y265365D01*
X38354Y265387D01*
X38331Y265415D01*
X38284Y265436D01*
X38242Y265465D01*
X38200Y265473D01*
X38172Y265486D01*
X38142Y265485D01*
X38100Y265493D01*
X9525Y265493D01*
X9475Y265481D01*
X9424Y265479D01*
X9392Y265462D01*
X9356Y265453D01*
X9317Y265421D01*
X9272Y265396D01*
X9251Y265366D01*
X9223Y265343D01*
X9202Y265296D01*
X9172Y265255D01*
X9164Y265213D01*
X9152Y265185D01*
X9153Y265154D01*
X9145Y265113D01*
X9145Y247650D01*
X9156Y247600D01*
X9158Y247549D01*
X9176Y247517D01*
X9184Y247481D01*
X9217Y247442D01*
X9241Y247397D01*
X9271Y247376D01*
X9294Y247348D01*
X9341Y247327D01*
X9383Y247297D01*
X9425Y247289D01*
X9453Y247277D01*
X9483Y247278D01*
X9525Y247270D01*
X21381Y247270D01*
X21455Y247287D01*
G37*
G36*
X163727Y133823D02*
X163727Y133823D01*
X163798Y133823D01*
X163825Y133834D01*
X163854Y133837D01*
X163916Y133873D01*
X163981Y133900D01*
X164002Y133921D01*
X164027Y133935D01*
X164090Y134012D01*
X164120Y134043D01*
X164124Y134053D01*
X164133Y134063D01*
X173633Y150563D01*
X173643Y150595D01*
X173652Y150608D01*
X173656Y150633D01*
X173657Y150636D01*
X173688Y150707D01*
X173688Y150730D01*
X173696Y150752D01*
X173690Y150829D01*
X173691Y150906D01*
X173681Y150930D01*
X173680Y150950D01*
X173659Y150990D01*
X173633Y151062D01*
X164133Y167562D01*
X164114Y167583D01*
X164101Y167610D01*
X164048Y167657D01*
X164001Y167711D01*
X163975Y167723D01*
X163954Y167743D01*
X163886Y167766D01*
X163822Y167797D01*
X163793Y167798D01*
X163766Y167807D01*
X163694Y167803D01*
X163623Y167806D01*
X163596Y167796D01*
X163567Y167794D01*
X163477Y167751D01*
X163437Y167737D01*
X163429Y167729D01*
X163416Y167723D01*
X160893Y165982D01*
X160869Y165957D01*
X160831Y165931D01*
X158619Y163807D01*
X158600Y163779D01*
X158566Y163747D01*
X156724Y161295D01*
X156710Y161265D01*
X156681Y161227D01*
X155256Y158512D01*
X155247Y158481D01*
X155231Y158456D01*
X155230Y158448D01*
X155225Y158439D01*
X154254Y155530D01*
X154250Y155496D01*
X154235Y155452D01*
X153743Y152426D01*
X153744Y152392D01*
X153736Y152346D01*
X153736Y149279D01*
X153737Y149276D01*
X153737Y149273D01*
X153743Y149247D01*
X153743Y149246D01*
X153743Y149199D01*
X154235Y146173D01*
X154247Y146141D01*
X154254Y146095D01*
X155225Y143186D01*
X155242Y143157D01*
X155256Y143113D01*
X156681Y140398D01*
X156703Y140371D01*
X156724Y140330D01*
X158566Y137878D01*
X158591Y137856D01*
X158619Y137818D01*
X160831Y135694D01*
X160859Y135676D01*
X160893Y135643D01*
X163416Y133902D01*
X163443Y133890D01*
X163465Y133872D01*
X163534Y133852D01*
X163599Y133824D01*
X163628Y133823D01*
X163656Y133815D01*
X163727Y133823D01*
G37*
G36*
X-163694Y133822D02*
X-163694Y133822D01*
X-163623Y133819D01*
X-163596Y133829D01*
X-163567Y133831D01*
X-163477Y133874D01*
X-163437Y133888D01*
X-163429Y133896D01*
X-163416Y133902D01*
X-160893Y135643D01*
X-160869Y135668D01*
X-160831Y135694D01*
X-158619Y137818D01*
X-158600Y137846D01*
X-158566Y137878D01*
X-156724Y140330D01*
X-156710Y140360D01*
X-156681Y140398D01*
X-155256Y143113D01*
X-155247Y143145D01*
X-155225Y143186D01*
X-154254Y146095D01*
X-154250Y146129D01*
X-154235Y146173D01*
X-153743Y149199D01*
X-153744Y149233D01*
X-153736Y149279D01*
X-153736Y152346D01*
X-153743Y152379D01*
X-153743Y152426D01*
X-154235Y155452D01*
X-154247Y155484D01*
X-154254Y155530D01*
X-155225Y158439D01*
X-155238Y158462D01*
X-155244Y158486D01*
X-155251Y158495D01*
X-155256Y158512D01*
X-156681Y161227D01*
X-156703Y161254D01*
X-156724Y161295D01*
X-158566Y163747D01*
X-158591Y163769D01*
X-158619Y163807D01*
X-160831Y165931D01*
X-160859Y165949D01*
X-160893Y165982D01*
X-163416Y167723D01*
X-163443Y167735D01*
X-163465Y167753D01*
X-163534Y167774D01*
X-163599Y167801D01*
X-163628Y167802D01*
X-163656Y167810D01*
X-163727Y167802D01*
X-163798Y167802D01*
X-163825Y167791D01*
X-163854Y167788D01*
X-163916Y167753D01*
X-163981Y167725D01*
X-164002Y167704D01*
X-164027Y167690D01*
X-164090Y167613D01*
X-164120Y167582D01*
X-164124Y167572D01*
X-164133Y167562D01*
X-173633Y151062D01*
X-173657Y150989D01*
X-173688Y150918D01*
X-173688Y150895D01*
X-173696Y150873D01*
X-173690Y150796D01*
X-173691Y150719D01*
X-173681Y150695D01*
X-173680Y150675D01*
X-173659Y150635D01*
X-173640Y150583D01*
X-173639Y150578D01*
X-173637Y150576D01*
X-173633Y150563D01*
X-164133Y134063D01*
X-164114Y134042D01*
X-164101Y134015D01*
X-164048Y133968D01*
X-164001Y133914D01*
X-163975Y133902D01*
X-163954Y133882D01*
X-163886Y133859D01*
X-163822Y133828D01*
X-163793Y133827D01*
X-163766Y133818D01*
X-163694Y133822D01*
G37*
G36*
X86676Y329D02*
X86676Y329D01*
X86754Y337D01*
X86773Y348D01*
X86795Y353D01*
X86859Y397D01*
X86927Y435D01*
X86943Y454D01*
X86959Y465D01*
X86983Y503D01*
X87033Y563D01*
X96533Y17063D01*
X96542Y17091D01*
X96558Y17114D01*
X96573Y17184D01*
X96596Y17252D01*
X96593Y17281D01*
X96599Y17309D01*
X96586Y17379D01*
X96580Y17450D01*
X96567Y17476D01*
X96561Y17504D01*
X96521Y17563D01*
X96488Y17627D01*
X96466Y17645D01*
X96450Y17669D01*
X96367Y17726D01*
X96335Y17753D01*
X96324Y17756D01*
X96314Y17764D01*
X93548Y19072D01*
X93515Y19080D01*
X93472Y19101D01*
X90532Y19948D01*
X90498Y19951D01*
X90454Y19964D01*
X87416Y20330D01*
X87382Y20327D01*
X87335Y20333D01*
X84278Y20206D01*
X84245Y20198D01*
X84198Y20196D01*
X81201Y19580D01*
X81170Y19567D01*
X81124Y19558D01*
X78264Y18470D01*
X78236Y18451D01*
X78192Y18435D01*
X75544Y16902D01*
X75518Y16879D01*
X75478Y16856D01*
X73110Y14918D01*
X73088Y14892D01*
X73052Y14862D01*
X71025Y12570D01*
X71009Y12540D01*
X70977Y12505D01*
X69345Y9917D01*
X69333Y9886D01*
X69308Y9846D01*
X68112Y7030D01*
X68105Y6996D01*
X68102Y6990D01*
X68098Y6983D01*
X68097Y6978D01*
X68086Y6953D01*
X67358Y3982D01*
X67356Y3948D01*
X67345Y3902D01*
X67102Y852D01*
X67106Y824D01*
X67101Y796D01*
X67118Y726D01*
X67126Y655D01*
X67141Y630D01*
X67147Y603D01*
X67190Y545D01*
X67226Y482D01*
X67248Y465D01*
X67265Y442D01*
X67327Y406D01*
X67384Y362D01*
X67412Y355D01*
X67436Y341D01*
X67536Y324D01*
X67577Y314D01*
X67587Y315D01*
X67600Y313D01*
X86600Y313D01*
X86676Y329D01*
G37*
G36*
X87369Y281298D02*
X87369Y281298D01*
X87416Y281295D01*
X90454Y281661D01*
X90486Y281671D01*
X90532Y281677D01*
X93472Y282524D01*
X93502Y282540D01*
X93548Y282553D01*
X96314Y283861D01*
X96336Y283878D01*
X96363Y283888D01*
X96415Y283937D01*
X96473Y283980D01*
X96487Y284005D01*
X96508Y284025D01*
X96537Y284090D01*
X96573Y284152D01*
X96576Y284181D01*
X96588Y284207D01*
X96589Y284279D01*
X96598Y284349D01*
X96590Y284377D01*
X96591Y284406D01*
X96555Y284500D01*
X96544Y284541D01*
X96537Y284549D01*
X96533Y284562D01*
X87033Y301062D01*
X86981Y301120D01*
X86935Y301183D01*
X86916Y301194D01*
X86901Y301211D01*
X86831Y301244D01*
X86764Y301284D01*
X86740Y301288D01*
X86722Y301297D01*
X86677Y301299D01*
X86600Y301312D01*
X67600Y301312D01*
X67572Y301306D01*
X67544Y301309D01*
X67476Y301286D01*
X67405Y301272D01*
X67382Y301256D01*
X67355Y301247D01*
X67300Y301200D01*
X67241Y301160D01*
X67226Y301136D01*
X67205Y301117D01*
X67173Y301053D01*
X67134Y300992D01*
X67129Y300964D01*
X67117Y300939D01*
X67108Y300837D01*
X67101Y300796D01*
X67103Y300786D01*
X67102Y300773D01*
X67345Y297723D01*
X67354Y297690D01*
X67358Y297643D01*
X68086Y294672D01*
X68101Y294641D01*
X68112Y294595D01*
X69308Y291779D01*
X69327Y291751D01*
X69345Y291708D01*
X70977Y289120D01*
X71001Y289095D01*
X71025Y289055D01*
X73052Y286763D01*
X73079Y286742D01*
X73110Y286707D01*
X75478Y284769D01*
X75508Y284753D01*
X75544Y284723D01*
X78192Y283190D01*
X78224Y283179D01*
X78264Y283155D01*
X81124Y282067D01*
X81157Y282061D01*
X81201Y282045D01*
X84198Y281429D01*
X84232Y281429D01*
X84278Y281419D01*
X87335Y281292D01*
X87369Y281298D01*
G37*
G36*
X-67572Y319D02*
X-67572Y319D01*
X-67544Y316D01*
X-67476Y339D01*
X-67405Y353D01*
X-67382Y369D01*
X-67355Y378D01*
X-67300Y425D01*
X-67241Y465D01*
X-67226Y489D01*
X-67205Y508D01*
X-67173Y572D01*
X-67134Y633D01*
X-67129Y661D01*
X-67117Y686D01*
X-67108Y788D01*
X-67101Y829D01*
X-67103Y839D01*
X-67102Y852D01*
X-67345Y3902D01*
X-67354Y3935D01*
X-67358Y3982D01*
X-68086Y6953D01*
X-68101Y6984D01*
X-68112Y7030D01*
X-69308Y9846D01*
X-69327Y9874D01*
X-69345Y9917D01*
X-70977Y12505D01*
X-71001Y12530D01*
X-71025Y12570D01*
X-73052Y14862D01*
X-73079Y14883D01*
X-73110Y14918D01*
X-75478Y16856D01*
X-75508Y16872D01*
X-75544Y16902D01*
X-78192Y18435D01*
X-78224Y18446D01*
X-78264Y18470D01*
X-81124Y19558D01*
X-81157Y19564D01*
X-81201Y19580D01*
X-84198Y20196D01*
X-84232Y20196D01*
X-84278Y20206D01*
X-87335Y20333D01*
X-87369Y20327D01*
X-87416Y20330D01*
X-90454Y19964D01*
X-90486Y19954D01*
X-90532Y19948D01*
X-93472Y19101D01*
X-93502Y19085D01*
X-93548Y19072D01*
X-96314Y17764D01*
X-96336Y17747D01*
X-96363Y17737D01*
X-96415Y17688D01*
X-96473Y17645D01*
X-96487Y17620D01*
X-96508Y17600D01*
X-96537Y17535D01*
X-96573Y17473D01*
X-96576Y17445D01*
X-96588Y17418D01*
X-96589Y17346D01*
X-96598Y17276D01*
X-96590Y17248D01*
X-96591Y17219D01*
X-96555Y17125D01*
X-96544Y17084D01*
X-96537Y17076D01*
X-96533Y17063D01*
X-87033Y563D01*
X-86981Y505D01*
X-86935Y442D01*
X-86916Y431D01*
X-86901Y414D01*
X-86831Y381D01*
X-86764Y341D01*
X-86740Y337D01*
X-86722Y328D01*
X-86677Y326D01*
X-86600Y313D01*
X-67600Y313D01*
X-67572Y319D01*
G37*
G36*
X-84278Y281419D02*
X-84278Y281419D01*
X-84245Y281427D01*
X-84198Y281429D01*
X-81201Y282045D01*
X-81170Y282058D01*
X-81124Y282067D01*
X-78264Y283155D01*
X-78236Y283174D01*
X-78192Y283190D01*
X-75544Y284723D01*
X-75518Y284746D01*
X-75478Y284769D01*
X-73110Y286707D01*
X-73088Y286733D01*
X-73052Y286763D01*
X-71025Y289055D01*
X-71009Y289085D01*
X-70977Y289120D01*
X-69345Y291708D01*
X-69333Y291740D01*
X-69308Y291779D01*
X-68112Y294595D01*
X-68105Y294629D01*
X-68086Y294672D01*
X-67358Y297643D01*
X-67356Y297677D01*
X-67345Y297723D01*
X-67102Y300773D01*
X-67106Y300801D01*
X-67101Y300829D01*
X-67118Y300899D01*
X-67126Y300970D01*
X-67141Y300995D01*
X-67147Y301022D01*
X-67190Y301080D01*
X-67226Y301143D01*
X-67248Y301160D01*
X-67265Y301183D01*
X-67327Y301219D01*
X-67384Y301263D01*
X-67412Y301270D01*
X-67436Y301284D01*
X-67536Y301301D01*
X-67577Y301311D01*
X-67587Y301310D01*
X-67600Y301312D01*
X-86600Y301312D01*
X-86676Y301296D01*
X-86754Y301288D01*
X-86773Y301277D01*
X-86795Y301272D01*
X-86859Y301228D01*
X-86927Y301190D01*
X-86943Y301171D01*
X-86959Y301160D01*
X-86983Y301122D01*
X-87033Y301062D01*
X-96533Y284562D01*
X-96542Y284534D01*
X-96558Y284511D01*
X-96573Y284441D01*
X-96596Y284373D01*
X-96593Y284345D01*
X-96599Y284316D01*
X-96586Y284246D01*
X-96580Y284175D01*
X-96567Y284149D01*
X-96561Y284121D01*
X-96521Y284062D01*
X-96488Y283998D01*
X-96466Y283980D01*
X-96450Y283956D01*
X-96367Y283899D01*
X-96335Y283872D01*
X-96324Y283869D01*
X-96314Y283861D01*
X-93548Y282553D01*
X-93515Y282545D01*
X-93472Y282524D01*
X-90532Y281677D01*
X-90498Y281674D01*
X-90454Y281661D01*
X-87416Y281295D01*
X-87382Y281298D01*
X-87335Y281292D01*
X-84278Y281419D01*
G37*
%LPC*%
G36*
X39906Y163900D02*
X39906Y163900D01*
X39013Y164793D01*
X39013Y176057D01*
X39906Y176950D01*
X41720Y176950D01*
X41739Y176953D01*
X41759Y176951D01*
X41860Y176973D01*
X41962Y176989D01*
X41980Y176999D01*
X41999Y177003D01*
X42088Y177056D01*
X42180Y177105D01*
X42193Y177119D01*
X42210Y177129D01*
X42278Y177208D01*
X42349Y177283D01*
X42357Y177301D01*
X42370Y177316D01*
X42409Y177412D01*
X42453Y177506D01*
X42455Y177526D01*
X42462Y177544D01*
X42481Y177711D01*
X42481Y180952D01*
X42478Y180971D01*
X42480Y180991D01*
X42458Y181092D01*
X42441Y181194D01*
X42432Y181212D01*
X42427Y181231D01*
X42374Y181320D01*
X42326Y181412D01*
X42312Y181425D01*
X42301Y181442D01*
X42223Y181510D01*
X42148Y181581D01*
X42130Y181589D01*
X42114Y181602D01*
X42018Y181641D01*
X41925Y181685D01*
X41905Y181687D01*
X41886Y181694D01*
X41720Y181713D01*
X39931Y181713D01*
X39038Y182606D01*
X39038Y188869D01*
X39931Y189762D01*
X49194Y189762D01*
X50087Y188869D01*
X50087Y182606D01*
X49817Y182336D01*
X49764Y182262D01*
X49705Y182192D01*
X49692Y182162D01*
X49674Y182136D01*
X49647Y182049D01*
X49613Y181964D01*
X49608Y181923D01*
X49601Y181901D01*
X49602Y181869D01*
X49594Y181798D01*
X49594Y177711D01*
X49597Y177691D01*
X49595Y177672D01*
X49617Y177570D01*
X49634Y177468D01*
X49643Y177451D01*
X49648Y177431D01*
X49701Y177342D01*
X49749Y177251D01*
X49763Y177237D01*
X49774Y177220D01*
X49852Y177153D01*
X49927Y177081D01*
X49945Y177073D01*
X49961Y177060D01*
X50057Y177021D01*
X50150Y176978D01*
X50170Y176976D01*
X50189Y176968D01*
X50355Y176950D01*
X52169Y176950D01*
X53062Y176057D01*
X53062Y164793D01*
X52169Y163900D01*
X39906Y163900D01*
G37*
%LPD*%
%LPC*%
G36*
X99400Y141668D02*
X99400Y141668D01*
X94043Y147025D01*
X94043Y154600D01*
X99400Y159957D01*
X106975Y159957D01*
X112332Y154600D01*
X112332Y147025D01*
X106975Y141668D01*
X99400Y141668D01*
G37*
%LPD*%
G36*
X127289Y129336D02*
X127289Y129336D01*
X127338Y129337D01*
X127409Y129362D01*
X127482Y129378D01*
X127524Y129403D01*
X127570Y129419D01*
X127629Y129465D01*
X127693Y129504D01*
X127725Y129541D01*
X127763Y129571D01*
X127837Y129673D01*
X127853Y129691D01*
X127856Y129698D01*
X127862Y129706D01*
X138680Y148538D01*
X138703Y148598D01*
X138734Y148654D01*
X138746Y148712D01*
X138767Y148768D01*
X138769Y148832D01*
X138781Y148896D01*
X138773Y148955D01*
X138775Y149014D01*
X138757Y149076D01*
X138748Y149139D01*
X138714Y149218D01*
X138705Y149250D01*
X138694Y149265D01*
X138682Y149293D01*
X127864Y168325D01*
X127832Y168365D01*
X127808Y168409D01*
X127755Y168459D01*
X127709Y168517D01*
X127667Y168544D01*
X127630Y168578D01*
X127564Y168609D01*
X127502Y168649D01*
X127453Y168661D01*
X127407Y168682D01*
X127334Y168690D01*
X127263Y168708D01*
X127213Y168704D01*
X127163Y168709D01*
X127091Y168694D01*
X127018Y168688D01*
X126972Y168668D01*
X126922Y168657D01*
X126859Y168619D01*
X126792Y168590D01*
X126754Y168557D01*
X126711Y168531D01*
X126663Y168475D01*
X126609Y168426D01*
X126584Y168382D01*
X126551Y168344D01*
X126524Y168276D01*
X126488Y168212D01*
X126478Y168163D01*
X126459Y168116D01*
X126446Y167996D01*
X126441Y167971D01*
X126442Y167962D01*
X126441Y167949D01*
X126441Y130086D01*
X126449Y130038D01*
X126447Y129989D01*
X126468Y129917D01*
X126480Y129843D01*
X126503Y129800D01*
X126517Y129753D01*
X126561Y129692D01*
X126596Y129626D01*
X126631Y129592D01*
X126659Y129552D01*
X126720Y129508D01*
X126774Y129456D01*
X126818Y129436D01*
X126858Y129407D01*
X126929Y129384D01*
X126997Y129353D01*
X127045Y129347D01*
X127092Y129332D01*
X127167Y129334D01*
X127241Y129325D01*
X127289Y129336D01*
G37*
%LPC*%
G36*
X-74457Y56475D02*
X-74457Y56475D01*
X-75350Y57368D01*
X-75350Y69632D01*
X-74457Y70525D01*
X-63193Y70525D01*
X-62300Y69632D01*
X-62300Y57368D01*
X-63193Y56475D01*
X-74457Y56475D01*
G37*
%LPD*%
%LPC*%
G36*
X-36380Y200037D02*
X-36380Y200037D01*
X-39163Y202820D01*
X-39163Y206755D01*
X-36380Y209538D01*
X-32445Y209538D01*
X-29662Y206755D01*
X-29662Y202820D01*
X-32445Y200037D01*
X-36380Y200037D01*
G37*
%LPD*%
%LPC*%
G36*
X35620Y200037D02*
X35620Y200037D01*
X32837Y202820D01*
X32837Y206755D01*
X35620Y209538D01*
X39555Y209538D01*
X42338Y206755D01*
X42338Y202820D01*
X39555Y200037D01*
X35620Y200037D01*
G37*
%LPD*%
D10*
X46063Y127000D03*
X65063Y127000D03*
D11*
X47063Y115888D03*
X64063Y115888D03*
X47063Y106363D03*
X64063Y106363D03*
D10*
X46063Y141288D03*
X65063Y141288D03*
D11*
X46038Y153425D03*
X46038Y170425D03*
D12*
X103188Y150813D03*
D13*
X-93663Y163513D03*
X-93663Y138113D03*
X-93663Y112713D03*
D14*
X-51825Y63500D03*
X-68825Y63500D03*
D11*
X65088Y170425D03*
X65088Y153425D03*
D14*
X-116450Y150813D03*
X-99450Y150813D03*
D15*
X32213Y114820D03*
X32213Y109819D03*
X32213Y104817D03*
X32213Y99816D03*
X32213Y94815D03*
X32213Y89814D03*
X32213Y84812D03*
X32213Y79811D03*
X32213Y74810D03*
X32213Y69809D03*
X32213Y64807D03*
X32213Y59806D03*
D16*
X25920Y53513D03*
X20919Y53513D03*
X15917Y53513D03*
X10916Y53513D03*
X5915Y53513D03*
X914Y53513D03*
X-4089Y53513D03*
X-9090Y53513D03*
X-14091Y53513D03*
X-19092Y53513D03*
X-24094Y53513D03*
X-29095Y53513D03*
D15*
X-35388Y59806D03*
X-35388Y64807D03*
X-35388Y69809D03*
X-35388Y74810D03*
X-35388Y79811D03*
X-35388Y84812D03*
X-35388Y89814D03*
X-35388Y94815D03*
X-35388Y99816D03*
X-35388Y104817D03*
X-35388Y109819D03*
X-35388Y114820D03*
D16*
X-29095Y121113D03*
X-24094Y121113D03*
X-19092Y121113D03*
X-14091Y121113D03*
X-9090Y121113D03*
X-4089Y121113D03*
X914Y121113D03*
X5915Y121113D03*
X10916Y121113D03*
X15917Y121113D03*
X20919Y121113D03*
X25920Y121113D03*
D17*
X-1588Y87313D03*
D18*
X53975Y65788D03*
X53975Y77788D03*
X53975Y89787D03*
D19*
X66563Y185738D03*
X44563Y185738D03*
D20*
X42888Y212248D02*
X42888Y222328D01*
X-39713Y222328D02*
X-39713Y212248D01*
X-43313Y271748D02*
X-43313Y281828D01*
X46488Y281828D02*
X46488Y271748D01*
D10*
X6325Y276225D03*
X-12675Y276225D03*
D21*
X30163Y239738D03*
X30163Y258738D03*
D22*
X13413Y258738D03*
X13413Y249238D03*
X13413Y239738D03*
X-16588Y239738D03*
X-16588Y249238D03*
X-16588Y258738D03*
D23*
X-1588Y249238D03*
D11*
X-31750Y240738D03*
X-31750Y257738D03*
D24*
X-66675Y254000D03*
X-66675Y228600D03*
D25*
X82600Y293913D03*
X165200Y150813D03*
X82600Y7713D03*
X-82600Y7713D03*
X-165200Y150813D03*
X-82600Y293913D03*
X123900Y222313D03*
X123900Y79313D03*
X0Y7713D03*
X-123900Y79313D03*
X-123900Y222313D03*
D26*
X44563Y185738D02*
X46038Y184263D01*
X46038Y170425D01*
D27*
X46038Y170425D03*
X30163Y258738D03*
D28*
X133350Y150813D02*
X144463Y150813D01*
D26*
X65088Y170425D02*
X65088Y184263D01*
X66563Y185738D01*
D27*
X134938Y165100D03*
X133350Y139700D03*
X66675Y36513D03*
X49213Y26988D03*
X-52388Y31750D03*
X-84138Y46038D03*
X-133350Y166688D03*
X-133350Y133350D03*
X-6350Y258763D03*
X3175Y258763D03*
X3175Y250825D03*
X-6350Y250825D03*
X-6350Y242888D03*
X3175Y242888D03*
D26*
X3175Y273075D02*
X6325Y276225D01*
X3175Y273075D02*
X3175Y258763D01*
X-1588Y87313D02*
X7938Y77788D01*
D28*
X46488Y276788D02*
X59763Y276788D01*
X60325Y276225D01*
X46488Y276788D02*
X31188Y276788D01*
X30163Y277813D01*
X43088Y217488D02*
X42888Y217288D01*
X43088Y217488D02*
X61913Y217488D01*
X42888Y217288D02*
X24013Y217288D01*
X23813Y217488D01*
X-39513Y217488D02*
X-39713Y217288D01*
X-39513Y217488D02*
X-25400Y217488D01*
X-39713Y217288D02*
X-56950Y217288D01*
X-58738Y219075D01*
X-82550Y293863D02*
X-82600Y293913D01*
X-82375Y293688D01*
X-55563Y293688D01*
X82600Y293913D02*
X82600Y258813D01*
X-136525Y150813D02*
X-165200Y150813D01*
X-82600Y31800D02*
X-82600Y7713D01*
X-82600Y31800D02*
X-84138Y33338D01*
X-80788Y9525D02*
X-82600Y7713D01*
X-80788Y9525D02*
X-46038Y9525D01*
X55788Y7713D02*
X82600Y7713D01*
X82550Y7763D01*
X82550Y33338D01*
X55788Y7713D02*
X49213Y14288D01*
X49213Y26988D01*
X39688Y36513D01*
X79375Y36513D02*
X82550Y33338D01*
X79375Y36513D02*
X66675Y36513D01*
X144463Y150813D02*
X149225Y150813D01*
X144463Y150813D02*
X133350Y139700D01*
X149225Y150813D02*
X165200Y150813D01*
X149225Y150813D02*
X134938Y165100D01*
X-82600Y44500D02*
X-82600Y31800D01*
X-82600Y44500D02*
X-84138Y46038D01*
X-65088Y46038D01*
X-63500Y47625D01*
X-52388Y31750D02*
X-46038Y25400D01*
X-46038Y9525D01*
X-52388Y31750D02*
X-55563Y34925D01*
X-55563Y41275D01*
D27*
X-1588Y87313D03*
D28*
X46488Y276788D02*
X63613Y293913D01*
X82600Y293913D01*
X82600Y258813D02*
X68263Y244475D01*
X-149325Y166688D02*
X-165200Y150813D01*
X-149325Y166688D02*
X-133350Y166688D01*
X-127000Y166688D01*
X-123825Y163513D01*
X-127000Y133350D02*
X-133350Y133350D01*
X-127000Y133350D02*
X-122238Y138113D01*
X-133350Y133350D02*
X-147738Y133350D01*
X-165200Y150813D01*
X-76111Y246151D02*
X-82550Y252590D01*
X-82550Y293863D01*
D29*
X-103767Y205688D03*
D30*
X-9090Y126899D02*
X-9090Y121113D01*
X-9090Y126899D02*
X-87879Y205688D01*
X-103767Y205688D01*
X-14091Y126871D02*
X-14091Y121113D01*
X-107206Y200025D02*
X-123900Y216719D01*
X-123900Y222313D01*
X-87245Y200025D02*
X-14091Y126871D01*
X-87245Y200025D02*
X-107206Y200025D01*
X-19092Y53513D02*
X-19092Y29222D01*
X-18232Y28363D01*
D29*
X-18232Y28363D03*
D30*
X-35388Y79811D02*
X-98218Y79811D01*
X-98252Y79776D01*
D29*
X-98252Y79776D03*
D30*
X-13749Y21462D02*
X0Y7713D01*
X-13749Y21462D02*
X-20434Y21462D01*
X-24094Y25122D01*
X-24094Y53513D01*
X-100461Y85290D02*
X-106438Y79313D01*
X-123900Y79313D01*
X-38652Y94815D02*
X-35388Y94815D01*
X-38652Y94815D02*
X-48177Y85290D01*
X-100461Y85290D01*
D31*
X32213Y89814D02*
X35302Y89814D01*
X47063Y101574D02*
X47063Y106363D01*
X40213Y94724D02*
X35302Y89814D01*
X40213Y94724D02*
X47063Y101574D01*
X37214Y94815D02*
X32213Y94815D01*
X37214Y94815D02*
X40123Y94815D01*
X40213Y94724D01*
X37214Y94815D02*
X32213Y99816D01*
X47063Y106363D02*
X47063Y115888D01*
X47063Y126000D01*
X46063Y127000D01*
X46063Y141288D01*
X46063Y153400D02*
X46038Y153425D01*
X46063Y153400D02*
X46063Y141288D01*
X38148Y84812D02*
X32213Y84812D01*
X44181Y90844D02*
X44181Y92945D01*
X45818Y94581D01*
X60325Y94581D01*
X64063Y98319D01*
X64063Y106363D01*
X44181Y90844D02*
X38148Y84812D01*
X65088Y141313D02*
X65088Y153425D01*
X65088Y141313D02*
X65063Y141288D01*
X65088Y141263D01*
X65088Y127025D02*
X65063Y127000D01*
X65088Y127025D02*
X65088Y141263D01*
X65063Y127000D02*
X65063Y116888D01*
X64063Y115888D01*
X64063Y106363D01*
D30*
X94473Y53513D02*
X25920Y53513D01*
X94473Y53513D02*
X100855Y59895D01*
D29*
X100855Y59895D03*
D30*
X107757Y63169D02*
X123900Y79313D01*
X107757Y63169D02*
X107757Y57694D01*
X96101Y46038D01*
X25782Y46038D02*
X20919Y50901D01*
X20919Y53513D01*
X25782Y46038D02*
X96101Y46038D01*
X35206Y64807D02*
X32213Y64807D01*
X35206Y64807D02*
X39307Y60706D01*
X80963Y60706D02*
X94869Y74613D01*
X94869Y90373D01*
X118586Y114090D02*
X118586Y195263D01*
D29*
X118586Y195263D03*
D30*
X80963Y60706D02*
X39307Y60706D01*
X94869Y90373D02*
X118586Y114090D01*
X123900Y112788D02*
X123900Y222313D01*
X123900Y112788D02*
X98425Y87313D01*
X98425Y71438D01*
X84138Y57150D01*
X34868Y57150D02*
X32213Y59806D01*
X34868Y57150D02*
X84138Y57150D01*
D29*
X-68825Y63500D03*
D30*
X32213Y69809D02*
X39167Y69809D01*
X42300Y66675D01*
D29*
X42300Y66675D03*
D30*
X41681Y74810D02*
X32213Y74810D01*
X50703Y65788D02*
X53975Y65788D01*
X50703Y65788D02*
X41681Y74810D01*
X38536Y79811D02*
X32213Y79811D01*
X48512Y89787D02*
X53975Y89787D01*
X48512Y89787D02*
X38536Y79811D01*
D31*
X-93663Y156600D02*
X-93663Y163513D01*
X-93663Y156600D02*
X-99450Y150813D01*
X-93663Y145025D01*
X-93663Y138113D01*
D30*
X-70370Y114820D02*
X-35388Y114820D01*
X-70370Y114820D02*
X-93663Y138113D01*
X-38653Y109819D02*
X-35388Y109819D01*
X-38653Y109819D02*
X-40000Y111166D01*
X-92116Y111166D02*
X-93663Y112713D01*
X-92116Y111166D02*
X-40000Y111166D01*
X-42202Y99816D02*
X-35388Y99816D01*
X-42202Y99816D02*
X-42202Y98780D01*
D29*
X-42202Y98780D03*
D30*
X-42202Y104817D02*
X-35388Y104817D01*
X-42202Y104817D02*
X-42202Y105852D01*
D29*
X-42202Y105852D03*
D26*
X-16588Y239738D02*
X-17588Y240738D01*
X-31750Y240738D01*
D29*
X-34498Y240738D03*
D30*
X-16588Y239738D02*
X-12878Y236028D01*
X25920Y183445D02*
X25920Y121113D01*
X25920Y183445D02*
X11860Y197505D01*
X-594Y197505D01*
X-12878Y209789D01*
X-12878Y236028D01*
D32*
X-31750Y240738D02*
X-34498Y240738D01*
D33*
X-62938Y257738D02*
X-66675Y254000D01*
X-62938Y257738D02*
X-31750Y257738D01*
D27*
X-11113Y187325D03*
D33*
X-67374Y215498D02*
X-67374Y222652D01*
X-66675Y223351D02*
X-66675Y228600D01*
X-66675Y223351D02*
X-67374Y222652D01*
X-67374Y215498D02*
X-39201Y187325D01*
X-11113Y187325D01*
X12700Y187325D01*
D27*
X12700Y187325D03*
D29*
X5124Y206375D03*
X552Y222752D03*
D30*
X5124Y212277D02*
X5124Y206375D01*
X5124Y212277D02*
X552Y216849D01*
X552Y222752D01*
D29*
X-1949Y206375D03*
X7624Y222752D03*
D30*
X-1949Y206375D02*
X-1949Y205932D01*
X2922Y201061D01*
X7325Y201061D01*
X10438Y204174D01*
X10438Y219937D01*
X7624Y222752D01*
D31*
X-35388Y64807D02*
X-50519Y64807D01*
X-51825Y63500D01*
D29*
X4763Y130175D03*
D31*
X5915Y129023D02*
X5915Y121113D01*
X5915Y129023D02*
X4763Y130175D01*
D29*
X15875Y130175D03*
D31*
X15917Y130134D01*
X15917Y121113D01*
M02*
