G04 EAGLE Gerber RS-274X export*
G75*
%MOMM*%
%FSLAX34Y34*%
%LPD*%
%INSolderpaste Top*%
%IPPOS*%
%AMOC8*
5,1,8,0,0,1.08239X$1,22.5*%
G01*
%ADD10R,1.000000X1.100000*%
%ADD11R,0.800000X0.800000*%
%ADD12R,0.290000X0.700000*%
%ADD13R,1.100000X1.000000*%


D10*
X42863Y67238D03*
X42863Y50238D03*
D11*
X-61475Y60325D03*
X-46475Y60325D03*
D12*
X29088Y198188D03*
X24088Y198188D03*
X19088Y198188D03*
X14088Y198188D03*
X9088Y198188D03*
X4088Y198188D03*
X-913Y198188D03*
X-5913Y198188D03*
X-10913Y198188D03*
X-15913Y198188D03*
X-20913Y198188D03*
X-25913Y198188D03*
X-23413Y215188D03*
X-18413Y215188D03*
X-13413Y215188D03*
X-8413Y215188D03*
X-3413Y215188D03*
X1588Y215188D03*
X6588Y215188D03*
X11588Y215188D03*
X16588Y215188D03*
X21588Y215188D03*
X26588Y215188D03*
X31588Y215188D03*
D13*
X9525Y165663D03*
X9525Y148663D03*
X-7938Y148663D03*
X-7938Y165663D03*
D10*
X25400Y148663D03*
X25400Y165663D03*
X-23813Y148663D03*
X-23813Y165663D03*
D13*
X-25400Y97863D03*
X-25400Y114863D03*
X15875Y97863D03*
X15875Y114863D03*
D11*
X-25400Y90050D03*
X-25400Y75050D03*
X15875Y90050D03*
X15875Y75050D03*
M02*
